<?xml version="1.0" encoding="UTF-8"?>
<svg id="Layer_2" data-name="Layer 2" xmlns="http://www.w3.org/2000/svg" viewBox="0 0 1441.48 494.65">
  <defs>
    <style>
      .cls-1 {
        fill: #919b67;
      }

      .cls-2 {
        fill: none;
        stroke: #798645;
        stroke-miterlimit: 10;
        stroke-width: 5px;
      }

      .cls-3 {
        fill: #fffbe9;
      }
    </style>
  </defs>
  <g id="_메인오브젝트" data-name="메인오브젝트">
    <g>
      <path class="cls-3" d="M1418.04,491.86q-36.73,0-73.45-.07c-36.73,0-36.73-1.71-73.45-1.71-36.72,0-36.72-1.01-73.45-1.01-36.73,0-36.73,1.9-73.45,1.9s-36.73.88-73.45.88-36.73.3-73.45.3-36.72-4.15-73.45-4.15-36.72-.39-73.45-.39-36.72,4.16-73.45,4.16c-36.73,0-36.73-.38-73.45-.38-36.73,0-36.73-3.51-73.45-3.51s-36.73,1.49-73.45,1.49c-36.73,0-36.73,2.25-73.45,2.25-36.73,0-36.73-3.76-73.45-3.76s-36.73.77-73.45.77c-36.73,0-36.73-1.32-73.45-1.32-36.73,0-36.73,4.16-73.46,4.16s-36.73-3.17-73.46-3.17-36.73,2.3-73.46,2.3c-10.22,0-16.54-9.26-16.54-19.48,0-37.31-3.13-37.31-3.13-74.62,0-37.31,2.62-37.31,2.62-74.61,0-37.31-2.9-37.31-2.9-74.62,0-37.31,1.47-37.31,1.47-74.62,0-37.31,2.29-37.31,2.29-74.62s-1.27-37.31-1.27-74.62c0-10.22,7.23-16.33,17.45-16.33,36.73,0,36.73-2.63,73.45-2.63s36.73-.56,73.45-.56,36.72.35,73.45.35,36.73,1.47,73.45,1.47,36.73.11,73.45.11,36.73.48,73.45.48,36.72-1.01,73.45-1.01,36.72-.23,73.45-.23,36.72.71,73.45.71,36.73-.04,73.45-.04,36.73-1.79,73.45-1.79,36.73-.44,73.45-.44,36.73,3.71,73.45,3.71,36.73-3.66,73.45-3.66,36.73.1,73.45.1,36.73-1.16,73.45-1.16,36.73,1.46,73.46,1.46,36.73,3.32,73.46,3.32,36.73-3.08,73.46-3.08c10.22,0,20.18,9.01,20.18,19.24,0,37.31-3.88,37.31-3.88,74.62,0,37.31,3.48,37.31,3.48,74.61,0,37.31-1.05,37.31-1.05,74.62,0,37.31-.89,37.31-.89,74.62,0,37.31,3.1,37.31,3.1,74.62s-1.09,37.31-1.09,74.62c0,10.22-9.63,20.72-19.85,20.72Z"/>
      <path class="cls-2" d="M1418.04,491.86q-36.73,0-73.45-.07c-36.73,0-36.73-1.71-73.45-1.71-36.72,0-36.72-1.01-73.45-1.01-36.73,0-36.73,1.9-73.45,1.9s-36.73.88-73.45.88-36.73.3-73.45.3-36.72-4.15-73.45-4.15-36.72-.39-73.45-.39-36.72,4.16-73.45,4.16c-36.73,0-36.73-.38-73.45-.38-36.73,0-36.73-3.51-73.45-3.51s-36.73,1.49-73.45,1.49c-36.73,0-36.73,2.25-73.45,2.25-36.73,0-36.73-3.76-73.45-3.76s-36.73.77-73.45.77c-36.73,0-36.73-1.32-73.45-1.32-36.73,0-36.73,4.16-73.46,4.16s-36.73-3.17-73.46-3.17-36.73,2.3-73.46,2.3c-10.22,0-16.54-9.26-16.54-19.48,0-37.31-3.13-37.31-3.13-74.62,0-37.31,2.62-37.31,2.62-74.61,0-37.31-2.9-37.31-2.9-74.62,0-37.31,1.47-37.31,1.47-74.62,0-37.31,2.29-37.31,2.29-74.62s-1.27-37.31-1.27-74.62c0-10.22,7.23-16.33,17.45-16.33,36.73,0,36.73-2.63,73.45-2.63s36.73-.56,73.45-.56,36.72.35,73.45.35,36.73,1.47,73.45,1.47,36.73.11,73.45.11,36.73.48,73.45.48,36.72-1.01,73.45-1.01,36.72-.23,73.45-.23,36.72.71,73.45.71,36.73-.04,73.45-.04,36.73-1.79,73.45-1.79,36.73-.44,73.45-.44,36.73,3.71,73.45,3.71,36.73-3.66,73.45-3.66,36.73.1,73.45.1,36.73-1.16,73.45-1.16,36.73,1.46,73.46,1.46,36.73,3.32,73.46,3.32,36.73-3.08,73.46-3.08c10.22,0,20.18,9.01,20.18,19.24,0,37.31-3.88,37.31-3.88,74.62,0,37.31,3.48,37.31,3.48,74.61,0,37.31-1.05,37.31-1.05,74.62,0,37.31-.89,37.31-.89,74.62,0,37.31,3.1,37.31,3.1,74.62s-1.09,37.31-1.09,74.62c0,10.22-9.63,20.72-19.85,20.72Z"/>
    </g>
    <g>
      <path class="cls-1" d="M204.44,96.84c1.66,2.32,3.9,4.01,6.72,5.06l-2.35,3.46c-2.05-.8-3.82-1.97-5.33-3.5s-2.69-3.34-3.55-5.42c-.83,2.3-2.04,4.3-3.62,6s-3.48,2.98-5.69,3.84l-2.35-3.5c2.98-1.09,5.31-2.87,7.01-5.35,1.7-2.48,2.54-5.22,2.54-8.23v-4.7h4.13v4.85c0,2.69.83,5.19,2.5,7.51ZM221.09,120.96h-25.78v-12.62h4.18v8.93h21.6v3.7ZM220.23,111.7h-4.18v-16.9h-7.92v-3.74h7.92v-9.02h4.18v29.66Z"/>
      <path class="cls-1" d="M239.74,86.74c1.49,1.15,2.65,2.78,3.48,4.9.83,2.11,1.25,4.56,1.25,7.34s-.42,5.24-1.25,7.37c-.83,2.13-1.99,3.77-3.48,4.92-1.49,1.15-3.18,1.73-5.06,1.73s-3.62-.58-5.11-1.73c-1.49-1.15-2.66-2.78-3.5-4.9s-1.27-4.58-1.27-7.39.42-5.23,1.27-7.34c.85-2.11,2.02-3.74,3.5-4.9s3.19-1.73,5.11-1.73,3.58.58,5.06,1.73ZM230.38,91.75c-1.07,1.78-1.61,4.18-1.61,7.22s.54,5.5,1.61,7.27c1.07,1.78,2.5,2.66,4.29,2.66s3.16-.89,4.2-2.66c1.04-1.78,1.56-4.2,1.56-7.27s-.53-5.45-1.58-7.22c-1.06-1.78-2.45-2.66-4.18-2.66s-3.22.89-4.29,2.66ZM255.08,121.82h-4.22v-39.79h4.22v39.79Z"/>
      <path class="cls-1" d="M297.03,121.25h-26.35v-13.34h11.09v-3.89h-15.31v-3.74h34.75v3.74h-15.26v3.89h11.09v13.34ZM293.81,84.74c2.43,1.33,3.65,3.19,3.65,5.59s-1.22,4.21-3.65,5.52c-2.43,1.31-5.76,1.97-9.98,1.97s-7.55-.66-9.98-1.97c-2.43-1.31-3.65-3.15-3.65-5.52s1.21-4.22,3.65-5.57c2.43-1.34,5.76-2.02,9.98-2.02s7.55.67,9.98,1.99ZM276.99,87.34c-1.65.72-2.47,1.72-2.47,3s.82,2.22,2.47,2.93,3.93,1.06,6.84,1.06,5.2-.35,6.87-1.06c1.66-.7,2.49-1.68,2.49-2.93s-.83-2.28-2.49-3c-1.67-.72-3.95-1.08-6.87-1.08s-5.19.36-6.84,1.08ZM274.8,117.55h18.1v-6h-18.1v6Z"/>
      <path class="cls-1" d="M318.29,96.26c1.7,2.19,4,3.77,6.91,4.73l-2.11,3.46c-2.18-.7-4.07-1.8-5.69-3.29s-2.86-3.24-3.72-5.26c-.86,2.21-2.13,4.11-3.79,5.71-1.66,1.6-3.6,2.78-5.81,3.55l-2.3-3.41c2.97-1.06,5.33-2.74,7.05-5.06,1.73-2.32,2.59-4.84,2.59-7.56v-.82h-8.4v-3.65h20.97v3.65h-8.26v.82c0,2.56.85,4.94,2.54,7.13ZM333.17,121.78h-4.22v-10.22h-21.65v-3.65h25.87v13.87ZM333.17,106.08h-4.22v-24.05h4.22v24.05Z"/>
      <path class="cls-1" d="M352.64,85.99c1.55.85,2.78,2.03,3.67,3.55.89,1.52,1.34,3.22,1.34,5.11s-.45,3.59-1.34,5.11c-.9,1.52-2.12,2.7-3.67,3.55-1.55.85-3.27,1.27-5.16,1.27s-3.57-.43-5.14-1.3c-1.57-.86-2.8-2.05-3.7-3.55-.9-1.5-1.34-3.2-1.34-5.09s.45-3.58,1.34-5.09,2.13-2.69,3.7-3.55c1.57-.86,3.28-1.3,5.14-1.3s3.61.42,5.16,1.27ZM343.13,90.31c-1.14,1.1-1.71,2.55-1.71,4.34s.57,3.23,1.71,4.32c1.13,1.09,2.58,1.63,4.34,1.63s3.26-.54,4.39-1.63c1.13-1.09,1.7-2.53,1.7-4.32s-.58-3.24-1.73-4.34c-1.15-1.1-2.61-1.66-4.37-1.66s-3.21.55-4.34,1.66ZM369.32,120.96h-26.11v-13.1h4.22v9.41h21.89v3.7ZM368.26,110.93h-4.27v-28.9h4.27v28.9Z"/>
      <path class="cls-1" d="M396.68,88.32c0,1.79-.05,3.54-.14,5.23-.1,1.7-.34,3.65-.72,5.86l3.07-.38.34,3.26c-2.3.45-5.04.8-8.21,1.06v15.12h-4.03v-14.88c-2.72.1-5.22.14-7.49.14l-.48-3.65c4.9,0,9.12-.11,12.67-.34.58-3.07.9-6.32.96-9.74h-11.57v-3.6h15.6v1.92ZM404.98,119.66h-3.94v-9.26h-6.67v-3.65h6.67v-23.86h3.94v36.77ZM412.42,121.78h-3.94v-39.74h3.94v39.74Z"/>
      <path class="cls-1" d="M430.8,96.12c1.63,2.19,3.84,3.8,6.62,4.82l-2.06,3.46c-2.11-.74-3.95-1.85-5.5-3.34-1.55-1.49-2.76-3.22-3.62-5.21-.83,2.21-2.06,4.14-3.7,5.78-1.63,1.65-3.57,2.86-5.81,3.62l-2.26-3.5c2.94-1.02,5.27-2.7,6.98-5.04,1.71-2.33,2.57-4.86,2.57-7.58v-.86h-8.21v-3.65h20.54v3.65h-8.02v.82c0,2.5.82,4.84,2.45,7.03ZM446.4,121.78h-4.22v-10.42h-21.6v-3.74h25.82v14.16ZM446.4,105.84h-4.22v-9.98h-6.86v-3.79h6.86v-10.03h4.22v23.81Z"/>
      <path class="cls-1" d="M484.37,102.29h-34.75v-3.6h34.75v3.6ZM477.08,84.5c2.37,1.17,3.55,2.86,3.55,5.06s-1.19,3.91-3.55,5.11c-2.37,1.2-5.73,1.8-10.08,1.8s-7.67-.6-10.05-1.8c-2.38-1.2-3.58-2.9-3.58-5.11s1.18-3.9,3.55-5.06c2.37-1.17,5.73-1.75,10.08-1.75s7.71.58,10.08,1.75ZM480,114.62h-22.03v3.22h23.14v3.55h-27.22v-10.03h22.03v-2.83h-22.13v-3.41h26.21v9.5ZM460.13,87c-1.6.62-2.4,1.48-2.4,2.57,0,1.15.79,2.02,2.38,2.62s3.88.89,6.89.89,5.36-.3,6.96-.89c1.6-.59,2.4-1.46,2.4-2.62,0-1.09-.81-1.94-2.42-2.57-1.62-.62-3.93-.94-6.94-.94s-5.26.31-6.86.94Z"/>
      <path class="cls-1" d="M508.56,84.53c1.54.77,2.74,1.83,3.6,3.19.86,1.36,1.3,2.9,1.3,4.63s-.43,3.32-1.3,4.68c-.86,1.36-2.06,2.42-3.58,3.17s-3.24,1.13-5.16,1.13-3.59-.38-5.11-1.13-2.72-1.82-3.6-3.19c-.88-1.38-1.32-2.93-1.32-4.66s.44-3.27,1.32-4.63c.88-1.36,2.08-2.42,3.6-3.19,1.52-.77,3.22-1.15,5.11-1.15s3.6.38,5.14,1.15ZM499.18,88.61c-1.1.96-1.66,2.21-1.66,3.74s.55,2.83,1.66,3.79c1.11.96,2.52,1.44,4.25,1.44s3.24-.48,4.34-1.44c1.11-.96,1.66-2.22,1.66-3.79s-.55-2.82-1.66-3.77c-1.1-.94-2.55-1.42-4.34-1.42s-3.14.48-4.25,1.44ZM524.36,114.14h-20.97v3.46h22.13v3.65h-26.21v-10.51h20.83v-3.22h-20.98v-3.6h25.2v10.22ZM524.36,102.24h-4.27v-20.21h4.27v20.21Z"/>
      <path class="cls-1" d="M543.89,96.14c1.63,2.21,3.84,3.81,6.62,4.8l-2.06,3.5c-2.08-.77-3.9-1.9-5.45-3.38-1.55-1.49-2.76-3.22-3.62-5.21-.87,2.24-2.11,4.2-3.74,5.88-1.63,1.68-3.57,2.94-5.81,3.77l-2.26-3.5c2.98-1.09,5.31-2.82,7.01-5.18,1.7-2.37,2.54-4.94,2.54-7.73v-.62h-8.21v-3.74h20.54v3.74h-8.02v.62c0,2.5.82,4.85,2.45,7.06ZM556.16,108.62c2.29,1.31,3.43,3.17,3.43,5.57s-1.14,4.26-3.43,5.57c-2.29,1.31-5.45,1.97-9.48,1.97s-7.19-.66-9.48-1.97c-2.29-1.31-3.43-3.17-3.43-5.57s1.14-4.26,3.43-5.57c2.29-1.31,5.45-1.97,9.48-1.97s7.19.66,9.48,1.97ZM540.24,111.24c-1.54.69-2.3,1.67-2.3,2.95s.77,2.27,2.3,2.98c1.54.7,3.68,1.06,6.43,1.06s4.9-.35,6.43-1.06c1.54-.7,2.3-1.7,2.3-2.98s-.77-2.26-2.3-2.95c-1.54-.69-3.68-1.03-6.43-1.03s-4.89.34-6.43,1.03ZM559.49,105.74h-4.22v-9.89h-6.91v-3.79h6.91v-10.03h4.22v23.71Z"/>
      <path class="cls-1" d="M585.7,98.4c-3.17,3.71-7.6,6.46-13.3,8.26l-1.78-3.7c4.45-1.31,7.99-3.21,10.63-5.69,2.64-2.48,4.15-5.3,4.54-8.47h-13.49v-3.74h18.1c.03,5.18-1.54,9.63-4.7,13.34ZM602.21,120.96h-25.78v-13.15h4.22v9.46h21.55v3.7ZM600.68,93.7h5.47v3.79h-5.47v13.39h-4.22v-28.85h4.22v11.66Z"/>
      <path class="cls-1" d="M625.54,88.9h7.82v-6.86h4.18v23.76h-4.18v-4.85h-9.5v-3.7h9.5v-4.7h-8.93c-1.25,3.07-3.29,5.71-6.12,7.9-2.83,2.19-6.31,3.86-10.44,5.02l-1.63-3.6c4.48-1.28,8.03-3.09,10.66-5.42,2.62-2.34,4.13-5.04,4.51-8.11h-13.11v-3.65h17.62c0,1.38-.13,2.78-.38,4.22ZM637.54,121.63h-4.18v-10.7h-21.65v-3.65h25.82v14.35Z"/>
      <path class="cls-1" d="M675.65,116.69h-34.89v-3.74h34.89v3.74ZM665.33,85.82c2.14.93,3.84,2.23,5.09,3.91s1.87,3.62,1.87,5.83-.62,4.16-1.87,5.86c-1.25,1.7-2.95,3.01-5.09,3.94-2.14.93-4.54,1.39-7.2,1.39s-5-.46-7.13-1.39c-2.13-.93-3.81-2.24-5.04-3.94-1.23-1.7-1.85-3.65-1.85-5.86s.62-4.15,1.85-5.83,2.91-2.98,5.04-3.91c2.13-.93,4.5-1.39,7.13-1.39s5.06.46,7.2,1.39ZM652.97,89.02c-1.52.62-2.71,1.5-3.58,2.64-.86,1.14-1.29,2.44-1.29,3.91s.43,2.77,1.29,3.89c.87,1.12,2.06,1.98,3.58,2.59,1.52.61,3.24.91,5.16.91,2.98,0,5.4-.67,7.27-2.02,1.87-1.34,2.81-3.14,2.81-5.38,0-1.47-.43-2.78-1.29-3.91-.87-1.14-2.06-2.02-3.58-2.64-1.52-.62-3.26-.94-5.21-.94s-3.64.31-5.16.94Z"/>
      <path class="cls-1" d="M710.69,117.02h-34.9v-3.74h15.31v-6.67h-11.04v-12.77h22.22v-5.28h-22.27v-3.74h26.5v12.58h-22.27v5.52h23.13v3.7h-12.1v6.67h15.41v3.74Z"/>
      <path class="cls-1" d="M724.47,108.05c5.7-.06,11.28-.64,16.75-1.73l.43,3.79c-5.34,1.12-11.42,1.68-18.24,1.68h-3.12v-25.92h4.18v22.18ZM754.42,101.33h-5.81v20.35h-4.22v-39.65h4.22v15.5h5.81v3.79Z"/>
      <path class="cls-1" d="M788.69,104.88h-14.98v7.68h-4.22v-7.68h-15.65v-3.7h34.85v3.7ZM784.99,120.96h-26.78v-11.86h4.18v8.16h22.61v3.7ZM784.76,97.2h-26.21v-13.82h4.18v10.18h22.03v3.65Z"/>
      <path class="cls-1" d="M810.63,103.2c3.87-.13,7.65-.4,11.33-.82l.19,3.41c-3.33.51-6.85.86-10.56,1.06v13.68h-4.22v-13.49c-2.4.1-5.79.14-10.18.14l-.48-3.74c5.41-.03,10.05-.11,13.92-.24ZM819.27,98.88h-19.01v-14.64h18.48v3.6h-14.3v7.39h14.83v3.65ZM828.63,121.73h-4.22v-39.7h4.22v39.7Z"/>
      <path class="cls-1" d="M835.39,114.84c.48-.5,1.14-.74,1.97-.74.77,0,1.38.19,1.85.58.46.38.74.88.84,1.49.13.38.19.83.19,1.34,0,.96-.27,1.98-.81,3.07-.42.8-.95,1.52-1.61,2.16-.66.64-1.35,1.15-2.09,1.54l-1.25-1.39c1.22-.93,1.98-1.98,2.3-3.17l.14-.53c-.71-.06-1.26-.33-1.66-.79-.4-.46-.6-1.02-.6-1.66,0-.77.24-1.4.72-1.9Z"/>
      <path class="cls-1" d="M867.12,96.14c1.63,2.21,3.84,3.81,6.62,4.8l-2.06,3.5c-2.08-.77-3.9-1.9-5.45-3.38-1.55-1.49-2.76-3.22-3.62-5.21-.87,2.24-2.11,4.2-3.74,5.88-1.63,1.68-3.57,2.94-5.81,3.77l-2.26-3.5c2.98-1.09,5.31-2.82,7.01-5.18,1.7-2.37,2.54-4.94,2.54-7.73v-.62h-8.21v-3.74h20.54v3.74h-8.02v.62c0,2.5.82,4.85,2.45,7.06ZM879.39,108.62c2.29,1.31,3.43,3.17,3.43,5.57s-1.14,4.26-3.43,5.57c-2.29,1.31-5.45,1.97-9.48,1.97s-7.19-.66-9.48-1.97c-2.29-1.31-3.43-3.17-3.43-5.57s1.14-4.26,3.43-5.57c2.29-1.31,5.45-1.97,9.48-1.97s7.19.66,9.48,1.97ZM863.47,111.24c-1.54.69-2.3,1.67-2.3,2.95s.77,2.27,2.3,2.98c1.54.7,3.68,1.06,6.43,1.06s4.9-.35,6.43-1.06c1.54-.7,2.3-1.7,2.3-2.98s-.77-2.26-2.3-2.95c-1.54-.69-3.68-1.03-6.43-1.03s-4.89.34-6.43,1.03ZM882.72,105.74h-4.22v-9.89h-6.91v-3.79h6.91v-10.03h4.22v23.71Z"/>
      <path class="cls-1" d="M904.61,88.27h-12.72v10.13c3.9,0,7.02-.08,9.34-.24s4.6-.5,6.84-1.01l.48,3.7c-2.53.51-5.08.86-7.66,1.06-2.58.19-5.96.29-10.15.29h-3.07v-17.57h16.95v3.65ZM895.63,109.63h16.18v-4.42h4.18v15.98h-24.53v-15.98h4.18v4.42ZM911.81,117.5v-4.27h-16.18v4.27h16.18ZM915.99,91.06h5.47v3.74h-5.47v8.5h-4.18v-21.26h4.18v9.02Z"/>
      <path class="cls-1" d="M932.55,109.39c4.67-.22,8.62-.54,11.86-.96l.24,3.41c-3.55.61-7.26,1.01-11.14,1.2-3.87.19-8.02.29-12.43.29l-.38-3.7,7.68-.1v-12h4.18v11.86ZM942.29,88.85c0,2.53-.06,4.98-.19,7.37-.13,2.38-.45,5.13-.96,8.23l-4.08-.38c.7-4.58,1.06-9.28,1.06-14.11h-15.41v-3.7h19.58v2.59ZM950.79,98.35h5.71v3.84h-5.71v19.58h-4.27v-39.74h4.27v16.32Z"/>
      <path class="cls-1" d="M970.28,95.47h10.03v-10.13h4.18v27.07h-18.43v-27.07h4.22v10.13ZM980.31,108.67v-9.65h-10.03v9.65h10.03ZM995.67,121.82h-4.27v-39.79h4.27v39.79Z"/>
      <path class="cls-1" d="M1033.78,116.5h-34.75v-3.74h8.11v-12.82h4.22v12.82h5.33v-12.82h4.13v12.82h12.96v3.74ZM1030.13,90.05c0,3.39-.08,6.38-.24,8.98s-.54,5.57-1.15,8.93l-4.18-.43c.61-3.2.98-6.08,1.13-8.64.14-2.56.21-5.5.21-8.83v-.58h-23.33v-3.7h27.55v4.27Z"/>
      <path class="cls-1" d="M1056.53,91.92h-22.61v-3.7h9.27v-5.62h4.22v5.62h9.12v3.7ZM1050.22,95.78c1.46.78,2.6,1.88,3.43,3.29s1.25,3.01,1.25,4.8-.42,3.4-1.25,4.82-1.98,2.53-3.43,3.31c-1.46.79-3.08,1.18-4.87,1.18s-3.46-.39-4.9-1.18c-1.44-.78-2.58-1.88-3.41-3.29-.83-1.41-1.25-3.02-1.25-4.85s.42-3.39,1.25-4.8,1.97-2.5,3.43-3.29c1.46-.78,3.08-1.18,4.87-1.18s3.41.39,4.87,1.18ZM1041.36,99.86c-1.03,1.01-1.54,2.34-1.54,4.01s.51,3.01,1.54,4.03c1.02,1.02,2.35,1.54,3.98,1.54s2.95-.51,3.96-1.54c1.01-1.02,1.51-2.37,1.51-4.03s-.5-3-1.51-4.01-2.33-1.51-3.96-1.51-2.96.5-3.98,1.51ZM1063.87,98.02h6v3.74h-6v20.02h-4.18v-39.74h4.18v15.98Z"/>
      <path class="cls-1" d="M1084.13,86.47c1.38.98,2.48,2.36,3.31,4.15h9.36v-8.59h4.13v39.79h-4.13v-15.12h-9.07c-.83,1.98-1.96,3.53-3.38,4.63-1.43,1.1-3.05,1.66-4.87,1.66s-3.56-.58-5.02-1.73c-1.46-1.15-2.59-2.78-3.41-4.9s-1.22-4.58-1.22-7.39.41-5.27,1.22-7.37,1.95-3.72,3.41-4.87c1.46-1.15,3.13-1.73,5.02-1.73,1.73,0,3.28.49,4.66,1.46ZM1075.32,91.75c-1.04,1.78-1.56,4.18-1.56,7.22s.52,5.5,1.56,7.27c1.04,1.78,2.42,2.66,4.15,2.66s3.11-.89,4.15-2.66c1.04-1.78,1.56-4.2,1.56-7.27s-.52-5.45-1.56-7.22c-1.04-1.78-2.42-2.66-4.15-2.66s-3.11.89-4.15,2.66ZM1089.07,98.98c0,1.54-.11,2.88-.34,4.03h8.06v-8.69h-8.16c.29,1.44.43,2.99.43,4.66Z"/>
      <path class="cls-1" d="M1146.96,108.05h-8.74v13.73h-4.27v-13.73h-8.93v13.73h-4.27v-13.73h-8.64v-3.65h34.85v3.65ZM1136.55,84.65c2.05.72,3.65,1.74,4.8,3.05,1.15,1.31,1.73,2.86,1.73,4.66s-.58,3.3-1.73,4.63c-1.15,1.33-2.75,2.34-4.8,3.05-2.05.7-4.42,1.06-7.1,1.06s-5.02-.35-7.08-1.06c-2.06-.7-3.67-1.72-4.8-3.05-1.14-1.33-1.7-2.87-1.7-4.63s.57-3.34,1.7-4.66c1.13-1.31,2.74-2.33,4.8-3.05,2.06-.72,4.42-1.08,7.08-1.08s5.05.36,7.1,1.08ZM1122.7,88.61c-1.68.93-2.52,2.18-2.52,3.74s.84,2.82,2.52,3.74c1.68.93,3.93,1.39,6.74,1.39s5.11-.46,6.79-1.39c1.68-.93,2.52-2.17,2.52-3.74s-.84-2.82-2.52-3.74c-1.68-.93-3.94-1.39-6.79-1.39s-5.06.46-6.74,1.39Z"/>
      <path class="cls-1" d="M1161.7,98.95c.8,2.26,1.93,4.27,3.38,6.05,1.46,1.78,3.11,3.13,4.97,4.06l-2.64,3.55c-2.02-1.06-3.79-2.61-5.33-4.66-1.54-2.05-2.74-4.4-3.6-7.06-.9,2.85-2.15,5.36-3.77,7.54-1.62,2.18-3.5,3.82-5.64,4.94l-2.59-3.55c1.95-.96,3.67-2.38,5.16-4.25s2.64-3.98,3.46-6.34c.82-2.35,1.22-4.74,1.22-7.18v-6.72h4.18v6.72c0,2.34.4,4.63,1.2,6.89ZM1176.96,97.73h6v3.89h-6v20.16h-4.22v-39.74h4.22v15.7Z"/>
      <path class="cls-1" d="M1213.15,103.92h-11.47v9.31h15.41v3.7h-34.89v-3.7h15.31v-9.31h-10.94v-18.82h26.26v3.65h-22.03v11.47h22.37v3.7Z"/>
      <path class="cls-1" d="M1252.08,103.63h-34.85v-3.41h34.85v3.41ZM1247.86,115.1h-22.27v2.98h23.42v3.22h-27.6v-9.22h22.22v-2.69h-22.32v-3.22h26.54v8.93ZM1247.71,91.82h-21.84v2.78h22.51v3.22h-26.74v-8.98h21.89v-2.59h-21.94v-3.22h26.11v8.78Z"/>
      <path class="cls-1" d="M141.59,177.41h-4.03v-13.39h-6.34v-3.7h6.34v-6.19h-5.71c-1.92,7.01-6.26,12.61-13.01,16.8l-2.5-3.22c3.94-2.43,6.93-5.26,8.98-8.5,2.05-3.23,3.25-6.9,3.6-10.99h-10.66v-3.65h14.79c0,1.98-.14,3.94-.43,5.86h4.94v-9.84h4.03v36.82ZM149.36,179.38h-3.98v-39.74h3.98v39.74Z"/>
      <path class="cls-1" d="M167.51,154.27c1.66,2.24,3.94,3.87,6.82,4.9l-2.16,3.5c-2.08-.74-3.9-1.85-5.47-3.34-1.57-1.49-2.8-3.24-3.7-5.26-.83,2.21-2.05,4.13-3.65,5.76s-3.52,2.86-5.76,3.7l-2.3-3.5c3.01-1.06,5.35-2.78,7.03-5.18,1.68-2.4,2.52-5.09,2.52-8.06v-4.7h4.18v4.85c0,2.66.83,5.1,2.5,7.34ZM183.25,178.56h-25.78v-12.62h4.22v8.93h21.55v3.7ZM181.62,151.49h5.47v3.84h-5.47v13.63h-4.18v-29.33h4.18v11.86Z"/>
      <path class="cls-1" d="M209.41,147.12h-22.7v-3.65h9.31v-4.13h4.18v4.13h9.21v3.65ZM204.83,150.43c1.71,1.28,2.57,2.98,2.57,5.09s-.86,3.86-2.57,5.14-3.96,1.92-6.74,1.92-4.98-.64-6.7-1.92c-1.71-1.28-2.57-2.99-2.57-5.14s.86-3.81,2.57-5.09c1.71-1.28,3.94-1.92,6.7-1.92s5.03.64,6.74,1.92ZM196.4,168.1h16.13v-3.74h4.13v14.5h-24.43v-14.5h4.18v3.74ZM194.31,152.95c-.94.66-1.42,1.51-1.42,2.57,0,1.15.47,2.05,1.42,2.69.94.64,2.2.96,3.77.96s2.87-.32,3.82-.96c.94-.64,1.42-1.54,1.42-2.69,0-1.06-.47-1.91-1.42-2.57s-2.22-.98-3.82-.98-2.82.33-3.77.98ZM212.53,175.2v-3.55h-16.13v3.55h16.13ZM216.66,149.57h5.52v3.79h-5.52v9.5h-4.13v-23.23h4.13v9.94Z"/>
      <path class="cls-1" d="M228.18,165.46c5.95-.06,11.74-.67,17.38-1.82l.58,3.79c-3.14.7-6.24,1.19-9.31,1.46-3.07.27-6.27.41-9.6.41h-3.22v-25.82h4.18v21.98ZM253.43,179.38h-4.18v-39.74h4.18v39.74Z"/>
      <path class="cls-1" d="M276.28,147.12h-13.63v18.72c3.39,0,6.34-.09,8.86-.26s5.05-.52,7.61-1.03l.43,3.84c-2.82.51-5.59.86-8.3,1.03-2.72.18-5.95.26-9.7.26h-3.12v-26.26h17.86v3.7ZM286.55,154.94h6.05v3.74h-6.05v20.74h-4.22v-39.79h4.22v15.31Z"/>
      <path class="cls-1" d="M295.23,172.44c.48-.5,1.14-.74,1.97-.74s1.54.25,2.02.74c.48.5.72,1.13.72,1.9s-.24,1.34-.72,1.8-1.15.7-2.02.7-1.49-.23-1.97-.7-.72-1.06-.72-1.8.24-1.4.72-1.9Z"/>
      <path class="cls-1" d="M345.54,164.06h-34.75v-3.6h34.75v3.6ZM341.12,179.38h-4.22v-8.54h-22.18v-3.6h26.4v12.14ZM341.65,157.3h-26.4v-16.7h26.11v3.6h-21.89v2.98h20.88v3.46h-20.88v3.17h22.18v3.5Z"/>
      <path class="cls-1" d="M369.63,149.57h-22.94v-3.7h9.31v-5.76h4.27v5.76h9.36v3.7ZM363.13,153.38c1.46.78,2.6,1.88,3.43,3.29s1.25,3.01,1.25,4.8-.42,3.44-1.25,4.85c-.83,1.41-1.97,2.5-3.41,3.29-1.44.79-3.07,1.18-4.9,1.18s-3.47-.39-4.94-1.18c-1.47-.78-2.63-1.89-3.48-3.31s-1.27-3.03-1.27-4.82.42-3.39,1.27-4.8,2.01-2.5,3.48-3.29c1.47-.78,3.12-1.18,4.94-1.18s3.42.39,4.87,1.18ZM354.15,157.46c-1.04,1.01-1.56,2.34-1.56,4.01s.52,3.01,1.56,4.03c1.04,1.02,2.41,1.54,4.1,1.54s2.97-.51,4.01-1.54c1.04-1.02,1.56-2.37,1.56-4.03s-.52-2.96-1.56-3.98c-1.04-1.02-2.38-1.54-4.01-1.54s-3.06.5-4.1,1.51ZM377.46,179.38h-4.22v-39.74h4.22v39.74Z"/>
      <path class="cls-1" d="M409.74,144.12c2.35,1.36,4.18,3.28,5.5,5.76,1.31,2.48,1.97,5.34,1.97,8.57v1.73c0,3.26-.66,6.14-1.97,8.62-1.31,2.48-3.16,4.4-5.54,5.76-2.38,1.36-5.14,2.04-8.28,2.04h-10.18v-34.51h10.37c3.07,0,5.79.68,8.14,2.04ZM397.57,171.5h3.84c3.07,0,5.41-.98,7.01-2.95s2.4-4.76,2.4-8.38v-1.78c0-3.62-.79-6.39-2.35-8.33-1.57-1.94-3.86-2.9-6.87-2.9h-4.03v24.34Z"/>
      <path class="cls-1" d="M427.57,147.17h-10.61v-5.09h27.65v5.09h-10.71v29.42h-6.34v-29.42Z"/>
      <path class="cls-1" d="M458.29,163.49l5.38-21.41h5.33l5.28,21.26,1.01,4.37.82-4.61,4.27-21.02h6.29l-7.82,34.51h-6.24l-5.66-21.89-.58-2.64-.67,2.69-5.66,21.84h-6.24l-7.87-34.51h6.29l4.37,21.22.77,4.37.96-4.18Z"/>
      <path class="cls-1" d="M491.22,149.38c.96-3.07,2.18-5.71,3.65-7.92,1.47-2.21,2.99-3.94,4.56-5.18l3.07,2.83c-1.22,1.12-2.41,2.68-3.58,4.68s-2.13,4.34-2.9,7.01c-.77,2.67-1.15,5.5-1.15,8.47,0,3.14.38,6.07,1.15,8.81.77,2.74,1.74,5.11,2.9,7.13,1.17,2.02,2.36,3.62,3.58,4.8l-3.07,2.83c-1.6-1.28-3.13-3.02-4.58-5.23s-2.66-4.88-3.62-8.02c-.96-3.14-1.44-6.56-1.44-10.27s.48-6.86,1.44-9.94Z"/>
      <path class="cls-1" d="M525.03,144.12c2.35,1.36,4.18,3.28,5.5,5.76,1.31,2.48,1.97,5.34,1.97,8.57v1.73c0,3.26-.66,6.14-1.97,8.62-1.31,2.48-3.16,4.4-5.54,5.76-2.38,1.36-5.14,2.04-8.28,2.04h-10.18v-34.51h10.37c3.07,0,5.79.68,8.14,2.04ZM512.86,171.5h3.84c3.07,0,5.41-.98,7.01-2.95s2.4-4.76,2.4-8.38v-1.78c0-3.62-.79-6.39-2.35-8.33-1.57-1.94-3.86-2.9-6.87-2.9h-4.03v24.34Z"/>
      <path class="cls-1" d="M538.5,186.91c-.96,0-1.9-.13-2.83-.38v-4.66c.19.03.56.05,1.1.05,1.38,0,2.42-.24,3.12-.72.71-.48,1.25-1.31,1.63-2.5l.86-2.16-9.07-25.63h6.58l5.28,16.94,5.13-16.94h6.48l-10.22,29.57c-1.5,4.29-4.19,6.43-8.06,6.43Z"/>
      <path class="cls-1" d="M558.03,150.91h5.76l.19,3.07c.9-1.15,1.98-2.03,3.27-2.64,1.28-.61,2.69-.91,4.22-.91,5.41,0,8.11,3.22,8.11,9.65v16.51h-6.1v-16.56c0-1.66-.36-2.84-1.08-3.53-.72-.69-1.83-1.03-3.34-1.03-1.12,0-2.1.26-2.93.77s-1.49,1.23-1.97,2.16v18.19h-6.14v-25.68Z"/>
      <path class="cls-1" d="M596.7,156.14c-.72-.77-1.79-1.15-3.19-1.15-1.28,0-2.31.33-3.1.98-.78.66-1.18,1.48-1.18,2.47h-6.1c0-1.41.45-2.73,1.34-3.96.9-1.23,2.15-2.22,3.77-2.95,1.62-.74,3.48-1.1,5.59-1.1,3.04,0,5.47.77,7.29,2.3,1.82,1.54,2.74,3.74,2.74,6.62v11.18c0,2.27.34,4.16,1.01,5.66v.38h-6.19c-.29-.61-.51-1.41-.67-2.4-1.79,1.92-4.03,2.88-6.72,2.88-1.66,0-3.16-.34-4.49-1.01s-2.37-1.59-3.12-2.76c-.75-1.17-1.13-2.47-1.13-3.91,0-2.72,1.02-4.8,3.05-6.24,2.03-1.44,4.95-2.16,8.76-2.16h3.41v-1.68c0-1.34-.36-2.4-1.08-3.17ZM595.74,171.41c.94-.58,1.62-1.26,2.04-2.06v-4.7h-3.03c-2.02,0-3.53.38-4.54,1.13-1.01.75-1.51,1.78-1.51,3.1,0,.99.34,1.81,1.01,2.45.67.64,1.6.96,2.78.96s2.3-.29,3.24-.86Z"/>
      <path class="cls-1" d="M608,150.91h5.71l.19,2.83c1.86-2.21,4.34-3.31,7.44-3.31,3.36,0,5.68,1.33,6.96,3.98.86-1.25,1.95-2.22,3.26-2.93s2.83-1.06,4.56-1.06c2.69,0,4.75.77,6.19,2.3,1.44,1.54,2.16,3.98,2.16,7.34v16.51h-6.1v-16.56c0-1.47-.38-2.6-1.15-3.38-.77-.78-1.84-1.18-3.22-1.18s-2.43.38-3.36,1.15c-.93.77-1.39,1.74-1.39,2.93v17.04h-6.1v-16.8c0-1.41-.38-2.48-1.15-3.22-.77-.74-1.84-1.1-3.21-1.1-1.25,0-2.35.38-3.31,1.13-.96.75-1.44,1.74-1.44,2.95v17.04h-6.05v-25.68Z"/>
      <path class="cls-1" d="M650.36,141.94c.62-.61,1.46-.91,2.52-.91s1.9.3,2.52.91c.62.61.94,1.38.94,2.3s-.31,1.69-.94,2.28c-.62.59-1.46.89-2.52.89s-1.9-.3-2.52-.89c-.62-.59-.94-1.35-.94-2.28s.31-1.7.94-2.3ZM649.81,150.91h6.1v25.68h-6.1v-25.68Z"/>
      <path class="cls-1" d="M675.03,171c.91-.78,1.4-1.8,1.46-3.05h5.71c-.03,1.7-.52,3.24-1.46,4.63-.94,1.39-2.21,2.49-3.79,3.29-1.58.8-3.34,1.2-5.26,1.2-2.53,0-4.67-.57-6.43-1.7-1.76-1.14-3.08-2.68-3.96-4.63-.88-1.95-1.32-4.14-1.32-6.58v-.77c0-2.43.44-4.63,1.32-6.6.88-1.97,2.19-3.52,3.94-4.66,1.74-1.14,3.88-1.7,6.41-1.7,2.05,0,3.87.41,5.45,1.22,1.58.82,2.82,1.97,3.72,3.46.9,1.49,1.36,3.19,1.39,5.11h-5.71c-.06-1.41-.53-2.57-1.39-3.48-.87-.91-2.05-1.37-3.55-1.37-3.68,0-5.52,2.67-5.52,8.02v.77c0,5.34,1.86,8.02,5.57,8.02,1.38,0,2.52-.39,3.43-1.18Z"/>
      <path class="cls-1" d="M701.84,147.17h-10.61v-5.09h27.65v5.09h-10.7v29.42h-6.34v-29.42Z"/>
      <path class="cls-1" d="M722.88,141.94c.62-.61,1.46-.91,2.52-.91s1.89.3,2.52.91c.62.61.94,1.38.94,2.3s-.31,1.69-.94,2.28c-.62.59-1.46.89-2.52.89s-1.9-.3-2.52-.89c-.62-.59-.94-1.35-.94-2.28s.31-1.7.94-2.3ZM722.33,150.91h6.1v25.68h-6.1v-25.68Z"/>
      <path class="cls-1" d="M733.76,150.91h5.71l.19,2.83c1.86-2.21,4.33-3.31,7.44-3.31,3.36,0,5.68,1.33,6.96,3.98.87-1.25,1.95-2.22,3.27-2.93,1.31-.7,2.83-1.06,4.56-1.06,2.69,0,4.75.77,6.19,2.3,1.44,1.54,2.16,3.98,2.16,7.34v16.51h-6.1v-16.56c0-1.47-.38-2.6-1.15-3.38-.77-.78-1.84-1.18-3.21-1.18s-2.43.38-3.36,1.15c-.93.77-1.39,1.74-1.39,2.93v17.04h-6.1v-16.8c0-1.41-.38-2.48-1.15-3.22s-1.84-1.1-3.22-1.1c-1.25,0-2.35.38-3.31,1.13-.96.75-1.44,1.74-1.44,2.95v17.04h-6.05v-25.68Z"/>
      <path class="cls-1" d="M778.92,175.44c-1.89-1.09-3.34-2.58-4.35-4.46-1.01-1.89-1.51-4-1.51-6.34,0-2.91.5-5.44,1.51-7.58,1.01-2.14,2.4-3.78,4.18-4.92,1.78-1.14,3.8-1.7,6.07-1.7,3.62,0,6.37,1.14,8.26,3.41,1.89,2.27,2.83,5.34,2.83,9.22v2.59h-16.65c.16,1.95.84,3.53,2.04,4.73s2.74,1.8,4.63,1.8c2.59,0,4.72-1.02,6.38-3.07l3.12,3.22c-.93,1.38-2.22,2.51-3.89,3.41s-3.66,1.34-6,1.34c-2.53,0-4.74-.54-6.62-1.63ZM781.13,156.94c-.93,1.04-1.52,2.5-1.78,4.39h10.56v-.48c-.06-1.63-.5-2.95-1.32-3.96-.82-1.01-2.07-1.51-3.77-1.51-1.54,0-2.77.52-3.7,1.56Z"/>
      <path class="cls-1" d="M817.37,163.49l5.38-21.41h5.33l5.28,21.26,1.01,4.37.82-4.61,4.27-21.02h6.29l-7.82,34.51h-6.24l-5.66-21.89-.58-2.64-.67,2.69-5.66,21.84h-6.24l-7.87-34.51h6.29l4.37,21.22.77,4.37.96-4.18Z"/>
      <path class="cls-1" d="M859.01,156.14c-.72-.77-1.79-1.15-3.19-1.15-1.28,0-2.31.33-3.1.98-.78.66-1.18,1.48-1.18,2.47h-6.1c0-1.41.45-2.73,1.34-3.96.9-1.23,2.15-2.22,3.77-2.95,1.62-.74,3.48-1.1,5.59-1.1,3.04,0,5.47.77,7.29,2.3,1.82,1.54,2.74,3.74,2.74,6.62v11.18c0,2.27.34,4.16,1.01,5.66v.38h-6.19c-.29-.61-.51-1.41-.67-2.4-1.79,1.92-4.03,2.88-6.72,2.88-1.66,0-3.16-.34-4.49-1.01s-2.37-1.59-3.12-2.76c-.75-1.17-1.13-2.47-1.13-3.91,0-2.72,1.02-4.8,3.05-6.24,2.03-1.44,4.95-2.16,8.76-2.16h3.41v-1.68c0-1.34-.36-2.4-1.08-3.17ZM858.05,171.41c.94-.58,1.62-1.26,2.04-2.06v-4.7h-3.03c-2.02,0-3.53.38-4.54,1.13-1.01.75-1.51,1.78-1.51,3.1,0,.99.34,1.81,1.01,2.45.67.64,1.6.96,2.78.96s2.3-.29,3.24-.86Z"/>
      <path class="cls-1" d="M870.31,150.91h5.76l.19,3.02c1.34-2.33,3.28-3.5,5.81-3.5.35,0,.73.03,1.13.1.4.07.7.14.89.24l-.05,5.76c-.9-.13-1.68-.19-2.35-.19-2.66,0-4.43,1.01-5.33,3.02v17.23h-6.05v-25.68Z"/>
      <path class="cls-1" d="M885.91,150.91h5.57l.29,2.59c1.73-2.05,3.98-3.07,6.77-3.07,3.2,0,5.67,1.18,7.42,3.53,1.74,2.35,2.62,5.53,2.62,9.53v.53c0,2.53-.39,4.78-1.18,6.74-.79,1.97-1.92,3.51-3.41,4.63-1.49,1.12-3.27,1.68-5.35,1.68-2.75,0-4.98-.93-6.67-2.78v12.14h-6.05v-35.52ZM901.11,157.68c-.91-1.47-2.31-2.21-4.2-2.21-2.34,0-3.98.91-4.94,2.74v11.14c1.02,1.89,2.69,2.83,4.99,2.83,1.86,0,3.24-.76,4.15-2.28.91-1.52,1.37-3.48,1.37-5.88v-.53c0-2.4-.46-4.34-1.37-5.81Z"/>
      <path class="cls-1" d="M912.38,141.94c.62-.61,1.46-.91,2.52-.91s1.9.3,2.52.91c.62.61.94,1.38.94,2.3s-.31,1.69-.94,2.28c-.62.59-1.46.89-2.52.89s-1.9-.3-2.52-.89c-.62-.59-.94-1.35-.94-2.28s.31-1.7.94-2.3ZM911.83,150.91h6.1v25.68h-6.1v-25.68Z"/>
      <path class="cls-1" d="M923.11,150.91h5.76l.19,3.07c.89-1.15,1.98-2.03,3.26-2.64,1.28-.61,2.69-.91,4.22-.91,5.41,0,8.11,3.22,8.11,9.65v16.51h-6.1v-16.56c0-1.66-.36-2.84-1.08-3.53-.72-.69-1.83-1.03-3.34-1.03-1.12,0-2.1.26-2.93.77s-1.49,1.23-1.97,2.16v18.19h-6.14v-25.68Z"/>
      <path class="cls-1" d="M948.84,156.67c.83-1.98,2.02-3.52,3.57-4.61,1.55-1.09,3.38-1.63,5.5-1.63,2.95,0,5.22,1.01,6.82,3.02l.24-2.54h5.52v24.91c0,3.42-1.09,6.09-3.26,7.99s-5.06,2.86-8.64,2.86c-1.7,0-3.46-.34-5.28-1.03-1.82-.69-3.25-1.72-4.27-3.1l2.83-3.7c1.73,2.05,3.87,3.07,6.43,3.07,1.92,0,3.41-.52,4.46-1.56,1.05-1.04,1.58-2.52,1.58-4.44v-1.63c-1.6,1.86-3.76,2.78-6.48,2.78-2.08,0-3.9-.56-5.45-1.68-1.55-1.12-2.74-2.66-3.57-4.63-.83-1.97-1.25-4.2-1.25-6.7v-.48c0-2.62.41-4.93,1.25-6.91ZM955.13,169.85c.96,1.49,2.38,2.23,4.27,2.23,2.24,0,3.89-.93,4.95-2.78v-11.18c-1.03-1.76-2.66-2.64-4.9-2.64-1.92,0-3.36.75-4.32,2.26-.96,1.5-1.44,3.46-1.44,5.86v.48c0,2.37.48,4.3,1.44,5.78Z"/>
      <path class="cls-1" d="M985.22,169.58c-.96,3.14-2.17,5.81-3.62,8.02-1.46,2.21-2.98,3.95-4.58,5.23l-3.07-2.83c1.21-1.18,2.41-2.78,3.58-4.8,1.17-2.02,2.13-4.39,2.9-7.13.77-2.74,1.15-5.67,1.15-8.81,0-2.98-.38-5.8-1.15-8.47-.77-2.67-1.74-5.01-2.9-7.01s-2.36-3.56-3.58-4.68l3.07-2.83c1.57,1.25,3.09,2.98,4.56,5.18,1.47,2.21,2.69,4.85,3.65,7.92.96,3.07,1.44,6.38,1.44,9.94s-.48,7.14-1.44,10.27Z"/>
      <path class="cls-1" d="M1014.24,141.55c1.58.77,2.82,1.85,3.72,3.24.89,1.39,1.34,2.98,1.34,4.78s-.46,3.28-1.37,4.66c-.91,1.38-2.16,2.46-3.74,3.24s-3.35,1.18-5.3,1.18-3.82-.39-5.42-1.18c-1.6-.78-2.86-1.86-3.77-3.24-.91-1.38-1.37-2.93-1.37-4.66s.46-3.38,1.37-4.78c.91-1.39,2.17-2.47,3.77-3.24,1.6-.77,3.41-1.15,5.42-1.15s3.77.38,5.35,1.15ZM1029.05,171.94h-20.35v2.45h21.46v4.61h-27.02v-11.33h20.35v-2.35h-20.4v-4.56h25.97v11.18ZM1005.21,146.3c-.95.8-1.42,1.89-1.42,3.26s.47,2.42,1.42,3.24c.94.82,2.17,1.22,3.67,1.22s2.62-.41,3.55-1.22c.93-.82,1.39-1.9,1.39-3.24s-.46-2.46-1.39-3.26c-.93-.8-2.11-1.2-3.55-1.2s-2.73.4-3.67,1.2ZM1029.05,146.88h5.18v4.8h-5.18v7.58h-5.62v-20.11h5.62v7.73Z"/>
      <path class="cls-1" d="M1069.32,174.58h-35.57v-4.75h12.62v-13.78h5.66v13.78h17.28v4.75ZM1065.96,146.45c0,3.46-.09,6.58-.27,9.38s-.62,6.09-1.32,9.86l-5.66-.58c.67-3.36,1.11-6.41,1.32-9.14.21-2.74.31-5.64.31-8.71h-22.9v-4.66h28.51v3.84Z"/>
      <path class="cls-1" d="M1090.05,158.16h-12.72v7.2c3.1-.03,5.96-.15,8.57-.36,2.61-.21,5.27-.54,7.99-.98l.43,4.7c-2.91.54-5.84.91-8.78,1.1-2.95.19-6.43.29-10.46.29h-3.5v-16.51h12.72v-6.34h-12.77v-4.75h18.53v15.65ZM1102.2,179.47h-5.66v-40.32h5.66v40.32Z"/>
      <path class="cls-1" d="M1140.74,162h-35.57v-4.61h35.57v4.61ZM1137.53,145.44h-10.46c.51,1.47,1.8,2.76,3.86,3.86,2.06,1.1,4.84,1.8,8.33,2.09l-1.97,4.66c-3.58-.35-6.61-1.18-9.07-2.5-2.46-1.31-4.22-2.96-5.28-4.94-1.02,2.02-2.74,3.67-5.16,4.97s-5.45,2.12-9.1,2.47l-1.92-4.66c3.46-.29,6.21-.98,8.26-2.09,2.05-1.1,3.33-2.39,3.84-3.86h-10.37v-4.66h29.04v4.66ZM1136.57,178.99h-27.22v-14.11h27.22v14.11ZM1114.87,174.34h16.13v-4.85h-16.13v4.85Z"/>
      <path class="cls-1" d="M1175.69,159.89h-34.75v-3.6h34.75v3.6ZM1168.39,142.1c2.37,1.17,3.55,2.86,3.55,5.06s-1.18,3.91-3.55,5.11c-2.37,1.2-5.73,1.8-10.08,1.8s-7.67-.6-10.06-1.8c-2.38-1.2-3.58-2.9-3.58-5.11s1.18-3.9,3.55-5.06c2.37-1.17,5.73-1.75,10.08-1.75s7.71.58,10.08,1.75ZM1171.32,172.22h-22.03v3.22h23.14v3.55h-27.22v-10.03h22.03v-2.83h-22.13v-3.41h26.21v9.5ZM1151.45,144.6c-1.6.62-2.4,1.48-2.4,2.57,0,1.15.79,2.02,2.38,2.62s3.88.89,6.89.89,5.36-.3,6.96-.89,2.4-1.46,2.4-2.62c0-1.09-.81-1.94-2.42-2.57-1.62-.62-3.93-.94-6.94-.94s-5.27.31-6.87.94Z"/>
      <path class="cls-1" d="M1198.49,156.55c.8,2.26,1.93,4.27,3.38,6.05,1.46,1.78,3.11,3.13,4.97,4.06l-2.64,3.55c-2.02-1.06-3.79-2.61-5.33-4.66-1.54-2.05-2.74-4.4-3.6-7.06-.9,2.85-2.15,5.36-3.77,7.54-1.62,2.18-3.5,3.82-5.64,4.94l-2.59-3.55c1.95-.96,3.67-2.38,5.16-4.25s2.64-3.98,3.46-6.34c.82-2.35,1.22-4.74,1.22-7.18v-6.72h4.18v6.72c0,2.34.4,4.63,1.2,6.89ZM1213.75,155.33h6v3.89h-6v20.16h-4.22v-39.74h4.22v15.7Z"/>
      <path class="cls-1" d="M1253.73,162.53h-34.75v-3.65h8.3v-5.09c-1.47-.64-2.6-1.46-3.38-2.45-.79-.99-1.18-2.14-1.18-3.46,0-2.37,1.21-4.22,3.65-5.54,2.43-1.33,5.76-1.99,9.98-1.99s7.55.67,9.98,1.99c2.43,1.33,3.65,3.18,3.65,5.54,0,1.31-.4,2.46-1.2,3.46-.8.99-1.94,1.82-3.41,2.5v5.04h8.35v3.65ZM1246.05,166.87c2.33,1.23,3.5,2.98,3.5,5.26s-1.17,4.07-3.5,5.3c-2.34,1.23-5.59,1.85-9.74,1.85s-7.4-.62-9.72-1.85-3.48-3-3.48-5.3,1.16-4.02,3.48-5.26c2.32-1.23,5.56-1.85,9.72-1.85s7.41.62,9.74,1.85ZM1229.49,144.94c-1.63.69-2.45,1.67-2.45,2.95s.82,2.22,2.47,2.9c1.65.69,3.93,1.03,6.84,1.03s5.24-.34,6.89-1.03c1.65-.69,2.47-1.66,2.47-2.9s-.82-2.26-2.47-2.95c-1.65-.69-3.95-1.03-6.89-1.03s-5.23.34-6.86,1.03ZM1229.73,169.46c-1.57.66-2.35,1.54-2.35,2.66,0,1.18.78,2.1,2.33,2.74,1.55.64,3.75.96,6.6.96s5.09-.32,6.65-.96c1.55-.64,2.33-1.55,2.33-2.74s-.78-2.05-2.35-2.69c-1.57-.64-3.78-.96-6.62-.96s-5.01.33-6.58.98ZM1241.2,158.88v-3.89c-1.66.22-3.28.34-4.85.34-1.86,0-3.46-.11-4.8-.34v3.89h9.65Z"/>
      <path class="cls-1" d="M1276.49,149.52h-22.61v-3.7h9.27v-5.62h4.22v5.62h9.12v3.7ZM1270.17,153.38c1.46.78,2.6,1.88,3.43,3.29s1.25,3.01,1.25,4.8-.42,3.4-1.25,4.82-1.98,2.53-3.43,3.31c-1.46.79-3.08,1.18-4.87,1.18s-3.46-.39-4.9-1.18c-1.44-.78-2.58-1.88-3.41-3.29-.83-1.41-1.25-3.02-1.25-4.85s.42-3.39,1.25-4.8,1.97-2.5,3.43-3.29c1.46-.78,3.08-1.18,4.87-1.18s3.41.39,4.87,1.18ZM1261.32,157.46c-1.03,1.01-1.54,2.34-1.54,4.01s.51,3.01,1.54,4.03c1.02,1.02,2.35,1.54,3.98,1.54s2.95-.51,3.96-1.54c1.01-1.02,1.51-2.37,1.51-4.03s-.5-3-1.51-4.01-2.33-1.51-3.96-1.51-2.96.5-3.98,1.51ZM1283.83,155.62h6v3.74h-6v20.02h-4.18v-39.74h4.18v15.98Z"/>
      <path class="cls-1" d="M1304.09,144.07c1.38.98,2.48,2.36,3.31,4.15h9.36v-8.59h4.13v39.79h-4.13v-15.12h-9.07c-.83,1.98-1.96,3.53-3.38,4.63-1.43,1.1-3.05,1.66-4.87,1.66s-3.56-.58-5.02-1.73c-1.46-1.15-2.59-2.78-3.41-4.9s-1.22-4.58-1.22-7.39.41-5.27,1.22-7.37,1.95-3.72,3.41-4.87c1.46-1.15,3.13-1.73,5.02-1.73,1.73,0,3.28.49,4.66,1.46ZM1295.28,149.35c-1.04,1.78-1.56,4.18-1.56,7.22s.52,5.5,1.56,7.27c1.04,1.78,2.42,2.66,4.15,2.66s3.11-.89,4.15-2.66c1.04-1.78,1.56-4.2,1.56-7.27s-.52-5.45-1.56-7.22c-1.04-1.78-2.42-2.66-4.15-2.66s-3.11.89-4.15,2.66ZM1309.03,156.58c0,1.54-.11,2.88-.34,4.03h8.06v-8.69h-8.16c.29,1.44.43,2.99.43,4.66Z"/>
      <path class="cls-1" d="M113.96,203.52c0,1.79-.05,3.54-.14,5.23-.1,1.7-.34,3.65-.72,5.86l3.07-.38.34,3.26c-2.3.45-5.04.8-8.21,1.06v15.12h-4.03v-14.88c-2.72.1-5.22.14-7.49.14l-.48-3.65c4.9,0,9.12-.11,12.67-.34.58-3.07.9-6.32.96-9.74h-11.57v-3.6h15.6v1.92ZM122.26,234.86h-3.94v-9.26h-6.67v-3.65h6.67v-23.86h3.94v36.77ZM129.7,236.98h-3.94v-39.74h3.94v39.74Z"/>
      <path class="cls-1" d="M148.09,211.32c1.63,2.19,3.84,3.8,6.62,4.82l-2.06,3.46c-2.11-.74-3.95-1.85-5.5-3.34-1.55-1.49-2.76-3.22-3.62-5.21-.83,2.21-2.06,4.14-3.7,5.78-1.63,1.65-3.57,2.86-5.81,3.62l-2.26-3.5c2.94-1.02,5.27-2.7,6.98-5.04,1.71-2.33,2.57-4.86,2.57-7.58v-.86h-8.21v-3.65h20.54v3.65h-8.02v.82c0,2.5.82,4.84,2.45,7.03ZM163.69,236.98h-4.22v-10.42h-21.6v-3.74h25.82v14.16ZM163.69,221.04h-4.22v-9.98h-6.86v-3.79h6.86v-10.03h4.22v23.81Z"/>
      <path class="cls-1" d="M183.2,201.94c1.49,1.15,2.65,2.78,3.48,4.9.83,2.11,1.25,4.56,1.25,7.34s-.42,5.24-1.25,7.37c-.83,2.13-1.99,3.77-3.48,4.92-1.49,1.15-3.18,1.73-5.06,1.73s-3.62-.58-5.11-1.73c-1.49-1.15-2.66-2.78-3.5-4.9s-1.27-4.58-1.27-7.39.42-5.23,1.27-7.34c.85-2.11,2.02-3.74,3.5-4.9s3.19-1.73,5.11-1.73,3.58.58,5.06,1.73ZM173.84,206.95c-1.07,1.78-1.61,4.18-1.61,7.22s.54,5.5,1.61,7.27c1.07,1.78,2.5,2.66,4.29,2.66s3.16-.89,4.2-2.66c1.04-1.78,1.56-4.2,1.56-7.27s-.53-5.45-1.58-7.22c-1.06-1.78-2.45-2.66-4.18-2.66s-3.22.89-4.29,2.66ZM198.53,237.02h-4.22v-39.79h4.22v39.79Z"/>
      <path class="cls-1" d="M244.8,232.08h-34.89v-3.74h15.36v-9.31h4.22v9.31h15.31v3.74ZM231.44,210.05c1.26,1.76,2.95,3.26,5.06,4.49,2.11,1.23,4.4,2.04,6.86,2.42l-1.73,3.6c-3.17-.61-6.03-1.8-8.59-3.58s-4.45-3.94-5.66-6.5c-1.22,2.56-3.09,4.75-5.62,6.58-2.53,1.82-5.36,3.06-8.5,3.7l-1.73-3.6c2.4-.42,4.64-1.26,6.72-2.52,2.08-1.26,3.74-2.79,4.99-4.58s1.87-3.65,1.87-5.57v-.1h-12.29v-3.74h28.99v3.74h-12.29v.1c0,1.95.63,3.81,1.9,5.57Z"/>
      <path class="cls-1" d="M275.48,202.37c0,2.11-.05,3.99-.17,5.64-.11,1.65-.38,3.53-.79,5.64h5.33v3.74h-34.9v-3.74h25.34c.42-1.98.69-3.79.82-5.42.13-1.63.19-3.41.19-5.33h-21.94v-3.7h26.11v3.17ZM275.53,236.45h-26.26v-14.35h26.26v14.35ZM253.35,232.75h17.95v-7.06h-17.95v7.06Z"/>
      <path class="cls-1" d="M290.14,208.92c.5,1.9,1.35,3.58,2.57,5.02,1.18-1.41,2.02-3.06,2.52-4.94.49-1.89.74-3.82.74-5.81v-3.6h3.94v3.6c0,2.56.46,4.95,1.39,7.18.93,2.22,2.43,3.94,4.51,5.16l-2.35,3.22c-2.56-1.54-4.38-4.06-5.47-7.58-1.06,3.78-2.83,6.46-5.33,8.06-2.53-1.66-4.29-4.42-5.28-8.26-1.15,3.65-2.99,6.24-5.52,7.78l-2.35-3.22c2.08-1.25,3.58-3.01,4.49-5.28.91-2.27,1.37-4.62,1.37-7.06v-3.6h4.03v3.6c0,1.92.25,3.83.74,5.74ZM312.2,236.98h-4.18v-10.94h-22.42v-3.65h26.59v14.59ZM312.2,220.56h-4.18v-23.33h4.18v23.33Z"/>
      <path class="cls-1" d="M354.87,226.66h-4.22v-10.13h-8.16v3.6h-17.71v-20.21h4.27v6.58h9.31v-6.58h4.13v4.37h8.16v-7.06h4.22v29.42ZM338.36,216.48v-6.43h-9.31v6.43h9.31ZM355.69,236.16h-25.78v-12.53h4.22v8.83h21.55v3.7ZM350.64,212.78v-4.85h-8.16v4.85h8.16Z"/>
      <path class="cls-1" d="M379.54,205.01h-21.46v-3.65h8.83v-4.46h4.13v4.46h8.5v3.65ZM375.34,208.63c1.65,1.36,2.47,3.16,2.47,5.4s-.82,3.99-2.47,5.35c-1.65,1.36-3.77,2.04-6.36,2.04s-4.7-.68-6.34-2.04c-1.63-1.36-2.45-3.14-2.45-5.35s.81-4.04,2.42-5.4,3.74-2.04,6.36-2.04,4.71.68,6.36,2.04ZM365.43,211.13c-.87.72-1.3,1.69-1.3,2.9s.44,2.19,1.32,2.93c.88.74,2.06,1.1,3.53,1.1s2.66-.37,3.55-1.1c.9-.74,1.34-1.71,1.34-2.93s-.45-2.18-1.34-2.9c-.9-.72-2.08-1.08-3.55-1.08s-2.69.36-3.55,1.08ZM386.62,224.93c2.29,1.22,3.43,2.93,3.43,5.14s-1.14,3.82-3.43,5.02c-2.29,1.2-5.46,1.8-9.53,1.8s-7.19-.6-9.48-1.8c-2.29-1.2-3.43-2.87-3.43-5.02s1.14-3.92,3.43-5.14c2.29-1.22,5.45-1.82,9.48-1.82s7.24.61,9.53,1.82ZM370.8,227.5c-1.5.59-2.26,1.45-2.26,2.57,0,1.06.76,1.88,2.28,2.47,1.52.59,3.61.89,6.26.89s4.78-.3,6.26-.89c1.49-.59,2.23-1.42,2.23-2.47,0-1.12-.74-1.98-2.21-2.57-1.47-.59-3.57-.89-6.29-.89s-4.79.3-6.29.89ZM389.86,222.82h-4.22v-4.94h-6v-3.65h6v-4.08h-5.95v-3.7h5.95v-9.22h4.22v25.58Z"/>
      <path class="cls-1" d="M415.73,217.58h-7.92v7.1c3.78-.16,7.2-.42,10.27-.77l.34,3.36c-3.71.58-7.55.95-11.52,1.13-3.97.18-8.32.26-13.06.26l-.58-3.7c3.26,0,6.72-.05,10.37-.14v-7.25h-7.63v-16.7h19.63v3.7h-15.46v9.36h15.55v3.65ZM424.66,237.02h-4.18v-39.79h4.18v39.79Z"/>
      <path class="cls-1" d="M443.43,217.85c-2.66,4.72-7.07,8.65-13.25,11.78l-2.26-3.46c4.9-2.5,8.58-5.48,11.04-8.95,2.46-3.47,3.89-7.51,4.27-12.12h-13.54v-3.6h17.71c0,6.18-1.33,11.62-3.98,16.34ZM459.89,236.98h-4.18v-20.4h-8.45v-3.74h8.45v-15.6h4.18v39.74Z"/>
      <path class="cls-1" d="M468.82,223.25c5.7-.06,11.28-.64,16.75-1.73l.43,3.79c-5.35,1.12-11.42,1.68-18.24,1.68h-3.12v-25.92h4.18v22.18ZM498.77,216.53h-5.81v20.35h-4.22v-39.65h4.22v15.5h5.81v3.79Z"/>
      <path class="cls-1" d="M541.01,220.56h-34.85v-3.7h15.31v-5.76h4.18v5.76h15.36v3.7ZM527.43,204.22c1.15,1.46,2.74,2.69,4.75,3.7,2.02,1.01,4.27,1.67,6.77,1.99l-1.63,3.6c-3.1-.51-5.87-1.5-8.3-2.95s-4.26-3.26-5.47-5.4c-1.22,2.14-3.05,3.94-5.5,5.4-2.45,1.46-5.22,2.44-8.33,2.95l-1.58-3.6c2.46-.32,4.71-.99,6.74-2.02,2.03-1.02,3.63-2.26,4.8-3.72,1.17-1.46,1.75-2.98,1.75-4.58v-1.68h4.27v1.68c0,1.63.58,3.18,1.73,4.63ZM536.69,236.98h-4.22v-9.55h-22.37v-3.6h26.59v13.15Z"/>
      <path class="cls-1" d="M572.16,219.12h-11.47v9.31h15.41v3.7h-34.89v-3.7h15.31v-9.31h-10.94v-18.82h26.26v3.65h-22.03v11.47h22.37v3.7Z"/>
      <path class="cls-1" d="M591.89,217.78c-2.82,4.83-7.23,8.77-13.25,11.81l-2.45-3.36c9.44-4.9,14.62-11.9,15.55-21.02h-13.58v-3.74h17.9c.03,6.05-1.36,11.49-4.18,16.32ZM606.05,212.93h5.76v3.74h-5.76v20.21h-4.22v-39.65h4.22v15.7Z"/>
      <path class="cls-1" d="M637.92,203.04h-12.86v9.31c3.68-.03,6.73-.14,9.14-.31,2.41-.17,4.81-.5,7.18-.98l.48,3.6c-2.49.51-5.03.86-7.61,1.03s-6.01.26-10.29.26h-3.03v-16.51h16.99v3.6ZM649.3,229.3h-20.5v3.46h21.74v3.7h-25.92v-10.61h20.54v-3.26h-20.59v-3.65h24.72v10.37ZM649.3,205.25h5.47v3.74h-5.47v8.26h-4.18v-20.02h4.18v8.02Z"/>
      <path class="cls-1" d="M673.35,215.62h-13.2v8.21c3.42,0,6.41-.09,8.95-.26,2.54-.18,5.13-.52,7.75-1.03l.38,3.65c-2.82.54-5.61.92-8.38,1.13s-6.02.31-9.77.31h-3.12v-15.7h13.15v-7.44h-13.2v-3.7h17.42v14.83ZM684.1,212.69h6.05v3.79h-6.05v20.54h-4.13v-39.79h4.13v15.46Z"/>
      <path class="cls-1" d="M720.29,219.12h-11.47v9.31h15.41v3.7h-34.9v-3.7h15.31v-9.31h-10.94v-18.82h26.26v3.65h-22.03v11.47h22.37v3.7Z"/>
      <path class="cls-1" d="M738.63,210.67h10.03v-10.13h4.18v27.07h-18.43v-27.07h4.22v10.13ZM748.66,223.87v-9.65h-10.03v9.65h10.03ZM764.02,237.02h-4.27v-39.79h4.27v39.79Z"/>
      <path class="cls-1" d="M802.13,219.89h-34.75v-3.7h34.75v3.7ZM788.72,204.12c1.17,1.46,2.77,2.71,4.8,3.74,2.03,1.04,4.28,1.72,6.74,2.04l-1.68,3.65c-3.07-.51-5.82-1.52-8.26-3.02-2.43-1.5-4.26-3.33-5.47-5.47-1.22,2.14-3.06,3.97-5.54,5.47-2.48,1.5-5.27,2.51-8.38,3.02l-1.63-3.65c2.46-.32,4.71-.99,6.74-2.02,2.03-1.02,3.64-2.26,4.82-3.72,1.18-1.46,1.78-2.97,1.78-4.54v-1.68h4.32v1.68c0,1.54.58,3.03,1.75,4.49ZM788.52,227.88c1.07,1.36,2.57,2.5,4.49,3.43,1.92.93,4.13,1.57,6.62,1.92l-1.58,3.55c-3.07-.48-5.76-1.38-8.06-2.71s-4.03-2.98-5.18-4.97c-1.15,1.98-2.9,3.64-5.23,4.97s-5.02,2.23-8.06,2.71l-1.58-3.55c2.46-.35,4.66-.99,6.6-1.92,1.94-.93,3.44-2.07,4.51-3.43,1.07-1.36,1.61-2.82,1.61-4.39v-1.15h4.27v1.15c0,1.57.54,3.03,1.61,4.39Z"/>
      <path class="cls-1" d="M825.17,205.49h-22.7v-3.65h9.31v-4.61h4.18v4.61h9.21v3.65ZM820.56,209.28c1.73,1.38,2.59,3.18,2.59,5.42s-.86,4.1-2.59,5.47-3.97,2.06-6.72,2.06-4.98-.69-6.7-2.06c-1.71-1.38-2.57-3.2-2.57-5.47s.86-4.05,2.59-5.42c1.73-1.38,3.95-2.06,6.67-2.06s4.99.69,6.72,2.06ZM834.05,236.16h-25.82v-11.62h4.18v7.92h21.65v3.7ZM810.05,211.8c-.93.72-1.39,1.69-1.39,2.9s.46,2.23,1.39,2.95c.93.72,2.19,1.08,3.79,1.08s2.87-.36,3.82-1.08,1.42-1.7,1.42-2.95-.47-2.18-1.42-2.9c-.94-.72-2.22-1.08-3.82-1.08s-2.86.36-3.79,1.08ZM832.42,209.95h5.52v3.79h-5.52v13.3h-4.13v-29.81h4.13v12.72Z"/>
      <path class="cls-1" d="M880.32,232.37h-34.9v-3.7h34.9v3.7ZM878.5,206.69h-31.39v-3.65h13.63v-5.09h4.18v5.09h13.58v3.65ZM872.09,210.91c2.29,1.41,3.43,3.34,3.43,5.81s-1.14,4.46-3.43,5.88-5.4,2.14-9.34,2.14-7-.71-9.29-2.14c-2.29-1.42-3.43-3.38-3.43-5.88s1.14-4.4,3.43-5.81c2.29-1.41,5.38-2.11,9.29-2.11s7.05.7,9.34,2.11ZM856.56,213.58c-1.51.75-2.26,1.8-2.26,3.14s.75,2.45,2.26,3.22c1.5.77,3.57,1.15,6.19,1.15s4.74-.38,6.26-1.15c1.52-.77,2.28-1.84,2.28-3.22s-.76-2.39-2.28-3.14c-1.52-.75-3.61-1.13-6.26-1.13s-4.69.38-6.19,1.13Z"/>
      <path class="cls-1" d="M915.32,221.09h-34.85v-3.6h34.85v3.6ZM910.95,208.13h-21.84v3.07h22.56v3.55h-26.78v-9.98h21.89v-3.02h-21.94v-3.65h26.11v10.03ZM911.04,236.45h-25.97v-12.34h25.97v12.34ZM889.2,232.75h17.66v-4.99h-17.66v4.99Z"/>
      <path class="cls-1" d="M950.26,217.49h-34.75v-3.6h34.75v3.6ZM942.96,199.7c2.37,1.17,3.55,2.86,3.55,5.06s-1.18,3.91-3.55,5.11c-2.37,1.2-5.73,1.8-10.08,1.8s-7.67-.6-10.06-1.8c-2.38-1.2-3.58-2.9-3.58-5.11s1.18-3.9,3.55-5.06c2.37-1.17,5.73-1.75,10.08-1.75s7.71.58,10.08,1.75ZM945.89,229.82h-22.03v3.22h23.14v3.55h-27.22v-10.03h22.03v-2.83h-22.13v-3.41h26.21v9.5ZM926.02,202.2c-1.6.62-2.4,1.48-2.4,2.57,0,1.15.79,2.02,2.38,2.62s3.88.89,6.89.89,5.36-.3,6.96-.89,2.4-1.46,2.4-2.62c0-1.09-.81-1.94-2.42-2.57-1.62-.62-3.93-.94-6.94-.94s-5.27.31-6.87.94Z"/>
      <path class="cls-1" d="M974.62,201.19c1.55.85,2.78,2.03,3.67,3.55.9,1.52,1.35,3.22,1.35,5.11s-.45,3.59-1.35,5.11c-.89,1.52-2.12,2.7-3.67,3.55-1.55.85-3.27,1.27-5.16,1.27s-3.57-.43-5.13-1.3c-1.57-.86-2.8-2.05-3.7-3.55-.9-1.5-1.35-3.2-1.35-5.09s.45-3.58,1.35-5.09c.89-1.5,2.13-2.69,3.7-3.55,1.57-.86,3.28-1.3,5.13-1.3s3.61.42,5.16,1.27ZM965.11,205.51c-1.13,1.1-1.7,2.55-1.7,4.34s.57,3.23,1.7,4.32c1.14,1.09,2.58,1.63,4.34,1.63s3.26-.54,4.39-1.63,1.71-2.53,1.71-4.32-.58-3.24-1.73-4.34c-1.15-1.1-2.61-1.66-4.37-1.66s-3.21.55-4.34,1.66ZM991.3,236.16h-26.11v-13.1h4.22v9.41h21.89v3.7ZM990.24,226.13h-4.27v-28.9h4.27v28.9Z"/>
      <path class="cls-1" d="M1010,210.5c1.68,2.26,3.99,3.9,6.94,4.92l-2.11,3.5c-2.18-.8-4.08-1.97-5.71-3.5-1.63-1.54-2.86-3.33-3.7-5.38-.86,2.24-2.12,4.19-3.77,5.86-1.65,1.66-3.58,2.9-5.79,3.7l-2.26-3.5c3.01-1.09,5.36-2.83,7.06-5.23,1.7-2.4,2.54-5.02,2.54-7.87v-3.94h4.27v3.94c0,2.75.84,5.26,2.52,7.51ZM1025.24,236.98h-4.27v-10.42h-21.6v-3.74h25.87v14.16ZM1025.24,221.09h-4.27v-23.86h4.27v23.86Z"/>
      <path class="cls-1" d="M1051.35,204.14h-22.66v-3.5h9.26v-3.74h4.18v3.74h9.21v3.5ZM1046.81,207.17c1.68,1.18,2.52,2.78,2.52,4.8s-.84,3.61-2.52,4.78c-1.68,1.17-3.93,1.75-6.74,1.75s-5.07-.58-6.77-1.75c-1.7-1.17-2.54-2.76-2.54-4.78s.85-3.62,2.54-4.8c1.7-1.18,3.95-1.78,6.77-1.78s5.06.59,6.74,1.78ZM1058.64,230.11h-20.5v3.02h21.74v3.46h-25.92v-9.74h20.54v-2.83h-20.59v-3.36h24.72v9.46ZM1036.25,209.59c-.94.59-1.42,1.38-1.42,2.38s.47,1.78,1.42,2.38,2.21.89,3.82.89,2.86-.3,3.79-.89,1.39-1.38,1.39-2.38-.47-1.78-1.42-2.38-2.2-.89-3.77-.89-2.87.3-3.82.89ZM1058.64,206.3h5.47v3.74h-5.47v8.98h-4.18v-21.84h4.18v9.12Z"/>
      <path class="cls-1" d="M1106.36,222.91h-15.31v14.06h-4.18v-14.06h-15.26v-3.74h34.75v3.74ZM1093.08,205.7c1.2,1.58,2.84,2.93,4.92,4.03,2.08,1.1,4.38,1.83,6.91,2.18l-1.68,3.7c-3.17-.54-6.01-1.61-8.52-3.19-2.51-1.58-4.39-3.53-5.64-5.83-1.25,2.3-3.13,4.25-5.64,5.83s-5.34,2.65-8.47,3.19l-1.73-3.7c2.53-.35,4.83-1.08,6.91-2.18,2.08-1.1,3.72-2.45,4.92-4.03,1.2-1.58,1.8-3.22,1.8-4.92v-2.21h4.42v2.21c0,1.7.6,3.34,1.8,4.92Z"/>
      <path class="cls-1" d="M1130.81,200.69c1.55.8,2.77,1.91,3.65,3.34.88,1.42,1.32,3.05,1.32,4.87s-.44,3.45-1.32,4.87c-.88,1.42-2.1,2.53-3.65,3.31-1.55.79-3.29,1.18-5.21,1.18s-3.65-.39-5.18-1.18c-1.54-.78-2.75-1.89-3.65-3.31s-1.34-3.05-1.34-4.87.45-3.45,1.34-4.87,2.11-2.54,3.65-3.34c1.54-.8,3.26-1.2,5.18-1.2s3.66.4,5.21,1.2ZM1129.23,228.43c.85,1.63,2.09,2.96,3.72,3.98,1.66-1.12,2.94-2.51,3.82-4.18.88-1.66,1.32-3.29,1.32-4.9v-1.87h4.13v1.87c0,2.14.66,4.1,1.97,5.88,1.31,1.78,3.18,3.06,5.62,3.86l-2.16,3.26c-1.82-.64-3.37-1.58-4.63-2.81-1.27-1.23-2.25-2.7-2.95-4.39-.64,1.7-1.54,3.2-2.71,4.51-1.17,1.31-2.6,2.32-4.3,3.02-1.73-.67-3.18-1.65-4.37-2.93-1.18-1.28-2.1-2.77-2.74-4.46-.7,1.6-1.69,3.02-2.95,4.25-1.27,1.23-2.78,2.17-4.54,2.81l-2.16-3.26c2.43-.86,4.31-2.21,5.64-4.03s1.99-3.73,1.99-5.71v-1.87h4.03v1.87c0,1.76.42,3.46,1.27,5.09ZM1121.24,204.84c-1.12,1.04-1.68,2.39-1.68,4.06s.56,3.02,1.68,4.06c1.12,1.04,2.57,1.56,4.37,1.56s3.25-.52,4.37-1.56c1.12-1.04,1.68-2.39,1.68-4.06s-.56-3.02-1.68-4.06c-1.12-1.04-2.58-1.56-4.37-1.56s-3.25.52-4.37,1.56ZM1146.34,219.98h-4.22v-22.75h4.22v22.75Z"/>
      <path class="cls-1" d="M1180.61,219.12h-11.47v9.31h15.41v3.7h-34.89v-3.7h15.31v-9.31h-10.94v-18.82h26.26v3.65h-22.03v11.47h22.37v3.7Z"/>
      <path class="cls-1" d="M1219.54,222.53h-34.85v-3.7h15.36v-3.5h-10.94v-10.32h21.89v-3.22h-21.94v-3.65h26.11v10.18h-21.84v3.46h22.56v3.55h-11.66v3.5h15.31v3.7ZM1215.41,236.59h-4.27v-7.97h-22.51v-3.6h26.79v11.57Z"/>
      <path class="cls-1" d="M1250.45,204.72h-22.71v-3.65h9.31v-4.13h4.18v4.13h9.22v3.65ZM1245.87,208.03c1.71,1.28,2.57,2.98,2.57,5.09s-.86,3.86-2.57,5.14c-1.71,1.28-3.96,1.92-6.74,1.92s-4.98-.64-6.7-1.92c-1.71-1.28-2.57-2.99-2.57-5.14s.86-3.81,2.57-5.09c1.71-1.28,3.94-1.92,6.7-1.92s5.03.64,6.74,1.92ZM1237.44,225.7h16.13v-3.74h4.13v14.5h-24.43v-14.5h4.18v3.74ZM1235.36,210.55c-.95.66-1.42,1.51-1.42,2.57,0,1.15.47,2.05,1.42,2.69.94.64,2.2.96,3.77.96s2.87-.32,3.82-.96c.94-.64,1.42-1.54,1.42-2.69,0-1.06-.47-1.91-1.42-2.57-.95-.66-2.22-.98-3.82-.98s-2.82.33-3.77.98ZM1253.57,232.8v-3.55h-16.13v3.55h16.13ZM1257.7,207.17h5.52v3.79h-5.52v9.5h-4.13v-23.23h4.13v9.94Z"/>
      <path class="cls-1" d="M1269.22,223.06c5.95-.06,11.74-.67,17.38-1.82l.58,3.79c-3.14.7-6.24,1.19-9.31,1.46-3.07.27-6.27.41-9.6.41h-3.21v-25.82h4.18v21.98ZM1294.47,236.98h-4.18v-39.74h4.18v39.74Z"/>
      <path class="cls-1" d="M1317.31,204.72h-13.63v18.72c3.39,0,6.34-.09,8.86-.26,2.51-.18,5.05-.52,7.61-1.03l.43,3.84c-2.82.51-5.58.86-8.3,1.03-2.72.18-5.95.26-9.7.26h-3.12v-26.26h17.86v3.7ZM1327.59,212.54h6.05v3.74h-6.05v20.74h-4.22v-39.79h4.22v15.31Z"/>
      <path class="cls-1" d="M1336.28,230.04c.48-.5,1.13-.74,1.97-.74s1.54.25,2.02.74c.48.5.72,1.13.72,1.9s-.24,1.34-.72,1.8c-.48.46-1.15.7-2.02.7s-1.49-.23-1.97-.7c-.48-.46-.72-1.06-.72-1.8s.24-1.4.72-1.9Z"/>
      <path class="cls-1" d="M257.41,335.42h-35.57v-4.61h35.57v4.61ZM254.19,318.24h-10.51c.48,1.57,1.75,2.95,3.82,4.15s4.87,1.98,8.42,2.33l-2.02,4.46c-3.62-.32-6.64-1.14-9.07-2.47s-4.18-3.02-5.23-5.06c-1.05,2.05-2.78,3.74-5.18,5.06s-5.41,2.15-9.02,2.47l-1.97-4.46c3.52-.38,6.3-1.18,8.35-2.38,2.05-1.2,3.31-2.57,3.79-4.1h-10.42v-4.61h29.04v4.61ZM253.19,352.22h-5.66v-9.36h-21.65v-4.66h27.31v14.02Z"/>
      <path class="cls-1" d="M260.62,343.94c.64-.62,1.49-.94,2.54-.94s1.86.28,2.5.84c.64.56.99,1.29,1.06,2.18.1.42.14.86.14,1.34,0,1.22-.35,2.48-1.05,3.79-.58.96-1.27,1.83-2.09,2.62-.82.78-1.61,1.35-2.38,1.7l-1.39-1.73c1.41-1.09,2.32-2.42,2.74-3.98l.05-.14c-.93-.1-1.67-.45-2.23-1.06-.56-.61-.84-1.34-.84-2.21,0-.99.32-1.8.96-2.42Z"/>
      <path class="cls-1" d="M293.82,314.64c1.49.7,2.65,1.68,3.48,2.93.83,1.25,1.25,2.67,1.25,4.27,0,1.92-.62,3.58-1.87,4.99s-2.91,2.35-4.99,2.83v2.88c3.17-.19,6.1-.48,8.79-.86l.38,4.18c-3.52.67-7.18,1.11-10.97,1.32-3.79.21-7.91.31-12.36.31l-.57-4.56c3.84,0,6.85-.05,9.02-.14v-3.07c-2.11-.48-3.81-1.42-5.09-2.83-1.28-1.41-1.92-3.09-1.92-5.04,0-1.6.42-3.03,1.27-4.3s2.02-2.24,3.5-2.93c1.49-.69,3.18-1.03,5.06-1.03s3.53.35,5.02,1.06ZM309.54,351.51h-27.55v-11.47h5.66v6.77h21.89v4.7ZM285.44,319.03c-.83.66-1.25,1.59-1.25,2.81,0,1.15.42,2.06,1.27,2.74.85.67,1.96,1.01,3.34,1.01s2.47-.34,3.29-1.01c.82-.67,1.22-1.58,1.22-2.74,0-1.22-.41-2.15-1.22-2.81-.82-.66-1.91-.98-3.29-.98s-2.53.33-3.36.98ZM308.24,324.58h4.9v4.85h-4.9v13.3h-5.66v-30.72h5.66v12.58Z"/>
      <path class="cls-1" d="M329.82,326.83c1.49,2.14,3.7,3.73,6.65,4.75l-2.79,4.61c-2.11-.74-3.91-1.78-5.4-3.14-1.49-1.36-2.66-2.97-3.53-4.82-.9,2.08-2.13,3.87-3.7,5.38-1.57,1.5-3.47,2.62-5.71,3.36l-2.88-4.66c3.07-1.02,5.39-2.68,6.96-4.97s2.35-4.79,2.35-7.51v-.43h-7.73v-4.7h21.12v4.7h-7.58v.48c0,2.5.74,4.82,2.23,6.96ZM346.54,351.55h-26.83v-12.77h5.62v8.06h21.22v4.7ZM345.63,341.38h-5.66v-14.3h-6.24v-4.7h6.24v-10.37h5.66v29.38Z"/>
      <path class="cls-1" d="M372.51,322.7h-23.23v-4.7h8.74v-5.47h5.76v5.47h8.74v4.7ZM366.1,325.99c1.52.82,2.71,1.95,3.58,3.41.87,1.46,1.3,3.11,1.3,4.97s-.43,3.51-1.3,4.97c-.86,1.46-2.06,2.59-3.58,3.41-1.52.82-3.22,1.22-5.11,1.22s-3.65-.41-5.18-1.22c-1.54-.82-2.74-1.95-3.62-3.41s-1.32-3.11-1.32-4.97.44-3.51,1.32-4.97c.88-1.46,2.09-2.59,3.62-3.41,1.54-.82,3.26-1.22,5.18-1.22s3.59.41,5.11,1.22ZM357.58,330.82c-.86.86-1.29,2.05-1.29,3.55s.43,2.69,1.29,3.55c.86.86,2,1.3,3.41,1.3s2.5-.43,3.36-1.3c.87-.86,1.3-2.05,1.3-3.55s-.43-2.65-1.3-3.53c-.86-.88-1.98-1.32-3.36-1.32s-2.54.43-3.41,1.3ZM381.15,352.22h-5.76v-40.27h5.76v40.27Z"/>
      <path class="cls-1" d="M408.73,314.33c1.58.79,2.83,1.88,3.74,3.29.91,1.41,1.37,2.99,1.37,4.75s-.46,3.38-1.37,4.78-2.16,2.47-3.74,3.24c-1.58.77-3.37,1.15-5.35,1.15s-3.77-.38-5.35-1.15c-1.58-.77-2.83-1.86-3.74-3.26-.91-1.41-1.37-2.99-1.37-4.75s.46-3.34,1.37-4.75c.91-1.41,2.17-2.5,3.77-3.29,1.6-.78,3.38-1.18,5.33-1.18s3.77.39,5.35,1.18ZM399.75,319.13c-.91.78-1.37,1.86-1.37,3.24s.46,2.46,1.37,3.26,2.12,1.2,3.62,1.2,2.71-.4,3.62-1.2,1.37-1.89,1.37-3.26-.46-2.46-1.37-3.24-2.12-1.18-3.62-1.18-2.71.39-3.62,1.18ZM425.02,344.78h-20.69v2.4h21.65v4.61h-27.12v-11.28h20.5v-2.3h-20.64v-4.51h26.3v11.09ZM425.02,332.11h-5.71v-20.16h5.71v20.16Z"/>
      <path class="cls-1" d="M444.42,330.48c.7,1.98,1.78,3.79,3.21,5.42s3.2,2.9,5.28,3.79l-3.03,4.42c-2.14-.9-4-2.23-5.57-4.01s-2.81-3.85-3.74-6.22c-.89,2.53-2.13,4.74-3.72,6.62-1.58,1.89-3.5,3.31-5.74,4.27l-2.93-4.51c3.07-1.38,5.42-3.54,7.06-6.48,1.63-2.94,2.45-6.03,2.45-9.26v-1.34h-8.21v-4.66h8.16v-5.57h5.66v5.57h8.02v4.66h-7.97v1.34c0,1.98.35,3.97,1.06,5.95ZM460.64,352.22h-5.66v-40.27h5.66v40.27Z"/>
      <path class="cls-1" d="M486.46,322.66h-22.9v-4.7h8.69v-5.33h5.66v5.33h8.54v4.7ZM480.22,325.99c1.54.82,2.74,1.95,3.6,3.41.87,1.46,1.3,3.11,1.3,4.97s-.43,3.51-1.3,4.97c-.86,1.46-2.06,2.59-3.6,3.41-1.54.82-3.25,1.22-5.13,1.22s-3.6-.41-5.14-1.22c-1.54-.82-2.74-1.95-3.62-3.41-.88-1.46-1.32-3.11-1.32-4.97s.44-3.47,1.32-4.94c.88-1.47,2.09-2.62,3.62-3.43,1.54-.82,3.25-1.22,5.14-1.22s3.6.41,5.13,1.22ZM471.75,330.82c-.85.86-1.27,2.05-1.27,3.55s.42,2.69,1.27,3.55c.85.86,1.96,1.3,3.34,1.3s2.49-.43,3.34-1.3c.85-.86,1.27-2.05,1.27-3.55s-.42-2.69-1.27-3.55c-.85-.86-1.96-1.3-3.34-1.3s-2.49.43-3.34,1.3ZM494.53,327.65h5.71v4.8h-5.71v19.78h-5.52v-40.27h5.52v15.7Z"/>
      <path class="cls-1" d="M517.13,332.59c1.66,3.01,4.06,5.17,7.2,6.48l-3.03,4.61c-2.21-.99-4.1-2.42-5.69-4.27-1.58-1.86-2.84-4.03-3.77-6.53-.9,2.72-2.14,5.1-3.74,7.15-1.6,2.05-3.52,3.6-5.76,4.66l-3.22-4.61c2.11-.96,3.9-2.35,5.35-4.18,1.46-1.82,2.54-3.87,3.27-6.14.72-2.27,1.08-4.56,1.08-6.86v-2.26h-8.16v-4.75h22.03v4.75h-8.06v2.26c0,3.46.83,6.69,2.5,9.7ZM532.06,352.22h-5.71v-40.27h5.71v40.27Z"/>
      <path class="cls-1" d="M559.49,315.1c1.58.82,2.82,1.94,3.72,3.36.89,1.42,1.34,3.03,1.34,4.82s-.45,3.45-1.34,4.87c-.9,1.42-2.14,2.54-3.72,3.34-1.58.8-3.37,1.2-5.35,1.2s-3.82-.4-5.42-1.2c-1.6-.8-2.86-1.91-3.77-3.34-.91-1.42-1.37-3.05-1.37-4.87s.46-3.4,1.37-4.82c.91-1.42,2.18-2.54,3.79-3.36,1.62-.82,3.42-1.22,5.4-1.22s3.77.41,5.35,1.22ZM552.27,346.42c2.05-.13,4.06-.51,6.05-1.15l.82,4.51c-1.47.58-2.98.95-4.51,1.13-1.54.18-3.41.26-5.62.26h-2.21v-15.55h5.47v10.8ZM550.49,319.92c-.96.83-1.44,1.95-1.44,3.36s.47,2.58,1.42,3.41c.94.83,2.17,1.25,3.67,1.25s2.62-.42,3.55-1.25c.93-.83,1.39-1.97,1.39-3.41s-.47-2.49-1.42-3.34c-.94-.85-2.12-1.27-3.53-1.27s-2.69.42-3.65,1.25ZM577.47,339.98h-19.63v-4.27h7.06v-2.78h5.52v2.78h7.06v4.27ZM573.08,342.38c1.39,1.06,2.09,2.46,2.09,4.22s-.7,3.05-2.09,4.06c-1.39,1.01-3.21,1.51-5.45,1.51s-4.12-.5-5.54-1.51c-1.42-1.01-2.14-2.36-2.14-4.06s.71-3.17,2.14-4.22c1.42-1.06,3.27-1.58,5.54-1.58s4.05.53,5.45,1.58ZM565.71,345.36c-.48.29-.72.7-.72,1.25,0,.51.24.9.72,1.18.48.27,1.12.41,1.92.41.73,0,1.34-.14,1.8-.41.46-.27.7-.66.7-1.18,0-.54-.23-.96-.7-1.25-.46-.29-1.06-.43-1.8-.43-.8,0-1.44.14-1.92.43ZM574.3,320.3h5.18v4.75h-5.18v6.82h-5.62v-19.92h5.62v8.35Z"/>
      <path class="cls-1" d="M598.64,320.26h-12.05v17.57c2.85-.03,5.36-.14,7.54-.31s4.35-.46,6.53-.84l.62,4.7c-2.53.51-5.06.85-7.58,1.01-2.53.16-5.73.24-9.6.24h-3.22v-27.12h17.76v4.75ZM612.08,352.27h-5.71v-21.65h-9.6v-4.75h9.6v-13.92h5.71v40.32Z"/>
      <path class="cls-1" d="M634.45,331.06h-12.38v7.1c5.76-.06,10.86-.46,15.31-1.2l.48,4.66c-2.79.54-5.58.91-8.38,1.1-2.8.19-6.04.29-9.72.29h-3.31v-16.56h12.34v-6.38h-12.38v-4.75h18.05v15.74ZM645.53,327.12h5.76v4.85h-5.76v20.3h-5.52v-40.32h5.52v15.17Z"/>
      <path class="cls-1" d="M682.25,334.56h-11.23v8.4h15.12v4.7h-35.71v-4.7h14.97v-8.4h-10.75v-19.73h27.36v4.61h-21.7v10.46h21.94v4.66Z"/>
      <path class="cls-1" d="M711.41,326.83c1.49,2.14,3.7,3.73,6.65,4.75l-2.79,4.61c-2.11-.74-3.91-1.78-5.4-3.14-1.49-1.36-2.66-2.97-3.53-4.82-.9,2.08-2.13,3.87-3.7,5.38-1.57,1.5-3.47,2.62-5.71,3.36l-2.88-4.66c3.07-1.02,5.39-2.68,6.96-4.97s2.35-4.79,2.35-7.51v-.43h-7.73v-4.7h21.12v4.7h-7.58v.48c0,2.5.74,4.82,2.23,6.96ZM728.14,351.55h-26.83v-12.77h5.62v8.06h21.22v4.7ZM727.23,341.38h-5.66v-14.3h-6.24v-4.7h6.24v-10.37h5.66v29.38Z"/>
      <path class="cls-1" d="M744.1,333.19c1.2,2.67,3.11,4.75,5.74,6.22l-3.07,4.37c-3.26-1.73-5.63-4.7-7.1-8.93-1.47,4.64-3.87,7.92-7.2,9.84l-3.21-4.42c2.66-1.57,4.6-3.78,5.83-6.65,1.23-2.86,1.85-5.98,1.85-9.34v-.86h-6.14v-4.66h6.14v-5.38h5.28v5.38h6.1v4.66h-6v.86c0,3.26.6,6.23,1.8,8.9ZM755.79,350.35h-5.33v-18.38h-4.42v-4.8h4.42v-14.54h5.33v37.73ZM763.76,352.22h-5.33v-40.27h5.33v40.27Z"/>
      <path class="cls-1" d="M788.19,318.91h-7.58c.06,2.5.84,4.77,2.33,6.82s3.67,3.57,6.55,4.56l-2.79,4.51c-2.11-.67-3.92-1.69-5.42-3.05s-2.69-2.97-3.55-4.82c-.87,2.05-2.09,3.82-3.67,5.33s-3.5,2.62-5.74,3.36l-2.83-4.56c3.01-1.02,5.29-2.65,6.84-4.87,1.55-2.22,2.36-4.65,2.42-7.27h-7.68v-4.7h21.12v4.7ZM798.65,352.22h-5.66v-9.89h-21.12v-4.66h26.79v14.54ZM798.65,335.95h-5.66v-9.6h-5.81v-4.75h5.81v-9.65h5.66v24Z"/>
      <path class="cls-1" d="M818.11,315.86c1.65.88,2.95,2.1,3.91,3.65.96,1.55,1.44,3.29,1.44,5.21s-.48,3.7-1.44,5.26c-.96,1.55-2.26,2.77-3.89,3.65-1.63.88-3.46,1.32-5.47,1.32s-3.74-.44-5.35-1.32c-1.62-.88-2.9-2.1-3.84-3.65-.95-1.55-1.42-3.3-1.42-5.26s.47-3.66,1.42-5.21c.94-1.55,2.22-2.77,3.84-3.65,1.62-.88,3.4-1.32,5.35-1.32s3.8.44,5.45,1.32ZM809.02,321.02c-.96.93-1.44,2.16-1.44,3.7s.47,2.86,1.42,3.77c.94.91,2.17,1.37,3.67,1.37s2.74-.46,3.72-1.37c.97-.91,1.46-2.17,1.46-3.77s-.49-2.77-1.46-3.7c-.98-.93-2.22-1.39-3.72-1.39s-2.69.46-3.65,1.39ZM835.13,351.55h-27.17v-13.58h5.66v8.88h21.5v4.7ZM834.17,340.9h-5.71v-28.9h5.71v28.9Z"/>
      <path class="cls-1" d="M881.02,347.52h-35.71v-4.8h14.98v-8.02h-11.18v-19.78h27.98v19.78h-11.18v8.02h15.12v4.8ZM854.62,330.1h16.9v-10.46h-16.9v10.46Z"/>
      <path class="cls-1" d="M897.44,315.46c1.63.83,2.9,1.98,3.81,3.46.91,1.47,1.37,3.14,1.37,4.99s-.46,3.58-1.37,5.06-2.18,2.65-3.81,3.48c-1.63.83-3.46,1.25-5.47,1.25s-3.79-.42-5.42-1.25c-1.63-.83-2.91-1.99-3.84-3.48-.93-1.49-1.39-3.18-1.39-5.06s.46-3.52,1.39-4.99c.93-1.47,2.21-2.62,3.84-3.46,1.63-.83,3.44-1.25,5.42-1.25s3.84.42,5.47,1.25ZM908.83,338.38c2.38,1.42,3.58,3.38,3.58,5.88s-1.19,4.4-3.58,5.81c-2.38,1.41-5.61,2.11-9.67,2.11s-7.35-.7-9.77-2.11c-2.42-1.41-3.62-3.34-3.62-5.81s1.21-4.46,3.62-5.88,5.67-2.14,9.77-2.14,7.29.71,9.67,2.14ZM888.27,320.4c-.96.86-1.44,2.03-1.44,3.5s.48,2.69,1.44,3.55c.96.86,2.19,1.3,3.7,1.3s2.83-.42,3.79-1.27c.96-.85,1.44-2.04,1.44-3.58s-.49-2.64-1.46-3.5-2.23-1.3-3.77-1.3-2.74.43-3.7,1.3ZM893.45,341.71c-1.31.58-1.97,1.42-1.97,2.54,0,2.21,2.56,3.31,7.68,3.31,2.59,0,4.52-.26,5.79-.79,1.26-.53,1.89-1.37,1.89-2.52,0-2.27-2.56-3.41-7.68-3.41-2.5,0-4.4.29-5.71.86ZM917.07,321.65h-5.04v4.03h5.04v4.75h-5.04v5.04h-5.62v-23.52h5.62v4.94h5.04v4.75Z"/>
      <path class="cls-1" d="M929.11,339.12c4.7-.25,8.42-.56,11.13-.91l.29,4.37c-5.76.99-12.95,1.49-21.55,1.49h-2.06l-.43-4.66,7.01-.1v-11.86h5.62v11.66ZM938.71,319.3c0,2.75-.06,5.28-.19,7.58-.13,2.3-.43,4.93-.91,7.87l-5.52-.53c.42-2.56.69-4.9.82-7.01.13-2.11.19-4.29.19-6.53h-14.64v-4.7h20.26v3.31ZM947.74,328.08h5.14v4.9h-5.14v19.25h-5.71v-40.27h5.71v16.13Z"/>
      <path class="cls-1" d="M996.31,347.47h-35.71v-4.8h35.71v4.8ZM992.43,334.51h-27.79v-19.06h5.62v14.3h22.18v4.75Z"/>
      <path class="cls-1" d="M1006.51,325.54c-1.23,2.98-3.45,5.66-6.65,8.06l-3.65-3.65c2.14-1.57,3.74-3.18,4.78-4.85,1.04-1.66,1.7-3.71,1.99-6.14h-5.14v-4.61h10.51c0,4.48-.62,8.21-1.85,11.18ZM1028.95,351.79h-26.4v-15.31h26.4v15.31ZM1017.84,326.09c-1.14,3.15-3.24,6.02-6.31,8.62l-3.94-3.22c2.14-1.79,3.73-3.65,4.75-5.57,1.02-1.92,1.66-4.24,1.92-6.96h-4.51v-4.61h9.79c0,4.67-.57,8.58-1.7,11.74ZM1008.07,347.14h15.31v-6h-15.31v6ZM1028.95,334.9h-5.71v-22.9h5.71v22.9Z"/>
      <path class="cls-1" d="M1048.8,316.56c1.55,1.18,2.77,2.86,3.65,5.02.88,2.16,1.32,4.68,1.32,7.56s-.44,5.46-1.32,7.63c-.88,2.18-2.1,3.86-3.65,5.04-1.55,1.18-3.3,1.78-5.26,1.78s-3.77-.59-5.35-1.78c-1.58-1.18-2.82-2.86-3.7-5.04-.88-2.18-1.32-4.72-1.32-7.63s.44-5.4,1.32-7.56c.88-2.16,2.11-3.83,3.7-5.02,1.58-1.18,3.37-1.78,5.35-1.78s3.71.59,5.26,1.78ZM1039.92,322.42c-.88,1.57-1.32,3.81-1.32,6.72s.44,5.15,1.32,6.72c.88,1.57,2.09,2.35,3.62,2.35s2.64-.78,3.5-2.35c.87-1.57,1.3-3.81,1.3-6.72s-.43-5.15-1.3-6.72c-.86-1.57-2.03-2.35-3.5-2.35s-2.74.78-3.62,2.35ZM1064.71,352.27h-5.71v-40.32h5.71v40.32Z"/>
      <path class="cls-1" d="M1083.48,324.91h8.11v-9.7h5.62v27.74h-19.34v-27.74h5.62v9.7ZM1091.59,338.21v-8.78h-8.11v8.78h8.11ZM1108.58,352.27h-5.71v-40.32h5.71v40.32Z"/>
      <path class="cls-1" d="M1147.18,335.47h-35.57v-4.7h35.57v4.7ZM1133.83,318.31c.99,1.42,2.48,2.66,4.46,3.7s4.38,1.74,7.2,2.09l-2.16,4.61c-3.23-.48-6.04-1.41-8.42-2.78s-4.22-3.09-5.5-5.14c-1.28,2.05-3.1,3.76-5.47,5.14-2.37,1.38-5.17,2.3-8.4,2.78l-2.11-4.61c2.79-.35,5.17-1.05,7.15-2.09s3.47-2.26,4.46-3.67,1.49-2.85,1.49-4.32v-1.34h5.81v1.34c0,1.44.5,2.87,1.49,4.3ZM1133.62,342.31c.91,1.26,2.32,2.36,4.22,3.29,1.9.93,4.25,1.57,7.03,1.92l-2.06,4.51c-3.17-.42-5.89-1.23-8.16-2.45s-4.02-2.74-5.23-4.56c-1.25,1.82-3.01,3.34-5.28,4.56-2.27,1.22-4.99,2.03-8.16,2.45l-2.02-4.51c2.78-.35,5.12-.99,7.01-1.92,1.89-.93,3.29-2.02,4.2-3.29.91-1.26,1.37-2.6,1.37-4.01v-.82h5.71v.82c0,1.41.46,2.74,1.37,4.01Z"/>
      <path class="cls-1" d="M1170.07,322.66h-22.9v-4.7h8.69v-5.33h5.66v5.33h8.54v4.7ZM1163.83,325.99c1.54.82,2.74,1.95,3.6,3.41.87,1.46,1.3,3.11,1.3,4.97s-.43,3.51-1.3,4.97c-.86,1.46-2.06,2.59-3.6,3.41-1.54.82-3.25,1.22-5.13,1.22s-3.6-.41-5.14-1.22c-1.54-.82-2.74-1.95-3.62-3.41-.88-1.46-1.32-3.11-1.32-4.97s.44-3.47,1.32-4.94c.88-1.47,2.09-2.62,3.62-3.43,1.54-.82,3.25-1.22,5.14-1.22s3.6.41,5.13,1.22ZM1155.36,330.82c-.85.86-1.27,2.05-1.27,3.55s.42,2.69,1.27,3.55c.85.86,1.96,1.3,3.34,1.3s2.49-.43,3.34-1.3c.85-.86,1.27-2.05,1.27-3.55s-.42-2.69-1.27-3.55c-.85-.86-1.96-1.3-3.34-1.3s-2.49.43-3.34,1.3ZM1178.14,327.65h5.71v4.8h-5.71v19.78h-5.52v-40.27h5.52v15.7Z"/>
      <path class="cls-1" d="M1203.24,318.24h7.06v-6.24h5.71v29.33h-5.71v-9.79h-7.06v3.31h-18.53v-19.63h18.53v3.02ZM1216.78,351.55h-26.79v-13.06h5.71v8.35h21.07v4.7ZM1190.28,330.34h7.39v-10.46h-7.39v10.46ZM1210.3,326.98v-3.98h-7.06v3.98h7.06Z"/>
      <path class="cls-1" d="M497.98,383.33h-11.14v3.31h14.93v4.61h-35.57v-4.61h14.97v-3.31h-10.46v-12.96h5.62v8.26h21.65v4.7ZM497.98,398.45h-5.23v6.29h5.71v4.66h-28.75v-4.66h5.57v-6.29h-5.23v-4.51h27.94v4.51ZM487.23,404.74v-6.29h-6.38v6.29h6.38Z"/>
      <path class="cls-1" d="M537.49,394.7h-35.57v-4.61h35.57v4.61ZM530.09,373.01c2.56,1.47,3.84,3.49,3.84,6.05,0,1.7-.58,3.18-1.75,4.44-1.17,1.26-2.82,2.23-4.97,2.9-2.14.67-4.64,1.01-7.49,1.01s-5.38-.34-7.51-1.01c-2.13-.67-3.78-1.64-4.95-2.9-1.17-1.26-1.75-2.74-1.75-4.44,0-2.56,1.28-4.58,3.84-6.05,2.56-1.47,6.02-2.21,10.37-2.21s7.81.74,10.37,2.21ZM533.5,409.15h-27.31v-11.81h5.71v7.1h21.6v4.7ZM513.53,376.39c-1.47.62-2.21,1.51-2.21,2.66,0,1.22.73,2.12,2.18,2.71s3.53.89,6.22.89,4.79-.3,6.21-.89,2.14-1.5,2.14-2.71-.72-2.08-2.16-2.69c-1.44-.61-3.5-.91-6.19-.91s-4.72.31-6.19.94Z"/>
      <path class="cls-1" d="M581.45,396.62h-8.3v13.2h-5.71v-13.2h-7.78v13.2h-5.81v-13.2h-8.06v-4.7h35.66v4.7ZM570.92,372.05c2.16.74,3.84,1.79,5.04,3.17,1.2,1.38,1.8,2.98,1.8,4.8s-.6,3.37-1.8,4.73c-1.2,1.36-2.88,2.41-5.04,3.14s-4.63,1.1-7.42,1.1-5.24-.37-7.37-1.1-3.79-1.78-4.99-3.14c-1.2-1.36-1.8-2.94-1.8-4.73s.6-3.42,1.8-4.8c1.2-1.38,2.86-2.43,4.99-3.17,2.13-.74,4.58-1.1,7.37-1.1s5.26.37,7.42,1.1ZM557.33,376.75c-1.49.77-2.23,1.86-2.23,3.26s.74,2.47,2.23,3.19c1.49.72,3.54,1.08,6.17,1.08s4.73-.36,6.21-1.08,2.23-1.78,2.23-3.19-.74-2.5-2.23-3.26c-1.49-.77-3.56-1.15-6.21-1.15s-4.68.38-6.17,1.15Z"/>
      <path class="cls-1" d="M598.3,389.11c1.54,3.22,3.81,5.56,6.82,7.03l-3.41,4.66c-2.02-.99-3.73-2.41-5.14-4.25-1.41-1.84-2.53-3.99-3.36-6.46-.9,2.66-2.1,4.97-3.62,6.94-1.52,1.97-3.37,3.48-5.54,4.54l-3.36-4.7c3.2-1.54,5.61-3.98,7.22-7.32,1.62-3.34,2.43-7.02,2.43-11.02v-5.86h5.66v5.86c0,3.84.77,7.37,2.3,10.58ZM612.32,384.96h5.71v4.99h-5.71v19.87h-5.66v-40.27h5.66v15.41Z"/>
      <path class="cls-1" d="M649.04,392.16h-11.23v8.4h15.12v4.7h-35.71v-4.7h14.98v-8.4h-10.75v-19.73h27.36v4.61h-21.7v10.46h21.94v4.66Z"/>
      <path class="cls-1" d="M688.59,391.87h-35.66v-4.32h35.66v4.32ZM684.41,403.34h-21.79v2.16h22.8v3.98h-28.46v-9.89h21.74v-1.82h-21.74v-4.03h27.46v9.6ZM684.32,379.78h-21.31v2.06h21.94v3.94h-27.6v-9.6h21.31v-1.97h-21.36v-3.94h27.02v9.5Z"/>
      <path class="cls-1" d="M703.56,377.04h7.68v-5.09h5.66v19.2h-18.91v-19.2h5.57v5.09ZM728.04,399.46h-20.11v5.28h20.83v4.56h-26.54v-14.5h25.82v4.66ZM711.24,386.59v-5.09h-7.68v5.09h7.68ZM727.8,378.72h5.18v4.75h-5.18v9.6h-5.62v-23.52h5.62v9.17Z"/>
      <path class="cls-1" d="M768.08,390.38h-35.57v-4.66h35.57v4.66ZM760.83,371.95c2.46,1.18,3.7,2.88,3.7,5.09s-1.24,3.9-3.72,5.09c-2.48,1.18-5.98,1.78-10.49,1.78s-8.01-.59-10.49-1.78c-2.48-1.18-3.72-2.88-3.72-5.09s1.23-3.9,3.7-5.09c2.46-1.18,5.97-1.78,10.51-1.78s8.05.59,10.51,1.78ZM763.8,402.91h-21.6v2.16h22.61v4.51h-28.18v-10.75h21.6v-2.02h-21.6v-4.27h27.17v10.37ZM742.01,377.04c0,.93.66,1.58,1.99,1.97,1.33.38,3.43.58,6.31.58s5.03-.19,6.36-.58c1.33-.38,1.99-1.04,1.99-1.97,0-1.73-2.78-2.59-8.35-2.59s-8.3.86-8.3,2.59Z"/>
      <path class="cls-1" d="M811.95,396.1h-15.02v13.73h-5.62v-13.73h-14.93v-4.75h35.57v4.75ZM798.79,377.45c1.02,1.55,2.55,2.9,4.58,4.06,2.03,1.15,4.49,1.9,7.37,2.26l-2.16,4.75c-3.36-.48-6.27-1.47-8.71-2.98-2.45-1.5-4.33-3.36-5.64-5.57-1.31,2.21-3.18,4.06-5.62,5.57-2.43,1.5-5.31,2.5-8.64,2.98l-2.21-4.75c2.88-.35,5.33-1.1,7.34-2.26,2.02-1.15,3.54-2.5,4.56-4.06,1.02-1.55,1.54-3.13,1.54-4.73v-1.97h6.05v1.97c0,1.6.51,3.18,1.54,4.73Z"/>
      <path class="cls-1" d="M837,372.89c1.63.82,2.92,1.97,3.86,3.46.94,1.49,1.42,3.16,1.42,5.02s-.47,3.47-1.42,4.94c-.94,1.47-2.23,2.62-3.86,3.43-1.63.82-3.46,1.22-5.47,1.22s-3.79-.41-5.42-1.22-2.92-1.96-3.87-3.43c-.94-1.47-1.42-3.12-1.42-4.94s.47-3.52,1.42-4.99c.95-1.47,2.23-2.62,3.87-3.46,1.63-.83,3.44-1.25,5.42-1.25s3.84.41,5.47,1.22ZM835.63,400.1c.72,1.52,1.83,2.81,3.34,3.86,1.5-1.09,2.63-2.41,3.38-3.96.75-1.55,1.13-3.11,1.13-4.68v-1.34h5.57v1.34c0,2.21.59,4.17,1.78,5.88,1.18,1.71,3.03,2.97,5.52,3.77l-2.79,4.22c-3.49-1.18-5.97-3.44-7.44-6.77-.67,1.63-1.59,3.06-2.76,4.3s-2.58,2.18-4.25,2.86c-3.36-1.28-5.76-3.62-7.2-7.01-1.47,3.17-3.92,5.38-7.35,6.62l-2.78-4.22c2.46-.86,4.3-2.17,5.5-3.91s1.8-3.66,1.8-5.74v-1.34h5.47v1.34c0,1.66.36,3.26,1.08,4.78ZM827.83,377.83c-.93.85-1.39,2.02-1.39,3.53s.47,2.63,1.42,3.48c.94.85,2.17,1.27,3.67,1.27s2.78-.42,3.74-1.27c.96-.85,1.44-2.01,1.44-3.48s-.48-2.68-1.44-3.53c-.96-.85-2.21-1.27-3.74-1.27s-2.77.42-3.7,1.27ZM852.98,392.4h-5.66v-22.8h5.66v22.8Z"/>
      <path class="cls-1" d="M891.53,391.73h-35.57v-4.61h35.57v4.61ZM878.19,375.36c.99,1.34,2.47,2.51,4.44,3.5,1.97.99,4.34,1.65,7.13,1.97l-1.97,4.61c-3.3-.45-6.14-1.34-8.52-2.66-2.38-1.33-4.22-2.97-5.5-4.92-1.28,1.95-3.11,3.59-5.5,4.92-2.38,1.33-5.21,2.22-8.47,2.66l-2.06-4.61c2.82-.35,5.22-1.02,7.2-1.99,1.98-.98,3.47-2.13,4.46-3.46.99-1.33,1.49-2.7,1.49-4.1v-1.25h5.81v1.25c0,1.38.5,2.74,1.49,4.08ZM865.7,397.01h15.74v-3.36h5.62v15.74h-26.93v-15.74h5.57v3.36ZM881.45,404.78v-3.36h-15.74v3.36h15.74Z"/>
      <path class="cls-1" d="M899.4,394.94c5.86-.1,11.33-.67,16.42-1.73l.72,4.85c-5.73,1.25-12.16,1.87-19.3,1.87h-3.5v-26.5h5.66v21.5ZM924.55,409.82h-5.66v-40.27h5.66v40.27Z"/>
      <path class="cls-1" d="M947.3,378h-12.67v17.33c2.91-.03,5.57-.14,7.97-.31,2.4-.18,4.83-.49,7.29-.94l.58,4.94c-2.75.48-5.5.79-8.26.94-2.75.14-6.05.22-9.89.22h-3.36v-26.88h18.34v4.7ZM958.2,384.43h5.76v4.75h-5.76v20.69h-5.66v-40.32h5.66v14.88Z"/>
      <path class="cls-1" d="M966.12,401.54c.64-.62,1.49-.94,2.54-.94s1.95.31,2.59.94c.64.62.96,1.43.96,2.42,0,.93-.32,1.7-.96,2.33-.64.62-1.51.94-2.59.94s-1.9-.31-2.54-.94c-.64-.62-.96-1.4-.96-2.33,0-.99.32-1.8.96-2.42Z"/>
    </g>
  </g>
</svg>