<?xml version="1.0" encoding="UTF-8"?>
<svg id="Layer_2" xmlns="http://www.w3.org/2000/svg" xmlns:xlink="http://www.w3.org/1999/xlink" viewBox="0 0 1242 2208">
  <defs>
    <style>
      .cls-1 {
        fill: #f9f3dc;
      }

      .cls-2 {
        fill: none;
      }

      .cls-3 {
        fill: url(#_병뚜껑);
      }

      .cls-3, .cls-4 {
        opacity: .5;
      }

      .cls-5 {
        fill: #fffbe9;
      }

      .cls-6 {
        fill: #f2eed7;
      }

      .cls-7 {
        clip-path: url(#clippath);
      }

      .cls-4 {
        fill: url(#_병뚜껑-2);
      }
    </style>
    <clipPath id="clippath">
      <rect class="cls-2" width="1242" height="2208"/>
    </clipPath>
    <pattern id="_병뚜껑" data-name="병뚜껑" x="0" y="0" width="600" height="600" patternTransform="translate(2005.17 2090.01) scale(1.32)" patternUnits="userSpaceOnUse" viewBox="0 0 600 600">
      <g>
        <rect class="cls-2" y="0" width="600" height="600"/>
        <path class="cls-6" d="M624.23,620.33c-1.31-.24-1.67-1.89-1.91-2.98-2.95-15.82-7.33-36.42-15.06-55.66-.99-2.39-2.12-4.65-3.75-4.94-.05,0-.1-.02-.15-.02-1.1-.13-2.54.89-4.04,2.85-10.65,14.32-20.62,29.54-30.25,44.26l-2.94,4.5c-.33.5-.91.75-1.49.64-.19-.04-.38-.11-.54-.22-.68-.44-.87-1.36-.42-2.03l2.94-4.5c9.66-14.76,19.65-30.02,30.37-44.42,2.23-2.92,4.49-4.26,6.72-4.01.12.01.23.03.35.05,3.43.63,5.06,4.59,5.94,6.72,7.23,18.01,11.55,37.11,14.51,52.46.38-2.26.74-4.53,1.09-6.75v-.07c.99-6.15,1.99-12.51,3.43-18.67.44-1.6,1.44-2.07,2.2-2.19l.16-.02h.03c.17,0,.33,0,.5,0-.08-.08-.16-.17-.24-.26-1.06-1.19-1.44-2.75-1-4.18.41-1.35,1.48-2.36,2.94-2.78.59-.23,1.32-.31,2.09-.39-1.16-.42-2.4-1-2.97-2.15-.75-1.28-.61-2.7-.38-3.94.43-1.92.96-4.15,1.62-6.4.08-.29.17-.61.27-.93.36-1.22.73-2.48.65-3.61-.06-.55-.29-.98-.72-1.33-.48-.38-1.2-.66-2.15-.84-2.39-.44-5.61-.06-7.33.14l-.31.04c-.15.02-.29.01-.44-.01-.64-.12-1.12-.63-1.19-1.28-.05-.39.06-.77.31-1.08.24-.31.59-.5.98-.55l.3-.04c2.01-.24,5.38-.63,8.18-.12,1.44.26,2.61.75,3.48,1.44,1.06.85,1.67,1.98,1.81,3.36.13,1.71-.32,3.23-.75,4.71-.09.3-.18.61-.26.9-.65,2.2-1.16,4.37-1.57,6.19-.12.66-.22,1.43.05,1.87l.08.14v.02c.18.29,1.36.69,1.92.89,1.41.49,3.17,1.09,3.34,2.8l.03.35-.13.33c-.64,1.64-2.6,1.82-4.32,1.98-.52.05-1.29.12-1.53.23l-.06.02-.12.04h-.03c-.36.1-.82.32-.97.82-.13.44.02.96.41,1.4.84.99,2.4,1.36,3.9,1.71l.33.08c1.71.45,1.85,1.45,1.78,2-.15,1.25-1.59,1.72-2.77,1.75-1.07.07-2.14-.08-3.17-.21-.73-.1-1.42-.19-2.08-.2,0,0,0,0,0,0-1.4,6.01-2.4,12.31-3.36,18.4-.54,3.41-1.1,6.91-1.72,10.34-.26,1.4-.62,3.32-2.22,3.34-.11,0-.23,0-.33-.03Z"/>
        <path class="cls-6" d="M24.23,620.33c-1.31-.24-1.67-1.89-1.91-2.98-2.95-15.82-7.33-36.42-15.06-55.66-.99-2.39-2.12-4.65-3.75-4.94-.05,0-.1-.02-.15-.02-1.1-.13-2.54.89-4.04,2.85-10.65,14.32-20.62,29.54-30.25,44.26l-2.94,4.5c-.33.5-.91.75-1.49.64-.19-.04-.38-.11-.54-.22-.68-.44-.87-1.36-.42-2.03l2.94-4.5c9.66-14.76,19.65-30.02,30.37-44.42,2.23-2.92,4.49-4.26,6.72-4.01.12.01.23.03.35.05,3.43.63,5.06,4.59,5.94,6.72,7.23,18.01,11.55,37.11,14.51,52.46.38-2.26.74-4.53,1.09-6.75v-.07c.99-6.15,1.99-12.51,3.43-18.67.44-1.6,1.44-2.07,2.2-2.19l.16-.02h.03c.17,0,.33,0,.5,0-.08-.08-.16-.17-.24-.26-1.06-1.19-1.44-2.75-1-4.18.41-1.35,1.48-2.36,2.94-2.78.59-.23,1.32-.31,2.09-.39-1.16-.42-2.4-1-2.97-2.15-.75-1.28-.61-2.7-.38-3.94.43-1.92.96-4.15,1.62-6.4.08-.29.17-.61.27-.93.36-1.22.73-2.48.65-3.61-.06-.55-.29-.98-.72-1.33-.48-.38-1.2-.66-2.15-.84-2.39-.44-5.61-.06-7.33.14l-.31.04c-.15.02-.29.01-.44-.01-.64-.12-1.12-.63-1.19-1.28-.05-.39.06-.77.31-1.08.24-.31.59-.5.98-.55l.3-.04c2.01-.24,5.38-.63,8.18-.12,1.44.26,2.61.75,3.48,1.44,1.06.85,1.67,1.98,1.81,3.36.13,1.71-.32,3.23-.75,4.71-.09.3-.18.61-.26.9-.65,2.2-1.16,4.37-1.57,6.19-.12.66-.22,1.43.05,1.87l.08.14v.02c.18.29,1.36.69,1.92.89,1.41.49,3.17,1.09,3.34,2.8l.03.35-.13.33c-.64,1.64-2.6,1.82-4.32,1.98-.52.05-1.29.12-1.53.23l-.06.02-.12.04h-.03c-.36.1-.82.32-.97.82-.13.44.02.96.41,1.4.84.99,2.4,1.36,3.9,1.71l.33.08c1.71.45,1.85,1.45,1.78,2-.15,1.25-1.59,1.72-2.77,1.75-1.07.07-2.14-.08-3.17-.21-.73-.1-1.42-.19-2.08-.2,0,0,0,0,0,0-1.4,6.01-2.4,12.31-3.36,18.4-.54,3.41-1.1,6.91-1.72,10.34-.26,1.4-.62,3.32-2.22,3.34-.11,0-.23,0-.33-.03Z"/>
        <g>
          <ellipse class="cls-1" cx="294.82" cy="313.21" rx="31.93" ry="3.04" transform="translate(-51.59 58.22) rotate(-10.38)"/>
          <path class="cls-6" d="M324.23,320.33c-1.31-.24-1.67-1.89-1.91-2.98-2.95-15.82-7.33-36.42-15.06-55.66-.99-2.39-2.12-4.65-3.75-4.94-.05,0-.1-.02-.15-.02-1.1-.13-2.54.89-4.04,2.85-10.65,14.32-20.62,29.54-30.25,44.26l-2.94,4.5c-.33.5-.91.75-1.49.64-.19-.04-.38-.11-.54-.22-.68-.44-.87-1.36-.42-2.03l2.94-4.5c9.66-14.76,19.65-30.02,30.37-44.42,2.23-2.92,4.49-4.26,6.72-4.01.12.01.23.03.35.05,3.43.63,5.06,4.59,5.94,6.72,7.23,18.01,11.55,37.11,14.51,52.46.38-2.26.74-4.53,1.09-6.75v-.07c.99-6.15,1.99-12.51,3.43-18.67.44-1.6,1.44-2.07,2.2-2.19l.16-.02h.03c.17,0,.33,0,.5,0-.08-.08-.16-.17-.24-.26-1.06-1.19-1.44-2.75-1-4.18.41-1.35,1.48-2.36,2.94-2.78.59-.23,1.32-.31,2.09-.39-1.16-.42-2.4-1-2.97-2.15-.75-1.28-.61-2.7-.38-3.94.43-1.92.96-4.15,1.62-6.4.08-.29.17-.61.27-.93.36-1.22.73-2.48.65-3.61-.06-.55-.29-.98-.72-1.33-.48-.38-1.2-.66-2.15-.84-2.39-.44-5.61-.06-7.33.14l-.31.04c-.15.02-.29.01-.44-.01-.64-.12-1.12-.63-1.19-1.28-.05-.39.06-.77.31-1.08.24-.31.59-.5.98-.55l.3-.04c2.01-.24,5.38-.63,8.18-.12,1.44.26,2.61.75,3.48,1.44,1.06.85,1.67,1.98,1.81,3.36.13,1.71-.32,3.23-.75,4.71-.09.3-.18.61-.26.9-.65,2.2-1.16,4.37-1.57,6.19-.12.66-.22,1.43.05,1.87l.08.14v.02c.18.29,1.36.69,1.92.89,1.41.49,3.17,1.09,3.34,2.8l.03.35-.13.33c-.64,1.64-2.6,1.82-4.32,1.98-.52.05-1.29.12-1.53.23l-.06.02-.12.04h-.03c-.36.1-.82.32-.97.82-.13.44.02.96.41,1.4.84.99,2.4,1.36,3.9,1.71l.33.08c1.71.45,1.85,1.45,1.78,2-.15,1.25-1.59,1.72-2.77,1.75-1.07.07-2.14-.08-3.17-.21-.73-.1-1.42-.19-2.08-.2,0,0,0,0,0,0-1.4,6.01-2.4,12.31-3.36,18.4-.54,3.41-1.1,6.91-1.72,10.34-.26,1.4-.62,3.32-2.22,3.34-.11,0-.23,0-.33-.03Z"/>
          <path class="cls-6" d="M325.09,325.13c.38-2.06.76-4.11,1.14-6.17-.3,1.65-14.61.42-31.95-2.76-17.35-3.18-31.16-7.09-30.86-8.74-.35,1.99-.72,3.98-1.09,5.96,3.23,1.3,15.25,5.86,31.82,8.89,10.56,1.93,20.96,2.88,30.94,2.82Z"/>
          <path class="cls-6" d="M324.05,330.89c.13-.77.26-1.55.41-2.32.12-.65.24-1.29.35-1.94-9.98.04-20.38-.91-30.93-2.84-16.3-2.99-28.18-7.41-31.83-8.86-.26,1.41-.53,2.83-.79,4.24,2.85,1.42,13.57,6.39,30.09,9.42,10.63,1.95,21.63,2.72,32.71,2.29Z"/>
          <path class="cls-6" d="M322.75,338.16c.02-.1.04-.19.06-.29.38-1.81.68-3.64.99-5.47-11.14.4-22.21-.39-32.94-2.35-4.49-.82-8.89-1.85-13.08-3.05-8.61-2.47-14.44-5.12-16.82-6.29-.32,1.71-.64,3.43-.95,5.15,3.19,1.4,15.54,6.48,32.94,9.67,10.07,1.84,20.08,2.73,29.8,2.63Z"/>
          <path class="cls-6" d="M259.73,327.38c-.04.21-.08.43-.12.64-.31,1.69-.51,3.63.59,5.07,1.06,1.43,2.96,2.18,4.62,2.79,13.15,4.73,26.91,8.12,40.8,9.71,4.46.38,9.68,1.65,13.65-1.03,1.64-1.17,2.53-2.99,3.1-4.89-9.69.07-19.66-.82-29.68-2.66-17.02-3.12-29.25-8.03-32.96-9.63Z"/>
          <path class="cls-1" d="M324.81,326.63c.09-.5.18-1,.28-1.51-9.98.06-20.38-.88-30.94-2.82-16.57-3.03-28.59-7.59-31.82-8.89-.09.5-.19,1.01-.28,1.51,3.65,1.45,15.53,5.88,31.83,8.86,10.56,1.93,20.95,2.89,30.93,2.84Z"/>
          <path class="cls-1" d="M290.86,330.05c10.73,1.97,21.8,2.75,32.94,2.35.08-.51.17-1.01.25-1.52-11.09.42-22.08-.35-32.71-2.29-16.52-3.03-27.24-7.99-30.09-9.42-.1.51-.19,1.03-.29,1.54,2.38,1.17,8.21,3.82,16.82,6.29,4.18,1.2,8.58,2.23,13.08,3.05Z"/>
          <path class="cls-1" d="M292.95,335.53c-17.41-3.19-29.75-8.27-32.94-9.67-.09.51-.19,1.01-.28,1.52,3.71,1.6,15.94,6.52,32.96,9.63,10.02,1.83,19.99,2.73,29.68,2.66.15-.5.28-1.01.39-1.51-9.72.09-19.74-.79-29.8-2.63Z"/>
        </g>
        <g>
          <ellipse class="cls-1" cx="594.82" cy="13.21" rx="31.93" ry="3.04" transform="translate(7.35 107.35) rotate(-10.38)"/>
          <path class="cls-6" d="M624.23,20.33c-1.31-.24-1.67-1.89-1.91-2.98-2.95-15.82-7.33-36.42-15.06-55.66-.99-2.39-2.12-4.65-3.75-4.94-.05,0-.1-.02-.15-.02-1.1-.13-2.54.89-4.04,2.85-10.65,14.32-20.62,29.54-30.25,44.26l-2.94,4.5c-.33.5-.91.75-1.49.64-.19-.04-.38-.11-.54-.22-.68-.44-.87-1.36-.42-2.03l2.94-4.5c9.66-14.76,19.65-30.02,30.37-44.42,2.23-2.92,4.49-4.26,6.72-4.01.12.01.23.03.35.05,3.43.63,5.06,4.59,5.94,6.72,7.23,18.01,11.55,37.11,14.51,52.46.38-2.26.74-4.53,1.09-6.75v-.07c.99-6.15,1.99-12.51,3.43-18.67.44-1.6,1.44-2.07,2.2-2.19l.16-.02h.03c.17,0,.33,0,.5,0-.08-.08-.16-.17-.24-.26-1.06-1.19-1.44-2.75-1-4.18.41-1.35,1.48-2.36,2.94-2.78.59-.23,1.32-.31,2.09-.39-1.16-.42-2.4-1-2.97-2.15-.75-1.28-.61-2.7-.38-3.94.43-1.92.96-4.15,1.62-6.4.08-.29.17-.61.27-.93.36-1.22.73-2.48.65-3.61-.06-.55-.29-.98-.72-1.33-.48-.38-1.2-.66-2.15-.84-2.39-.44-5.61-.06-7.33.14l-.31.04c-.15.02-.29.01-.44-.01-.64-.12-1.12-.63-1.19-1.28-.05-.39.06-.77.31-1.08.24-.31.59-.5.98-.55l.3-.04c2.01-.24,5.38-.63,8.18-.12,1.44.26,2.61.75,3.48,1.44,1.06.85,1.67,1.98,1.81,3.36.13,1.71-.32,3.23-.75,4.71-.09.3-.18.61-.26.9-.65,2.2-1.16,4.37-1.57,6.19-.12.66-.22,1.43.05,1.87l.08.14v.02c.18.29,1.36.69,1.92.89,1.41.49,3.17,1.09,3.34,2.8l.03.35-.13.33c-.64,1.64-2.6,1.82-4.32,1.98-.52.05-1.29.12-1.53.23l-.06.02-.12.04h-.03c-.36.1-.82.32-.97.82-.13.44.02.96.41,1.4.84.99,2.4,1.36,3.9,1.71l.33.08c1.71.45,1.85,1.45,1.78,2-.15,1.25-1.59,1.72-2.77,1.75-1.07.07-2.14-.08-3.17-.21-.73-.1-1.42-.19-2.08-.2,0,0,0,0,0,0-1.4,6.01-2.4,12.31-3.36,18.4-.54,3.41-1.1,6.91-1.72,10.34-.26,1.4-.62,3.32-2.22,3.34-.11,0-.23,0-.33-.03Z"/>
          <path class="cls-6" d="M625.09,25.13c.38-2.06.76-4.11,1.14-6.17-.3,1.65-14.61.42-31.95-2.76-17.35-3.18-31.16-7.09-30.86-8.74-.35,1.99-.72,3.98-1.09,5.96,3.23,1.3,15.25,5.86,31.82,8.89,10.56,1.93,20.96,2.88,30.94,2.82Z"/>
          <path class="cls-6" d="M624.05,30.89c.13-.77.26-1.55.41-2.32.12-.65.24-1.29.35-1.94-9.98.04-20.38-.91-30.93-2.84-16.3-2.99-28.18-7.41-31.83-8.86-.26,1.41-.53,2.83-.79,4.24,2.85,1.42,13.57,6.39,30.09,9.42,10.63,1.95,21.63,2.72,32.71,2.29Z"/>
          <path class="cls-6" d="M622.75,38.16c.02-.1.04-.19.06-.29.38-1.81.68-3.64.99-5.47-11.14.4-22.21-.39-32.94-2.35-4.49-.82-8.89-1.85-13.08-3.05-8.61-2.47-14.44-5.12-16.82-6.29-.32,1.71-.64,3.43-.95,5.15,3.19,1.4,15.54,6.48,32.94,9.67,10.07,1.84,20.08,2.73,29.8,2.63Z"/>
          <path class="cls-6" d="M559.73,27.38c-.04.21-.08.43-.12.64-.31,1.69-.51,3.63.59,5.07,1.06,1.43,2.96,2.18,4.62,2.79,13.15,4.73,26.91,8.12,40.8,9.71,4.46.38,9.68,1.65,13.65-1.03,1.64-1.17,2.53-2.99,3.1-4.89-9.69.07-19.66-.82-29.68-2.66-17.02-3.12-29.25-8.03-32.96-9.63Z"/>
          <path class="cls-1" d="M624.81,26.63c.09-.5.18-1,.28-1.51-9.98.06-20.38-.88-30.94-2.82-16.57-3.03-28.59-7.59-31.82-8.89-.09.5-.19,1.01-.28,1.51,3.65,1.45,15.53,5.88,31.83,8.86,10.56,1.93,20.95,2.89,30.93,2.84Z"/>
          <path class="cls-1" d="M590.86,30.05c10.73,1.97,21.8,2.75,32.94,2.35.08-.51.17-1.01.25-1.52-11.09.42-22.08-.35-32.71-2.29-16.52-3.03-27.24-7.99-30.09-9.42-.1.51-.19,1.03-.29,1.54,2.38,1.17,8.21,3.82,16.82,6.29,4.18,1.2,8.58,2.23,13.08,3.05Z"/>
          <path class="cls-1" d="M592.95,35.53c-17.41-3.19-29.75-8.27-32.94-9.67-.09.51-.19,1.01-.28,1.52,3.71,1.6,15.94,6.52,32.96,9.63,10.02,1.83,19.99,2.73,29.68,2.66.15-.5.28-1.01.39-1.51-9.72.09-19.74-.79-29.8-2.63Z"/>
        </g>
        <g>
          <ellipse class="cls-1" cx="-5.18" cy="13.21" rx="31.93" ry="3.04" transform="translate(-2.46 -.72) rotate(-10.38)"/>
          <path class="cls-6" d="M24.23,20.33c-1.31-.24-1.67-1.89-1.91-2.98C19.36,1.53,14.99-19.07,7.26-38.31c-.99-2.39-2.12-4.65-3.75-4.94-.05,0-.1-.02-.15-.02-1.1-.13-2.54.89-4.04,2.85C-11.33-26.1-21.3-10.88-30.93,3.84l-2.94,4.5c-.33.5-.91.75-1.49.64-.19-.04-.38-.11-.54-.22-.68-.44-.87-1.36-.42-2.03l2.94-4.5C-23.73-12.53-13.74-27.79-3.03-42.19c2.23-2.92,4.49-4.26,6.72-4.01.12.01.23.03.35.05,3.43.63,5.06,4.59,5.94,6.72C17.21-21.41,21.53-2.32,24.49,13.03c.38-2.26.74-4.53,1.09-6.75v-.07c.99-6.15,1.99-12.51,3.43-18.67.44-1.6,1.44-2.07,2.2-2.19l.16-.02h.03c.17,0,.33,0,.5,0-.08-.08-.16-.17-.24-.26-1.06-1.19-1.44-2.75-1-4.18.41-1.35,1.48-2.36,2.94-2.78.59-.23,1.32-.31,2.09-.39-1.16-.42-2.4-1-2.97-2.15-.75-1.28-.61-2.7-.38-3.94.43-1.92.96-4.15,1.62-6.4.08-.29.17-.61.27-.93.36-1.22.73-2.48.65-3.61-.06-.55-.29-.98-.72-1.33-.48-.38-1.2-.66-2.15-.84-2.39-.44-5.61-.06-7.33.14l-.31.04c-.15.02-.29.01-.44-.01-.64-.12-1.12-.63-1.19-1.28-.05-.39.06-.77.31-1.08.24-.31.59-.5.98-.55l.3-.04c2.01-.24,5.38-.63,8.18-.12,1.44.26,2.61.75,3.48,1.44,1.06.85,1.67,1.98,1.81,3.36.13,1.71-.32,3.23-.75,4.71-.09.3-.18.61-.26.9-.65,2.2-1.16,4.37-1.57,6.19-.12.66-.22,1.43.05,1.87l.08.14v.02c.18.29,1.36.69,1.92.89,1.41.49,3.17,1.09,3.34,2.8l.03.35-.13.33c-.64,1.64-2.6,1.82-4.32,1.98-.52.05-1.29.12-1.53.23l-.06.02-.12.04h-.03c-.36.1-.82.32-.97.82-.13.44.02.96.41,1.4.84.99,2.4,1.36,3.9,1.71l.33.08c1.71.45,1.85,1.45,1.78,2-.15,1.25-1.59,1.72-2.77,1.75-1.07.07-2.14-.08-3.17-.21-.73-.1-1.42-.19-2.08-.2,0,0,0,0,0,0-1.4,6.01-2.4,12.31-3.36,18.4-.54,3.41-1.1,6.91-1.72,10.34-.26,1.4-.62,3.32-2.22,3.34-.11,0-.23,0-.33-.03Z"/>
          <path class="cls-6" d="M25.09,25.13c.38-2.06.76-4.11,1.14-6.17-.3,1.65-14.61.42-31.95-2.76-17.35-3.18-31.16-7.09-30.86-8.74-.35,1.99-.72,3.98-1.09,5.96,3.23,1.3,15.25,5.86,31.82,8.89,10.56,1.93,20.96,2.88,30.94,2.82Z"/>
          <path class="cls-6" d="M24.05,30.89c.13-.77.26-1.55.41-2.32.12-.65.24-1.29.35-1.94-9.98.04-20.38-.91-30.93-2.84-16.3-2.99-28.18-7.41-31.83-8.86-.26,1.41-.53,2.83-.79,4.24,2.85,1.42,13.57,6.39,30.09,9.42,10.63,1.95,21.63,2.72,32.71,2.29Z"/>
          <path class="cls-6" d="M22.75,38.16c.02-.1.04-.19.06-.29.38-1.81.68-3.64.99-5.47-11.14.4-22.21-.39-32.94-2.35-4.49-.82-8.89-1.85-13.08-3.05-8.61-2.47-14.44-5.12-16.82-6.29-.32,1.71-.64,3.43-.95,5.15,3.19,1.4,15.54,6.48,32.94,9.67,10.07,1.84,20.08,2.73,29.8,2.63Z"/>
          <path class="cls-6" d="M-40.27,27.38c-.04.21-.08.43-.12.64-.31,1.69-.51,3.63.59,5.07,1.06,1.43,2.96,2.18,4.62,2.79,13.15,4.73,26.91,8.12,40.8,9.71,4.46.38,9.68,1.65,13.65-1.03,1.64-1.17,2.53-2.99,3.1-4.89-9.69.07-19.66-.82-29.68-2.66-17.02-3.12-29.25-8.03-32.96-9.63Z"/>
          <path class="cls-1" d="M24.81,26.63c.09-.5.18-1,.28-1.51-9.98.06-20.38-.88-30.94-2.82-16.57-3.03-28.59-7.59-31.82-8.89-.09.5-.19,1.01-.28,1.51,3.65,1.45,15.53,5.88,31.83,8.86,10.56,1.93,20.95,2.89,30.93,2.84Z"/>
          <path class="cls-1" d="M-9.14,30.05c10.73,1.97,21.8,2.75,32.94,2.35.08-.51.17-1.01.25-1.52-11.09.42-22.08-.35-32.71-2.29-16.52-3.03-27.24-7.99-30.09-9.42-.1.51-.19,1.03-.29,1.54,2.38,1.17,8.21,3.82,16.82,6.29,4.18,1.2,8.58,2.23,13.08,3.05Z"/>
          <path class="cls-1" d="M-7.05,35.53c-17.41-3.19-29.75-8.27-32.94-9.67-.09.51-.19,1.01-.28,1.52,3.71,1.6,15.94,6.52,32.96,9.63,10.02,1.83,19.99,2.73,29.68,2.66.15-.5.28-1.01.39-1.51-9.72.09-19.74-.79-29.8-2.63Z"/>
        </g>
      </g>
    </pattern>
    <pattern id="_병뚜껑-2" data-name="병뚜껑" patternTransform="translate(-17352.04 2090.01) rotate(-180) scale(1.32 -1.32)" xlink:href="#_병뚜껑"/>
  </defs>
  <g id="_배경병뚜껑" data-name="배경병뚜껑">
    <g class="cls-7">
      <rect class="cls-5" width="1242" height="2208"/>
      <rect class="cls-5" width="1242" height="2208"/>
      <rect class="cls-5" width="1242" height="2208"/>
      <g>
        <rect class="cls-3" x="-363.81" y="-278.98" width="1634.6" height="2905.95"/>
        <polygon class="cls-4" points="-34.79 2626.98 1599.81 2626.98 1599.81 -278.98 -34.79 -278.98 -34.79 2626.98"/>
      </g>
    </g>
  </g>
</svg>