<?xml version="1.0" encoding="UTF-8"?>
<svg id="Layer_2" xmlns="http://www.w3.org/2000/svg" xmlns:xlink="http://www.w3.org/1999/xlink" viewBox="0 0 981.31 981.31">
  <defs>
    <style>
      .cls-1 {
        fill: #f9f7ed;
      }

      .cls-2 {
        fill: #f7f5e1;
      }

      .cls-3 {
        fill: none;
      }

      .cls-4 {
        clip-path: url(#clippath-1);
      }

      .cls-5 {
        clip-path: url(#clippath-3);
      }

      .cls-6 {
        fill: #faf7e4;
      }

      .cls-7 {
        clip-path: url(#clippath-2);
      }

      .cls-8 {
        clip-path: url(#clippath);
      }
    </style>
    <clipPath id="clippath">
      <path class="cls-3" d="M252.46,763.26c24.98-3.73,44.95-8.69,44.59-11.07,1.42,9.88,3.03,19.74,4.48,29.62.36,2.43.56,5.22-1.09,7.23-1.58,2-4.33,2.98-6.75,3.77-19.05,6.15-38.91,10.37-58.87,11.99-6.41.34-13.94,1.91-19.49-2.12-3.02-2.29-4.13-6.16-4.77-9.74-.78-4.44-1.24-8.95-1.91-13.39-.67-4.61-1.39-9.23-2.08-13.84.36,2.38,20.9,1.28,45.88-2.45Z"/>
    </clipPath>
    <clipPath id="clippath-1">
      <path class="cls-3" d="M237.17,265.71c-24.98-3.73-44.95-8.69-44.59-11.07-1.42,9.88-3.03,19.74-4.48,29.62-.36,2.43-.56,5.22,1.09,7.23,1.58,2,4.33,2.98,6.75,3.77,19.05,6.15,38.91,10.37,58.87,11.99,6.41.34,13.94,1.91,19.49-2.12,3.02-2.29,4.13-6.16,4.77-9.74.78-4.44,1.24-8.95,1.91-13.39.67-4.61,1.39-9.23,2.08-13.84-.36,2.38-20.9,1.28-45.88-2.45Z"/>
    </clipPath>
    <clipPath id="clippath-2">
      <path class="cls-3" d="M728.85,763.26c-24.98-3.73-44.95-8.69-44.59-11.07-1.42,9.88-3.03,19.74-4.48,29.62-.36,2.43-.56,5.22,1.09,7.23,1.58,2,4.33,2.98,6.75,3.77,19.05,6.15,38.91,10.37,58.87,11.99,6.41.34,13.94,1.91,19.49-2.12,3.02-2.29,4.13-6.16,4.77-9.74.78-4.44,1.24-8.95,1.91-13.39.67-4.61,1.39-9.23,2.08-13.84-.36,2.38-20.9,1.28-45.88-2.45Z"/>
    </clipPath>
    <clipPath id="clippath-3">
      <path class="cls-3" d="M744.13,265.71c24.98-3.73,44.95-8.69,44.59-11.07,1.42,9.88,3.03,19.74,4.48,29.62.36,2.43.56,5.22-1.09,7.23-1.58,2-4.33,2.98-6.75,3.77-19.05,6.15-38.91,10.37-58.87,11.99-6.41.34-13.94,1.91-19.49-2.12-3.02-2.29-4.13-6.16-4.77-9.74-.78-4.44-1.24-8.95-1.91-13.39-.67-4.61-1.39-9.23-2.08-13.84.36,2.38,20.9,1.28,45.88-2.45Z"/>
    </clipPath>
  </defs>
  <g id="_메인오브젝트" data-name="메인오브젝트">
    <g>
      <ellipse class="cls-6" cx="251.81" cy="758.96" rx="45.74" ry="4.35" transform="translate(-109.4 45.55) rotate(-8.5)"/>
      <path class="cls-2" d="M209.38,767.77c1.89-.28,2.48-2.63,2.87-4.18,4.97-22.51,12.2-51.8,24.17-78.98,1.52-3.37,3.26-6.55,5.6-6.9.07-.01.14-.02.22-.02,1.59-.13,3.59,1.39,5.65,4.28,14.58,21,28.13,43.26,41.24,64.79l4,6.58c.44.73,1.27,1.11,2.11.99.28-.04.54-.14.78-.28.99-.6,1.31-1.9.7-2.89l-4-6.57c-13.14-21.59-26.72-43.9-41.39-65.03-3.06-4.28-6.22-6.31-9.43-6.05-.17.01-.34.03-.5.06-4.94.74-7.46,6.33-8.82,9.34-11.2,25.45-18.28,52.58-23.24,74.43-.44-3.25-.85-6.52-1.25-9.71v-.1c-1.12-8.85-2.26-18-4.03-26.89-.56-2.3-1.97-3.03-3.05-3.24l-.23-.03h-.04c-.24-.02-.48-.03-.71-.03.12-.12.23-.24.35-.36,1.57-1.65,2.19-3.87,1.63-5.94-.52-1.96-2.01-3.45-4.09-4.11-.84-.36-1.87-.51-2.97-.65,1.68-.55,3.49-1.31,4.36-2.93,1.13-1.79,1.01-3.84.74-5.62-.53-2.77-1.18-5.99-2.03-9.24-.1-.42-.22-.88-.34-1.35-.46-1.77-.93-3.59-.76-5.2.11-.79.46-1.39,1.09-1.87.7-.53,1.75-.89,3.11-1.1,3.45-.52,8.03.18,10.49.55l.44.07c.21.03.42.03.62,0,.92-.14,1.63-.85,1.77-1.77.08-.56-.05-1.11-.39-1.56-.33-.45-.82-.75-1.38-.83l-.43-.07c-2.87-.43-7.67-1.16-11.71-.56-2.08.31-3.78.95-5.04,1.9-1.56,1.16-2.48,2.75-2.75,4.73-.27,2.44.31,4.64.86,6.77.11.44.23.88.33,1.31.83,3.19,1.46,6.3,1.96,8.94.15.96.25,2.06-.16,2.68l-.12.2-.02.03c-.25.4-1.96.93-2.78,1.18-2.05.63-4.59,1.41-4.91,3.85l-.07.5.17.48c.85,2.38,3.63,2.73,6.09,3.04.74.09,1.84.23,2.18.39l.09.04.17.07h.05c.51.16,1.16.5,1.35,1.22.17.63-.07,1.37-.65,1.98-1.26,1.38-3.49,1.83-5.66,2.26l-.47.09c-2.48.57-2.72,1.99-2.64,2.79.16,1.79,2.19,2.54,3.89,2.64,1.52.15,3.06,0,4.55-.16,1.05-.11,2.04-.21,2.99-.19,0,0,0,0,0,0,1.72,8.68,2.85,17.74,3.95,26.5.61,4.9,1.24,9.95,1.97,14.88.31,2.02.74,4.78,3.03,4.89.16,0,.32,0,.48-.02Z"/>
      <path class="cls-2" d="M252.46,763.26c24.98-3.73,44.95-8.69,44.59-11.07,1.42,9.88,3.03,19.74,4.48,29.62.36,2.43.56,5.22-1.09,7.23-1.58,2-4.33,2.98-6.75,3.77-19.05,6.15-38.91,10.37-58.87,11.99-6.41.34-13.94,1.91-19.49-2.12-3.02-2.29-4.13-6.16-4.77-9.74-.78-4.44-1.24-8.95-1.91-13.39-.67-4.61-1.39-9.23-2.08-13.84.36,2.38,20.9,1.28,45.88-2.45Z"/>
      <g class="cls-8">
        <g>
          <path class="cls-1" d="M253.48,774.08c28.07-4.19,47.33-11.69,47.62-11.81l-.5-1.26c-.43.17-43.5,16.93-94.86,14.17l-.07,1.35c17.3.93,33.68-.35,47.81-2.46Z"/>
          <path class="cls-1" d="M257.51,783.18c7.27-1.09,13.59-2.43,18.82-3.74,16.45-4.14,25.95-8.96,26.04-9.01l-.62-1.2c-.37.19-37.84,18.99-94.85,14.15l-.11,1.35c19.65,1.67,36.89.52,50.71-1.55Z"/>
          <path class="cls-1" d="M254.57,793.06c29.28-4.37,48.97-12.79,49.25-12.91l-.54-1.24c-.42.18-42.26,18.05-94.8,15.04l-.08,1.35c16.81.96,32.53-.2,46.17-2.24Z"/>
        </g>
      </g>
    </g>
    <g>
      <ellipse class="cls-6" cx="237.82" cy="261.4" rx="4.35" ry="45.74" transform="translate(-55.86 457.98) rotate(-81.5)"/>
      <path class="cls-2" d="M280.26,270.22c-1.89-.28-2.48-2.63-2.87-4.18-4.97-22.51-12.2-51.8-24.17-78.98-1.52-3.37-3.26-6.55-5.6-6.9-.07-.01-.14-.02-.22-.02-1.59-.13-3.59,1.39-5.65,4.28-14.58,21-28.13,43.26-41.24,64.79l-4,6.58c-.44.73-1.27,1.11-2.11.99-.28-.04-.54-.14-.78-.28-.99-.6-1.31-1.9-.7-2.89l4-6.57c13.14-21.59,26.72-43.9,41.39-65.03,3.06-4.28,6.22-6.31,9.43-6.05.17.01.34.03.5.06,4.94.74,7.46,6.33,8.82,9.34,11.2,25.45,18.28,52.58,23.24,74.43.44-3.25.85-6.52,1.25-9.71v-.1c1.12-8.85,2.26-18,4.03-26.89.56-2.3,1.97-3.03,3.05-3.24l.23-.03h.04c.24-.02.48-.03.71-.03-.12-.12-.23-.24-.35-.36-1.57-1.65-2.19-3.87-1.63-5.94.52-1.96,2.01-3.45,4.09-4.11.84-.36,1.87-.51,2.97-.65-1.68-.55-3.49-1.31-4.36-2.93-1.13-1.79-1.01-3.84-.74-5.62.53-2.77,1.18-5.99,2.03-9.24.1-.42.22-.88.34-1.35.46-1.77.93-3.59.76-5.2-.11-.79-.46-1.39-1.09-1.87-.7-.53-1.75-.89-3.11-1.1-3.45-.52-8.03.18-10.49.55l-.44.07c-.21.03-.42.03-.62,0-.92-.14-1.63-.85-1.77-1.77-.08-.56.05-1.11.39-1.56.33-.45.82-.75,1.38-.83l.43-.07c2.87-.43,7.67-1.16,11.71-.56,2.08.31,3.78.95,5.04,1.9,1.56,1.16,2.48,2.75,2.75,4.73.27,2.44-.31,4.64-.86,6.77-.11.44-.23.88-.33,1.31-.83,3.19-1.46,6.3-1.96,8.94-.15.96-.25,2.06.16,2.68l.12.2.02.03c.25.4,1.96.93,2.78,1.18,2.05.63,4.59,1.41,4.91,3.85l.07.5-.17.48c-.85,2.38-3.63,2.73-6.09,3.04-.74.09-1.84.23-2.18.39l-.09.04-.17.07h-.05c-.51.16-1.16.5-1.35,1.22-.17.63.07,1.37.65,1.98,1.26,1.38,3.49,1.83,5.66,2.26l.47.09c2.48.57,2.72,1.99,2.64,2.79-.16,1.79-2.19,2.54-3.89,2.64-1.52.15-3.06,0-4.55-.16-1.05-.11-2.04-.21-2.99-.19,0,0,0,0,0,0-1.72,8.68-2.85,17.74-3.95,26.5-.61,4.9-1.24,9.95-1.97,14.88-.31,2.02-.74,4.78-3.03,4.89-.16,0-.32,0-.48-.02Z"/>
      <path class="cls-2" d="M237.17,265.71c-24.98-3.73-44.95-8.69-44.59-11.07-1.42,9.88-3.03,19.74-4.48,29.62-.36,2.43-.56,5.22,1.09,7.23,1.58,2,4.33,2.98,6.75,3.77,19.05,6.15,38.91,10.37,58.87,11.99,6.41.34,13.94,1.91,19.49-2.12,3.02-2.29,4.13-6.16,4.77-9.74.78-4.44,1.24-8.95,1.91-13.39.67-4.61,1.39-9.23,2.08-13.84-.36,2.38-20.9,1.28-45.88-2.45Z"/>
      <g class="cls-4">
        <g>
          <path class="cls-1" d="M236.15,276.52c-28.07-4.19-47.33-11.69-47.62-11.81l.5-1.26c.43.17,43.5,16.93,94.86,14.17l.07,1.35c-17.3.93-33.68-.35-47.81-2.46Z"/>
          <path class="cls-1" d="M232.12,285.62c-7.27-1.09-13.59-2.43-18.82-3.74-16.45-4.14-25.95-8.96-26.04-9.01l.62-1.2c.37.19,37.84,18.99,94.85,14.15l.11,1.35c-19.65,1.67-36.89.52-50.71-1.55Z"/>
          <path class="cls-1" d="M235.06,295.5c-29.28-4.37-48.97-12.79-49.25-12.91l.54-1.24c.42.18,42.26,18.05,94.8,15.04l.08,1.35c-16.81.96-32.53-.2-46.17-2.24Z"/>
        </g>
      </g>
    </g>
    <g>
      <ellipse class="cls-6" cx="729.49" cy="758.96" rx="4.35" ry="45.74" transform="translate(-128.94 1368.27) rotate(-81.5)"/>
      <path class="cls-2" d="M771.93,767.77c-1.89-.28-2.48-2.63-2.87-4.18-4.97-22.51-12.2-51.8-24.17-78.98-1.52-3.37-3.26-6.55-5.6-6.9-.07-.01-.14-.02-.22-.02-1.59-.13-3.59,1.39-5.65,4.28-14.58,21-28.13,43.26-41.24,64.79l-4,6.58c-.44.73-1.27,1.11-2.11.99-.28-.04-.54-.14-.78-.28-.99-.6-1.31-1.9-.7-2.89l4-6.57c13.14-21.59,26.72-43.9,41.39-65.03,3.06-4.28,6.22-6.31,9.43-6.05.17.01.34.03.5.06,4.94.74,7.46,6.33,8.82,9.34,11.2,25.45,18.28,52.58,23.24,74.43.44-3.25.85-6.52,1.25-9.71v-.1c1.12-8.85,2.26-18,4.03-26.89.56-2.3,1.97-3.03,3.05-3.24l.23-.03h.04c.24-.02.48-.03.71-.03-.12-.12-.23-.24-.35-.36-1.57-1.65-2.19-3.87-1.63-5.94.52-1.96,2.01-3.45,4.09-4.11.84-.36,1.87-.51,2.97-.65-1.68-.55-3.49-1.31-4.36-2.93-1.13-1.79-1.01-3.84-.74-5.62.53-2.77,1.18-5.99,2.03-9.24.1-.42.22-.88.34-1.35.46-1.77.93-3.59.76-5.2-.11-.79-.46-1.39-1.09-1.87-.7-.53-1.75-.89-3.11-1.1-3.45-.52-8.03.18-10.49.55l-.44.07c-.21.03-.42.03-.62,0-.92-.14-1.63-.85-1.77-1.77-.08-.56.05-1.11.39-1.56.33-.45.82-.75,1.38-.83l.43-.07c2.87-.43,7.67-1.16,11.71-.56,2.08.31,3.78.95,5.04,1.9,1.56,1.16,2.48,2.75,2.75,4.73.27,2.44-.31,4.64-.86,6.77-.11.44-.23.88-.33,1.31-.83,3.19-1.46,6.3-1.96,8.94-.15.96-.25,2.06.16,2.68l.12.2.02.03c.25.4,1.96.93,2.78,1.18,2.05.63,4.59,1.41,4.91,3.85l.07.5-.17.48c-.85,2.38-3.63,2.73-6.09,3.04-.74.09-1.84.23-2.18.39l-.09.04-.17.07h-.05c-.51.16-1.16.5-1.35,1.22-.17.63.07,1.37.65,1.98,1.26,1.38,3.49,1.83,5.66,2.26l.47.09c2.48.57,2.72,1.99,2.64,2.79-.16,1.79-2.19,2.54-3.89,2.64-1.52.15-3.06,0-4.55-.16-1.05-.11-2.04-.21-2.99-.19,0,0,0,0,0,0-1.72,8.68-2.85,17.74-3.95,26.5-.61,4.9-1.24,9.95-1.97,14.88-.31,2.02-.74,4.78-3.03,4.89-.16,0-.32,0-.48-.02Z"/>
      <path class="cls-2" d="M728.85,763.26c-24.98-3.73-44.95-8.69-44.59-11.07-1.42,9.88-3.03,19.74-4.48,29.62-.36,2.43-.56,5.22,1.09,7.23,1.58,2,4.33,2.98,6.75,3.77,19.05,6.15,38.91,10.37,58.87,11.99,6.41.34,13.94,1.91,19.49-2.12,3.02-2.29,4.13-6.16,4.77-9.74.78-4.44,1.24-8.95,1.91-13.39.67-4.61,1.39-9.23,2.08-13.84-.36,2.38-20.9,1.28-45.88-2.45Z"/>
      <g class="cls-7">
        <g>
          <path class="cls-1" d="M727.82,774.08c-28.07-4.19-47.33-11.69-47.62-11.81l.5-1.26c.43.17,43.5,16.93,94.86,14.17l.07,1.35c-17.3.93-33.68-.35-47.81-2.46Z"/>
          <path class="cls-1" d="M723.79,783.18c-7.27-1.09-13.59-2.43-18.82-3.74-16.45-4.14-25.95-8.96-26.04-9.01l.62-1.2c.37.19,37.84,18.99,94.85,14.15l.11,1.35c-19.65,1.67-36.89.52-50.71-1.55Z"/>
          <path class="cls-1" d="M726.74,793.06c-29.28-4.37-48.97-12.79-49.25-12.91l.54-1.24c.42.18,42.26,18.05,94.8,15.04l.08,1.35c-16.81.96-32.53-.2-46.17-2.24Z"/>
        </g>
      </g>
    </g>
    <g>
      <ellipse class="cls-6" cx="743.49" cy="261.4" rx="45.74" ry="4.35" transform="translate(-30.47 112.75) rotate(-8.5)"/>
      <path class="cls-2" d="M701.05,270.22c1.89-.28,2.48-2.63,2.87-4.18,4.97-22.51,12.2-51.8,24.17-78.98,1.52-3.37,3.26-6.55,5.6-6.9.07-.01.14-.02.22-.02,1.59-.13,3.59,1.39,5.65,4.28,14.58,21,28.13,43.26,41.24,64.79l4,6.58c.44.73,1.27,1.11,2.11.99.28-.04.54-.14.78-.28.99-.6,1.31-1.9.7-2.89l-4-6.57c-13.14-21.59-26.72-43.9-41.39-65.03-3.06-4.28-6.22-6.31-9.43-6.05-.17.01-.34.03-.5.06-4.94.74-7.46,6.33-8.82,9.34-11.2,25.45-18.28,52.58-23.24,74.43-.44-3.25-.85-6.52-1.25-9.71v-.1c-1.12-8.85-2.26-18-4.03-26.89-.56-2.3-1.97-3.03-3.05-3.24l-.23-.03h-.04c-.24-.02-.48-.03-.71-.03.12-.12.23-.24.35-.36,1.57-1.65,2.19-3.87,1.63-5.94-.52-1.96-2.01-3.45-4.09-4.11-.84-.36-1.87-.51-2.97-.65,1.68-.55,3.49-1.31,4.36-2.93,1.13-1.79,1.01-3.84.74-5.62-.53-2.77-1.18-5.99-2.03-9.24-.1-.42-.22-.88-.34-1.35-.46-1.77-.93-3.59-.76-5.2.11-.79.46-1.39,1.09-1.87.7-.53,1.75-.89,3.11-1.1,3.45-.52,8.03.18,10.49.55l.44.07c.21.03.42.03.62,0,.92-.14,1.63-.85,1.77-1.77.08-.56-.05-1.11-.39-1.56-.33-.45-.82-.75-1.38-.83l-.43-.07c-2.87-.43-7.67-1.16-11.71-.56-2.08.31-3.78.95-5.04,1.9-1.56,1.16-2.48,2.75-2.75,4.73-.27,2.44.31,4.64.86,6.77.11.44.23.88.33,1.31.83,3.19,1.46,6.3,1.96,8.94.15.96.25,2.06-.16,2.68l-.12.2-.02.03c-.25.4-1.96.93-2.78,1.18-2.05.63-4.59,1.41-4.91,3.85l-.07.5.17.48c.85,2.38,3.63,2.73,6.09,3.04.74.09,1.84.23,2.18.39l.09.04.17.07h.05c.51.16,1.16.5,1.35,1.22.17.63-.07,1.37-.65,1.98-1.26,1.38-3.49,1.83-5.66,2.26l-.47.09c-2.48.57-2.72,1.99-2.64,2.79.16,1.79,2.19,2.54,3.89,2.64,1.52.15,3.06,0,4.55-.16,1.05-.11,2.04-.21,2.99-.19,0,0,0,0,0,0,1.72,8.68,2.85,17.74,3.95,26.5.61,4.9,1.24,9.95,1.97,14.88.31,2.02.74,4.78,3.03,4.89.16,0,.32,0,.48-.02Z"/>
      <path class="cls-2" d="M744.13,265.71c24.98-3.73,44.95-8.69,44.59-11.07,1.42,9.88,3.03,19.74,4.48,29.62.36,2.43.56,5.22-1.09,7.23-1.58,2-4.33,2.98-6.75,3.77-19.05,6.15-38.91,10.37-58.87,11.99-6.41.34-13.94,1.91-19.49-2.12-3.02-2.29-4.13-6.16-4.77-9.74-.78-4.44-1.24-8.95-1.91-13.39-.67-4.61-1.39-9.23-2.08-13.84.36,2.38,20.9,1.28,45.88-2.45Z"/>
      <g class="cls-5">
        <g>
          <path class="cls-1" d="M745.16,276.52c28.07-4.19,47.33-11.69,47.62-11.81l-.5-1.26c-.43.17-43.5,16.93-94.86,14.17l-.07,1.35c17.3.93,33.68-.35,47.81-2.46Z"/>
          <path class="cls-1" d="M749.19,285.62c7.27-1.09,13.59-2.43,18.82-3.74,16.45-4.14,25.95-8.96,26.04-9.01l-.62-1.2c-.37.19-37.84,18.99-94.85,14.15l-.11,1.35c19.65,1.67,36.89.52,50.71-1.55Z"/>
          <path class="cls-1" d="M746.24,295.5c29.28-4.37,48.97-12.79,49.25-12.91l-.54-1.24c-.42.18-42.26,18.05-94.8,15.04l-.08,1.35c16.81.96,32.53-.2,46.17-2.24Z"/>
        </g>
      </g>
    </g>
    <rect class="cls-3" width="981.31" height="981.31"/>
  </g>
</svg>