<?xml version="1.0" encoding="UTF-8"?>
<svg id="Layer_2" xmlns="http://www.w3.org/2000/svg" viewBox="0 0 450.73 108.5">
  <defs>
    <style>
      .cls-1 {
        fill: #998039;
      }

      .cls-2 {
        opacity: .2;
      }

      .cls-3 {
        fill: #626f47;
      }
    </style>
  </defs>
  <g id="_메인오브젝트" data-name="메인오브젝트">
    <g class="cls-2">
      <path class="cls-1" d="M30.69,8.62q17.92,0,35.84.04c17.92,0,17.92-1.66,35.84-1.66s17.92,1,35.85,1,17.92.73,35.84.73,17.92,0,35.84,0,17.92,1.57,35.85,1.57,17.92-1.23,35.85-1.23,17.92,1.12,35.85,1.12,17.92-1.89,35.85-1.89,17.93-.07,35.85-.07,17.93-.67,35.85-.67c13.22,0,25.74,11.52,25.74,24.74,0,25.45-1.16,25.45-1.16,50.91,0,13.22-11.36,23.03-24.58,23.03-17.92,0-17.92,2.27-35.84,2.27-17.92,0-17.92-1.41-35.84-1.41-17.92,0-17.92-.45-35.85-.45-17.92,0-17.92.2-35.84.2-17.92,0-17.92,1.55-35.84,1.55-17.92,0-17.92-2.87-35.85-2.87-17.92,0-17.92,1.56-35.85,1.56-17.92,0-17.92.86-35.85.86-17.92,0-17.92-.94-35.85-.94-17.93,0-17.93-1.2-35.85-1.2-17.93,0-17.93-.35-35.85-.35-13.22,0-24.69-9.02-24.69-22.24,0-25.45,1.45-25.45,1.45-50.91,0-13.22,10.02-23.68,23.24-23.68Z"/>
    </g>
    <path class="cls-3" d="M24.69,1.62q17.92,0,35.84.04c17.92,0,17.92-1.66,35.84-1.66s17.92,1,35.85,1,17.92.73,35.84.73,17.92,0,35.84,0,17.92,1.57,35.85,1.57,17.92-1.23,35.85-1.23,17.92,1.12,35.85,1.12,17.92-1.89,35.85-1.89,17.93-.07,35.85-.07,17.93-.67,35.85-.67c13.22,0,25.74,11.52,25.74,24.74,0,25.45-1.16,25.45-1.16,50.91,0,13.22-11.36,23.03-24.58,23.03-17.92,0-17.92,2.27-35.84,2.27-17.92,0-17.92-1.41-35.84-1.41-17.92,0-17.92-.45-35.85-.45-17.92,0-17.92.2-35.84.2-17.92,0-17.92,1.55-35.84,1.55-17.92,0-17.92-2.87-35.85-2.87-17.92,0-17.92,1.56-35.85,1.56-17.92,0-17.92.86-35.85.86-17.92,0-17.92-.94-35.85-.94-17.93,0-17.93-1.2-35.85-1.2-17.93,0-17.93-.35-35.85-.35-13.22,0-24.69-9.02-24.69-22.24,0-25.45,1.45-25.45,1.45-50.91C1.45,12.08,11.47,1.62,24.69,1.62Z"/>
  </g>
</svg>