<?xml version="1.0" encoding="UTF-8"?>
<svg id="Layer_2" data-name="Layer 2" xmlns="http://www.w3.org/2000/svg" viewBox="0 0 1442.36 2168.16">
  <defs>
    <style>
      .cls-1 {
        fill: none;
        stroke: #798645;
        stroke-miterlimit: 10;
        stroke-width: 5px;
      }

      .cls-2 {
        fill: #fffbe9;
      }
    </style>
  </defs>
  <g id="_메인오브젝트" data-name="메인오브젝트">
    <g>
      <path class="cls-2" d="M1419.03,2165.38q-36.73,0-73.45-.07c-36.73,0-36.73-1.71-73.45-1.71-36.72,0-36.72-1.01-73.45-1.01-36.73,0-36.73,1.9-73.45,1.9-36.73,0-36.73.88-73.45.88-36.73,0-36.73.3-73.45.3-36.72,0-36.72-4.15-73.45-4.15-36.72,0-36.72-.39-73.45-.39-36.72,0-36.72,4.16-73.45,4.16-36.73,0-36.73-.38-73.45-.38-36.73,0-36.73-3.51-73.45-3.51-36.73,0-36.73,1.49-73.45,1.49-36.73,0-36.73,2.25-73.45,2.25-36.73,0-36.73-3.76-73.45-3.76-36.73,0-36.73.77-73.45.77-36.73,0-36.73-1.32-73.45-1.32-36.73,0-36.73,4.16-73.46,4.16s-36.73-3.17-73.46-3.17c-36.73,0-36.73,2.3-73.46,2.3-10.22,0-16.54-9.26-16.54-19.48,0-36.57-3.13-36.57-3.13-73.14,0-36.57,2.62-36.57,2.62-73.14,0-36.57-2.9-36.57-2.9-73.14,0-36.57,1.47-36.57,1.47-73.14,0-36.57,2.29-36.57,2.29-73.14,0-36.57-1.27-36.57-1.27-73.15,0-36.57,1.12-36.57,1.12-73.14,0-36.57-2.63-36.57-2.63-73.15,0-36.57-.56-36.57-.56-73.14,0-36.57.35-36.57.35-73.14,0-36.57,1.47-36.57,1.47-73.14,0-36.57.11-36.57.11-73.14,0-36.57.48-36.57.48-73.14,0-36.57-1.01-36.57-1.01-73.15,0-36.57-.23-36.57-.23-73.15,0-36.57.71-36.57.71-73.15q0-36.57-.04-73.14c0-36.57-1.79-36.57-1.79-73.14,0-36.57-.44-36.57-.44-73.14,0-36.57,3.71-36.57,3.71-73.15,0-36.57-3.66-36.57-3.66-73.15,0-36.57.1-36.57.1-73.15,0-36.57-1.16-36.57-1.16-73.15,0-36.57,1.46-36.57,1.46-73.15,0-36.57,3.32-36.57,3.32-73.15,0-36.57-3.08-36.57-3.08-73.15,0-36.58-.94-36.58-.94-73.15,0-36.58,3.88-36.58,3.88-73.15S3.65,60.02,3.65,23.44C3.65,13.22,13.21,4.71,23.44,4.71c36.73,0,36.73.89,73.45.89s36.73-3.1,73.45-3.1,36.72,1.09,73.45,1.09,36.73,1.44,73.45,1.44,36.73-2.39,73.45-2.39,36.73,2.69,73.45,2.69,36.72.98,73.45.98,36.72-.41,73.45-.41,36.72-3.4,73.45-3.4,36.73,4.67,73.45,4.67,36.73-4.61,73.45-4.61,36.73,3.23,73.45,3.23,36.73-.3,73.45-.3,36.73.63,73.45.63,36.73-1.93,73.45-1.93,36.73.81,73.45.81,36.73-2.09,73.46-2.09,36.73,1.93,73.46,1.93,36.73.17,73.46.17c10.22,0,18.43,8.2,18.43,18.42,0,36.57-1.16,36.57-1.16,73.14,0,36.57,3.03,36.57,3.03,73.14,0,36.57-2.09,36.57-2.09,73.14,0,36.57,1.87,36.57,1.87,73.14,0,36.57-3.77,36.57-3.77,73.14,0,36.57,2.97,36.57,2.97,73.15,0,36.57-.1,36.57-.1,73.14,0,36.57-2.99,36.57-2.99,73.15,0,36.57,3.88,36.57,3.88,73.14,0,36.57-2.64,36.57-2.64,73.14s1.63,36.57,1.63,73.14c0,36.57-1.8,36.57-1.8,73.14,0,36.57,1.68,36.57,1.68,73.14,0,36.57,1.41,36.57,1.41,73.15,0,36.57-1.84,36.57-1.84,73.15,0,36.57-1.74,36.57-1.74,73.15,0,36.57,3.59,36.57,3.59,73.14,0,36.57-.65,36.57-.65,73.14,0,36.57-.86,36.57-.86,73.14q0,36.57.05,73.15c0,36.57-1.62,36.57-1.62,73.15,0,36.57,2.79,36.57,2.79,73.15,0,36.57-2.9,36.57-2.9,73.15,0,36.57,3.66,36.57,3.66,73.15,0,36.57-3.58,36.57-3.58,73.15,0,36.57,1.06,36.57,1.06,73.15,0,36.58-2.23,36.58-2.23,73.15,0,36.58,2.9,36.58,2.9,73.15,0,36.58-2.81,36.58-2.81,73.15,0,10.22-5.96,20.72-16.18,20.72Z"/>
      <path class="cls-1" d="M1419.03,2165.38q-36.73,0-73.45-.07c-36.73,0-36.73-1.71-73.45-1.71-36.72,0-36.72-1.01-73.45-1.01-36.73,0-36.73,1.9-73.45,1.9-36.73,0-36.73.88-73.45.88-36.73,0-36.73.3-73.45.3-36.72,0-36.72-4.15-73.45-4.15-36.72,0-36.72-.39-73.45-.39-36.72,0-36.72,4.16-73.45,4.16-36.73,0-36.73-.38-73.45-.38-36.73,0-36.73-3.51-73.45-3.51-36.73,0-36.73,1.49-73.45,1.49-36.73,0-36.73,2.25-73.45,2.25-36.73,0-36.73-3.76-73.45-3.76-36.73,0-36.73.77-73.45.77-36.73,0-36.73-1.32-73.45-1.32-36.73,0-36.73,4.16-73.46,4.16s-36.73-3.17-73.46-3.17c-36.73,0-36.73,2.3-73.46,2.3-10.22,0-16.54-9.26-16.54-19.48,0-36.57-3.13-36.57-3.13-73.14,0-36.57,2.62-36.57,2.62-73.14,0-36.57-2.9-36.57-2.9-73.14,0-36.57,1.47-36.57,1.47-73.14,0-36.57,2.29-36.57,2.29-73.14,0-36.57-1.27-36.57-1.27-73.15,0-36.57,1.12-36.57,1.12-73.14,0-36.57-2.63-36.57-2.63-73.15,0-36.57-.56-36.57-.56-73.14,0-36.57.35-36.57.35-73.14,0-36.57,1.47-36.57,1.47-73.14,0-36.57.11-36.57.11-73.14,0-36.57.48-36.57.48-73.14,0-36.57-1.01-36.57-1.01-73.15,0-36.57-.23-36.57-.23-73.15,0-36.57.71-36.57.71-73.15q0-36.57-.04-73.14c0-36.57-1.79-36.57-1.79-73.14,0-36.57-.44-36.57-.44-73.14,0-36.57,3.71-36.57,3.71-73.15,0-36.57-3.66-36.57-3.66-73.15,0-36.57.1-36.57.1-73.15,0-36.57-1.16-36.57-1.16-73.15,0-36.57,1.46-36.57,1.46-73.15,0-36.57,3.32-36.57,3.32-73.15,0-36.57-3.08-36.57-3.08-73.15,0-36.58-.94-36.58-.94-73.15,0-36.58,3.88-36.58,3.88-73.15S3.65,60.02,3.65,23.44C3.65,13.22,13.21,4.71,23.44,4.71c36.73,0,36.73.89,73.45.89s36.73-3.1,73.45-3.1,36.72,1.09,73.45,1.09,36.73,1.44,73.45,1.44,36.73-2.39,73.45-2.39,36.73,2.69,73.45,2.69,36.72.98,73.45.98,36.72-.41,73.45-.41,36.72-3.4,73.45-3.4,36.73,4.67,73.45,4.67,36.73-4.61,73.45-4.61,36.73,3.23,73.45,3.23,36.73-.3,73.45-.3,36.73.63,73.45.63,36.73-1.93,73.45-1.93,36.73.81,73.45.81,36.73-2.09,73.46-2.09,36.73,1.93,73.46,1.93,36.73.17,73.46.17c10.22,0,18.43,8.2,18.43,18.42,0,36.57-1.16,36.57-1.16,73.14,0,36.57,3.03,36.57,3.03,73.14,0,36.57-2.09,36.57-2.09,73.14,0,36.57,1.87,36.57,1.87,73.14,0,36.57-3.77,36.57-3.77,73.14,0,36.57,2.97,36.57,2.97,73.15,0,36.57-.1,36.57-.1,73.14,0,36.57-2.99,36.57-2.99,73.15,0,36.57,3.88,36.57,3.88,73.14,0,36.57-2.64,36.57-2.64,73.14s1.63,36.57,1.63,73.14c0,36.57-1.8,36.57-1.8,73.14,0,36.57,1.68,36.57,1.68,73.14,0,36.57,1.41,36.57,1.41,73.15,0,36.57-1.84,36.57-1.84,73.15,0,36.57-1.74,36.57-1.74,73.15,0,36.57,3.59,36.57,3.59,73.14,0,36.57-.65,36.57-.65,73.14,0,36.57-.86,36.57-.86,73.14q0,36.57.05,73.15c0,36.57-1.62,36.57-1.62,73.15,0,36.57,2.79,36.57,2.79,73.15,0,36.57-2.9,36.57-2.9,73.15,0,36.57,3.66,36.57,3.66,73.15,0,36.57-3.58,36.57-3.58,73.15,0,36.57,1.06,36.57,1.06,73.15,0,36.58-2.23,36.58-2.23,73.15,0,36.58,2.9,36.58,2.9,73.15,0,36.58-2.81,36.58-2.81,73.15,0,10.22-5.96,20.72-16.18,20.72Z"/>
    </g>
  </g>
</svg>