<?xml version="1.0" encoding="UTF-8"?>
<svg id="Layer_2" xmlns="http://www.w3.org/2000/svg" viewBox="0 0 688.76 89.21">
  <defs>
    <style>
      .cls-1 {
        fill: none;
        stroke: #4f5936;
        stroke-miterlimit: 10;
        stroke-width: 2px;
      }
    </style>
  </defs>
  <g id="_메인오브젝트" data-name="메인오브젝트">
    <path class="cls-1" d="M661.95,85.76c-17.64,0-17.64.69-35.29.69-17.64,0-17.64.28-35.29.28-17.65,0-17.65.34-35.29.34-17.64,0-17.64-.16-35.29-.16-17.65,0-17.65.44-35.29.44-17.64,0-17.64.31-35.29.31-17.65,0-17.65-2.56-35.29-2.56-17.65,0-17.65.54-35.29.54-17.65,0-17.65,1.82-35.29,1.82-17.65,0-17.65.53-35.29.53-17.64,0-17.64-2.11-35.29-2.11-17.64,0-17.64,2.33-35.29,2.33-17.65,0-17.65-1.81-35.29-1.81-17.65,0-17.65-1.94-35.29-1.94s-17.65.78-35.3.78c-17.65,0-17.65,1.14-35.29,1.14-17.65,0-17.65,1.01-35.3,1.01-17.65,0-17.65-.72-35.3-.72-13.2,0-25.68-10.95-25.68-24.15,0-17.93.59-17.93.59-35.86C1.59,13.45,13.48,1.98,26.68,1.98c17.64,0,17.64,1.52,35.29,1.52s17.64-1.87,35.29-1.87,17.65.85,35.29.85,17.64-.19,35.29-.19,17.65,1.21,35.29,1.21,17.64-.02,35.29-.02,17.65,1.12,35.29,1.12,17.65-.2,35.29-.2,17.65-.48,35.29-.48,17.65-.66,35.29-.66,17.64.11,35.29.11,17.64-.67,35.29-.67,17.65,1.43,35.29,1.43,17.65-.01,35.29-.01,17.65.61,35.3.61,17.65-.91,35.29-.91,17.65-2.84,35.3-2.84,17.65,2.27,35.3,2.27c13.2,0,23.31,10.19,23.31,23.39,0,17.93,2.51,17.93,2.51,35.86,0,13.2-12.62,23.24-25.82,23.24Z"/>
  </g>
</svg>