<?xml version="1.0" encoding="UTF-8"?>
<svg id="Layer_2" xmlns="http://www.w3.org/2000/svg" viewBox="0 0 984.98 1608.34">
  <defs>
    <style>
      .cls-1 {
        fill: #fcfaed;
      }

      .cls-2 {
        fill: #798645;
      }
    </style>
  </defs>
  <g id="_사각형" data-name="사각형">
    <g>
      <path class="cls-1" d="M670.47,1606.34c-9.12,0-13.75-1-18.23-1.97-4.47-.96-8.7-1.88-17.39-1.88s-13.38.17-17.73.33c-4.4.17-8.94.33-17.88.33s-13.41.06-17.78.12c-4.39.06-8.92.12-17.84.12s-13.57-.41-17.99-.81c-4.33-.39-8.81-.79-17.63-.79s-13.45-.04-17.83-.07c-4.37-.04-8.9-.07-17.79-.07s-13.28.45-17.61.88c-4.43.44-9,.9-18.01.9s-13.01.64-17.51,1.32-9.05,1.37-18.11,1.37-13.78-1.09-18.27-2.14c-4.46-1.05-8.68-2.04-17.35-2.04s-13.47-.11-17.86-.21c-4.37-.11-8.88-.21-17.76-.21s-13.4.09-17.77.18c-4.39.09-8.93.18-17.85.18s-12.95.81-17.44,1.66c-4.47.85-9.09,1.73-18.18,1.73s-13.61-.56-18.05-1.1c-4.52-.55-8.79-1.07-17.57-1.07s-13.06.48-17.59,1c-4.43.5-9.02,1.02-18.04,1.02s-13.72-.89-18.19-1.75c-4.48-.86-8.72-1.68-17.43-1.68s-12.94.85-17.42,1.75c-4.48.9-9.1,1.83-18.21,1.83s-13.4.1-17.77.2c-4.39.1-8.93.2-17.86.2s-13.69-.8-18.16-1.57c-4.49-.78-8.74-1.51-17.47-1.51s-12.96.79-17.45,1.63c-4.47.83-9.09,1.7-18.18,1.7-13.83,0-26.92-13.19-26.92-27.15,0-9.13.59-13.78,1.17-18.27.58-4.57,1.13-8.88,1.13-17.76s-.48-13.43-.94-17.8c-.47-4.48-.96-9.11-.96-18.22s.33-13.69.64-18.15c.31-4.39.63-8.94.63-17.87s.26-13.67.52-18.13c.25-4.4.51-8.95.51-17.9s-.01-13.51-.03-18.01c-.01-4.5-.03-9.01-.03-18.02s-.45-13.43-.89-17.81c-.45-4.48-.91-9.11-.91-18.21s-.3-13.49-.59-17.88c-.3-4.46-.6-9.07-.6-18.15s.16-13.64.31-18.08c.15-4.41.3-8.97.3-17.95s.88-13.86,1.72-18.38c.85-4.54,1.65-8.82,1.65-17.64s-.39-13.46-.78-17.84c-.39-4.47-.79-9.09-.79-18.19s.26-13.67.51-18.12c.25-4.4.5-8.95.5-17.9s-.13-13.54-.26-17.96c-.13-4.44-.26-9.04-.26-18.07s.04-13.6.07-18.03c.04-4.42.07-9,.07-18s-.56-13.19-1.16-17.76c-.59-4.49-1.19-9.14-1.19-18.27s.98-13.9,1.93-18.43c.95-4.53,1.85-8.8,1.85-17.6s-.59-13.18-1.21-17.74c-.61-4.49-1.25-9.14-1.25-18.28s.41-13.72.81-18.19c.39-4.38.8-8.92.8-17.84v-36.03c0-8.9-.48-13.22-.98-17.8-.49-4.48-.99-9.12-.99-18.23s.39-13.71.76-18.18c.37-4.39.75-8.92.75-17.84s-.12-13.54-.24-17.96c-.12-4.44-.24-9.03-.24-18.07s-.12-13.55-.23-17.96c-.11-4.44-.23-9.03-.23-18.06s.09-13.62.18-18.05c.09-4.42.18-8.99.18-17.97s-.13-13.54-.26-17.95c-.13-4.44-.26-9.04-.26-18.07s.09-13.61.18-18.05c.09-4.42.18-8.99.18-17.97s-.31-13.48-.61-17.88c-.3-4.46-.62-9.07-.62-18.15s.46-13.73.89-18.21c.43-4.38.88-8.91.88-17.82s-.41-13.45-.81-17.83c-.41-4.47-.83-9.1-.83-18.2s.1-13.62.2-18.06c.1-4.42.2-8.99.2-17.97s.36-13.7.71-18.17c.34-4.39.69-8.93.69-17.86s-.61-13.17-1.25-17.74c-.63-4.5-1.29-9.15-1.29-18.29s-.04-13.57-.07-18c-.04-4.43-.07-9.02-.07-18.03s-.04-13.57-.08-18c-.04-4.43-.08-9.02-.08-18.03s.06-13.61.13-18.04c.06-4.42.12-8.99.12-17.99s.26-13.67.51-18.13c.25-4.4.5-8.95.5-17.9s.1-13.62.2-18.06c.1-4.42.2-8.98.2-17.97s-.26-13.5-.5-17.9c-.25-4.46-.51-9.06-.51-18.13s.22-13.66.43-18.11c.21-4.41.43-8.96.43-17.92s.2-13.65.39-18.1c.19-4.41.39-8.97.39-17.93s.24-13.67.47-18.12c.23-4.4.47-8.96.47-17.91s-.13-13.54-.26-17.96c-.13-4.44-.26-9.04-.26-18.07s.33-13.7.64-18.16c.31-4.39.63-8.94.63-17.88s-.74-13.13-1.53-17.68c-.78-4.51-1.58-9.18-1.58-18.36C3.18,16.31,14.88,5.54,29.26,5.54c8.85,0,13.35-.24,17.7-.48,4.4-.24,8.96-.48,17.92-.48s13.34-.28,17.68-.56c4.41-.28,8.97-.57,17.94-.57s13.59.49,18.02.97c4.52.49,8.8.95,17.59.95s13.37.03,17.82.05c4.45.03,8.9.05,17.8.05s13.03-.59,17.54-1.21c4.44-.61,9.04-1.24,18.08-1.24s13.4-.1,17.76-.2c4.39-.1,8.93-.2,17.85-.2s13.7.83,18.16,1.63c4.49.81,8.73,1.57,17.45,1.57s13.4-.08,17.77-.16c4.39-.08,8.92-.16,17.85-.16s13.04-.54,17.56-1.11c4.44-.56,9.03-1.14,18.06-1.14s13.47.11,17.86.22c4.37.11,8.88.22,17.76.22s13.37.02,17.82.05c4.45.02,8.9.05,17.8.05s13.33-.32,17.67-.63c4.41-.32,8.98-.64,17.95-.64s13.73.92,18.2,1.82c4.48.89,8.71,1.74,17.42,1.74s13.49.19,17.89.37c4.36.18,8.86.37,17.73.37s13.37-.18,17.73-.34c4.4-.17,8.94-.35,17.89-.35s12.92-.89,17.4-1.84c4.48-.95,9.11-1.93,18.22-1.93s13.79,1.13,18.28,2.22c4.46,1.08,8.67,2.11,17.34,2.11s13.05-.53,17.56-1.1c4.44-.56,9.03-1.13,18.06-1.13s13.53.31,17.95.61c4.34.3,8.84.6,17.67.6s13.3-.39,17.63-.77c4.42-.39,8.99-.79,17.98-.79s13.06-.5,17.58-1.02c4.43-.52,9.02-1.05,18.04-1.05s13.65.65,18.09,1.28c4.51.64,8.77,1.24,17.53,1.24s13.48.15,17.88.29c4.36.14,8.87.29,17.75.29s13.37-.2,17.72-.4c4.4-.2,8.95-.4,17.9-.4s13.52.26,17.93.51c4.35.25,8.85.5,17.7.5s13.52.26,17.93.51c4.35.25,8.85.51,17.7.51,13.94,0,23.68,9.55,23.68,23.21,0,9.01,0,13.51-.02,18.02,0,4.5-.01,9-.01,18.01s.17,13.53.33,17.94c.16,4.45.33,9.04.33,18.09s.72,13.14,1.48,17.68c.75,4.51,1.53,9.17,1.53,18.34s-.31,13.69-.61,18.15c-.29,4.4-.6,8.94-.6,17.88s-.13,13.63-.26,18.07c-.13,4.41-.26,8.98-.26,17.96s-.4,13.72-.79,18.19c-.38,4.39-.78,8.92-.78,17.84s.84,13.09,1.73,17.63c.89,4.52,1.81,9.2,1.81,18.4s-.47,13.74-.92,18.21c-.44,4.38-.9,8.91-.9,17.81s.07,13.56.14,17.98c.07,4.44.14,9.02.14,18.04s.15,13.54.29,17.95c.15,4.44.3,9.04.3,18.08s.04,13.57.08,18c.04,4.43.08,9.02.08,18.03s.09,13.56.17,17.98c.08,4.44.17,9.03.17,18.05s-1.08,13.93-2.13,18.46c-1.04,4.52-2.03,8.78-2.03,17.56s.64,13.16,1.31,17.72c.67,4.5,1.36,9.15,1.36,18.31s-.57,13.77-1.13,18.26c-.56,4.57-1.1,8.89-1.1,17.77s.27,13.5.53,17.9c.26,4.46.54,9.07.54,18.13s.47,13.22.97,17.8c.49,4.48,1,9.12,1,18.23s0,13.51-.02,18.02c0,4.5-.02,9.01-.02,18.01s-.62,13.79-1.23,18.28c-.61,4.56-1.19,8.87-1.19,17.75s.82,13.1,1.7,17.63c.87,4.52,1.77,9.19,1.77,18.39s-.32,13.69-.63,18.15c-.31,4.39-.62,8.94-.62,17.87s-.17,13.64-.34,18.09c-.17,4.41-.34,8.97-.34,17.94s-.38,13.71-.74,18.18c-.36,4.39-.73,8.93-.73,17.85s-.01,13.51-.03,18.02c-.01,4.5-.03,9-.03,18.01s-.27,13.67-.54,18.13c-.26,4.4-.53,8.95-.53,17.89s.48,13.43.94,17.8c.47,4.48.96,9.11.96,18.22s-.29,13.68-.57,18.14c-.28,4.4-.56,8.94-.56,17.89s0,13.51.02,18.01c0,4.5.02,9.01.02,18.02s.57,13.19,1.17,17.75c.59,4.49,1.21,9.14,1.21,18.28s-.28,13.68-.54,18.13c-.26,4.4-.53,8.95-.53,17.9s.48,13.43.94,17.8c.47,4.48.96,9.11.96,18.22s-1.11,13.93-2.18,18.47c-1.07,4.52-2.07,8.78-2.07,17.56s.16,13.54.31,17.95c.15,4.44.31,9.04.31,18.08s.53,13.2,1.09,17.77c.55,4.49,1.12,9.13,1.12,18.26s.14,13.54.28,17.95c.14,4.44.28,9.04.28,18.08s-.91,13.88-1.79,18.4c-.88,4.53-1.71,8.82-1.71,17.63s.29,13.49.57,17.89c.28,4.46.58,9.07.58,18.14s.35,13.47.7,17.86c.35,4.47.71,9.08.71,18.17s0,13.51,0,18.01c0,4.5,0,9.01,0,18.02s.09,13.56.17,17.98c.08,4.44.17,9.03.17,18.06s.18,13.53.35,17.94c.18,4.45.36,9.05.36,18.1s-.08,13.62-.15,18.05c-.07,4.42-.15,8.99-.15,17.98s-.58,13.78-1.15,18.27c-.58,4.57-1.12,8.88-1.12,17.77,0,14.4-10.38,25.68-23.62,25.68-8.86,0-13.37.19-17.73.37-4.4.18-8.95.38-17.89.38s-13.65-.67-18.1-1.31c-4.51-.65-8.76-1.27-17.52-1.27s-13.28.46-17.61.89c-4.43.45-9,.92-18.01.92s-13.37.17-17.73.34c-4.4.17-8.94.34-17.88.34s-13.45-.05-17.83-.1c-4.37-.05-8.89-.1-17.79-.1s-13.61-.55-18.04-1.07c-4.52-.54-8.79-1.05-17.57-1.05s-13.37.19-17.73.37c-4.4.18-8.95.37-17.89.37s-13,.68-17.49,1.39c-4.46.71-9.06,1.44-18.12,1.44Z"/>
      <path class="cls-2" d="M777.28,4c17.81,0,17.81,2.52,35.62,2.52s17.81.57,35.63.57,17.81-.8,35.63-.8,17.81,1.01,35.63,1.01,17.82,1.02,35.63,1.02c12.75,0,21.68,8.47,21.68,21.21q0,18.01-.03,36.02c0,18.01.66,18.01.66,36.03s3.01,18.01,3.01,36.03-1.21,18.01-1.21,36.03-.52,18.01-.52,36.03-1.57,18.01-1.57,36.03,3.54,18.01,3.54,36.03-1.81,18.01-1.81,36.03.27,18.01.27,36.03.59,18.01.59,36.03.16,18.01.16,36.03.34,18.01.34,36.03-4.17,18.01-4.17,36.03,2.67,18.01,2.67,36.03-2.22,18.01-2.22,36.03,1.07,18.01,1.07,36.03,1.97,18.01,1.97,36.03-.03,18.01-.03,36.03-2.42,18.01-2.42,36.03,3.47,18.01,3.47,36.02-1.26,18.01-1.26,36.03-.68,18.01-.68,36.03-1.47,18.01-1.47,36.03-.05,18.01-.05,36.03-1.07,18.01-1.07,36.03,1.9,18.01,1.9,36.03-1.13,18.01-1.13,36.03.03,18.02.03,36.03,2.38,18.01,2.38,36.03-1.07,18.01-1.07,36.03,1.9,18.01,1.9,36.03-4.25,18.01-4.25,36.03.62,18.02.62,36.03,2.22,18.02,2.22,36.03.56,18.02.56,36.03-3.5,18.01-3.5,36.03,1.14,18.01,1.14,36.03,1.4,18.02,1.4,36.03.02,18.02.02,36.03.34,18.02.34,36.03.71,18.02.71,36.03-.3,18.02-.3,36.04-2.27,18.02-2.27,36.04c0,12.74-8.88,23.68-21.62,23.68-17.81,0-17.81.75-35.62.75s-17.81-2.58-35.62-2.58-17.81,1.81-35.61,1.81-17.81.68-35.62.68-17.81-.21-35.62-.21-17.81-2.12-35.62-2.12-17.81.74-35.62.74c-17.81,0-17.81,2.83-35.62,2.83s-17.81-3.84-35.62-3.84-17.81.67-35.62.67-17.81.25-35.62.25-17.81-1.6-35.62-1.6-17.81-.14-35.62-.14-17.81,1.78-35.62,1.78-17.81,2.69-35.62,2.69-17.81-4.18-35.62-4.18-17.81-.43-35.61-.43h-.01c-17.81,0-17.81.35-35.62.35s-17.81,3.39-35.62,3.39-17.81-2.17-35.62-2.17-17.81,2.02-35.62,2.02-17.81-3.43-35.62-3.43-17.81,3.59-35.63,3.59-17.81.4-35.62.4-17.81-3.09-35.63-3.09-17.81,3.32-35.63,3.32c-12.75,0-24.91-12.4-24.91-25.15,0-18.01,2.3-18.01,2.3-36.03s-1.9-18.01-1.9-36.03,1.27-18.01,1.27-36.03,1.03-18.01,1.03-36.03-.05-18.01-.05-36.03-1.8-18.01-1.8-36.03-1.19-18.01-1.19-36.03.61-18.01.61-36.03,3.37-18.01,3.37-36.03-1.57-18.01-1.57-36.03,1.01-18.01,1.01-36.03-.52-18.01-.52-36.03.14-18.01.14-36.03-2.35-18.01-2.35-36.03,3.78-18.01,3.78-36.03-2.46-18.01-2.46-36.03,1.61-18.01,1.61-36.03,0-18.01,0-36.03-1.96-18.01-1.96-36.03,1.51-18.01,1.51-36.02-.47-18.01-.47-36.03-.45-18.01-.45-36.03.37-18.01.37-36.03-.53-18.01-.53-36.02.35-18.01.35-36.03-1.22-18.01-1.22-36.03,1.77-18.01,1.77-36.03-1.63-18.02-1.63-36.03.39-18.01.39-36.03,1.4-18.01,1.4-36.03-2.53-18.01-2.53-36.03-.14-18.01-.14-36.03-.15-18.01-.15-36.03.25-18.02.25-36.03,1.02-18.02,1.02-36.03.39-18.01.39-36.03-1.01-18.01-1.01-36.03.86-18.02.86-36.03.78-18.02.78-36.03.94-18.02.94-36.03-.52-18.02-.52-36.03,1.28-18.02,1.28-36.04-3.11-18.02-3.11-36.04c0-12.74,11.34-22,24.08-22,17.81,0,17.81-.96,35.62-.96s17.81-1.13,35.62-1.13,17.81,1.92,35.61,1.92,17.81.11,35.62.11,17.81-2.45,35.62-2.45,17.81-.41,35.62-.41,17.81,3.2,35.62,3.2,17.81-.33,35.62-.33,17.81-2.26,35.62-2.26,17.81.44,35.62.44,17.81.1,35.62.1,17.81-1.28,35.62-1.28,17.81,3.55,35.62,3.55,17.81.74,35.62.74,17.81-.69,35.62-.69,17.81-3.77,35.62-3.77,17.81,4.32,35.62,4.32,17.81-2.23,35.62-2.23,17.81,1.22,35.62,1.22,17.81-1.56,35.62-1.56,17.81-2.07,35.62-2.07M777.28,0c-9.14,0-13.78.54-18.27,1.06-4.46.52-8.68,1.01-17.35,1.01s-13.7.4-18.16.8c-4.49.39-8.73.77-17.46.77s-13.03-.29-17.54-.6c-4.44-.3-9.04-.62-18.08-.62s-13.81.58-18.31,1.14c-4.45.56-8.66,1.08-17.32,1.08s-12.53-.99-16.87-2.05c-4.61-1.12-9.37-2.27-18.76-2.27s-14.06,1-18.64,1.97c-4.37.92-8.5,1.8-16.98,1.8-8.98,0-13.55.18-17.97.35-4.34.17-8.83.34-17.66.34s-13.31-.19-17.65-.36c-4.42-.18-8.99-.37-17.98-.37-8.51,0-12.65-.83-17.03-1.7-4.57-.91-9.29-1.85-18.59-1.85s-13.65.33-18.1.65c-4.51.32-8.76.63-17.52.63s-13.42-.02-17.79-.05c-4.38-.02-8.92-.05-17.83-.05s-13.36-.11-17.71-.22c-4.4-.11-8.95-.22-17.91-.22s-13.81.59-18.31,1.16c-4.45.56-8.65,1.1-17.31,1.1s-13.49.08-17.88.16c-4.36.08-8.87.16-17.74.16s-12.7-.75-17.1-1.53c-4.55-.82-9.25-1.66-18.51-1.66s-13.5.1-17.9.2c-4.36.1-8.86.2-17.72.2s-13.84.64-18.36,1.26c-4.44.61-8.63,1.19-17.27,1.19s-13.41-.03-17.78-.05c-4.38-.03-8.92-.05-17.83-.05s-12.91-.45-17.38-.94c-4.48-.48-9.12-.98-18.24-.98s-13.62.29-18.06.57c-4.51.29-8.78.55-17.56.55s-13.59.25-18.03.49c-4.52.24-8.8.48-17.59.48-7.28,0-14.19,2.57-19.47,7.22C4.24,15.66,1.18,22.33,1.18,29.54c0,9.35.82,14.1,1.61,18.7.77,4.46,1.5,8.67,1.5,17.34s-.31,13.18-.63,17.74c-.32,4.5-.65,9.15-.65,18.3s.13,13.68.26,18.13c.13,4.4.26,8.95.26,17.9s-.24,13.43-.46,17.81c-.23,4.48-.47,9.11-.47,18.23s-.2,13.46-.38,17.84c-.19,4.47-.39,9.09-.39,18.19s-.22,13.44-.42,17.83c-.21,4.48-.43,9.1-.43,18.21s.26,13.76.51,18.24c.26,4.57.5,8.9.5,17.79s-.1,13.52-.19,17.93c-.1,4.45-.2,9.05-.2,18.1s-.24,13.22-.5,17.79c-.25,4.48-.51,9.12-.51,18.24s-.06,13.55-.13,17.96c-.06,4.44-.13,9.04-.13,18.07s.04,13.61.08,18.05c.04,4.42.08,8.99.08,17.98s.04,13.61.07,18.05c.04,4.42.07,8.99.07,17.98s.66,14.01,1.31,18.57c.63,4.49,1.23,8.73,1.23,17.46s-.33,13.15-.69,17.7c-.35,4.5-.71,9.16-.71,18.33s-.1,13.52-.2,17.93c-.1,4.45-.2,9.05-.2,18.1s.42,13.86.83,18.38c.41,4.54.8,8.83.8,17.65s-.42,13.09-.87,17.62c-.44,4.52-.9,9.2-.9,18.4s.32,13.79.62,18.28c.31,4.56.6,8.87.6,17.74s-.09,13.53-.18,17.93c-.09,4.45-.18,9.05-.18,18.09s.13,13.67.26,18.13c.13,4.4.26,8.95.26,17.9s-.09,13.52-.18,17.93c-.09,4.45-.19,9.05-.19,18.09s.12,13.66.23,18.12c.11,4.4.23,8.96.23,17.91s.12,13.66.24,18.12c.12,4.4.24,8.95.24,17.91s-.36,13.13-.74,17.68c-.38,4.51-.77,9.17-.77,18.34s.51,13.91,1,18.45c.49,4.52.96,8.79.96,17.58s0,13.51,0,18.02c0,4.5,0,9.01,0,18.01s-.38,13.12-.79,17.66c-.4,4.52-.82,9.18-.82,18.37s.64,13.99,1.27,18.56c.61,4.49,1.19,8.74,1.19,17.47s-.88,12.77-1.81,17.19c-.97,4.63-1.98,9.41-1.98,18.84s.61,13.98,1.21,18.53c.59,4.5,1.14,8.75,1.14,17.5s-.04,13.56-.07,17.98c-.03,4.44-.07,9.02-.07,18.05s.13,13.67.26,18.13c.13,4.4.26,8.95.26,17.9s-.24,13.22-.5,17.79c-.25,4.48-.51,9.12-.51,18.24s.41,13.85.8,18.36c.4,4.54.77,8.83.77,17.67s-.79,12.83-1.62,17.28c-.86,4.61-1.76,9.37-1.76,18.75s-.15,13.48-.3,17.88c-.15,4.46-.31,9.08-.31,18.15s.31,13.79.61,18.28c.3,4.56.59,8.87.59,17.75s.47,13.89.92,18.41c.45,4.53.88,8.81.88,17.61s.01,13.52.03,18.03c.01,4.5.03,9,.03,18s-.25,13.21-.51,17.79c-.26,4.48-.52,9.12-.52,18.24s-.3,13.17-.62,17.73c-.32,4.5-.64,9.15-.64,18.29s.49,13.9.97,18.43c.48,4.52.93,8.8.93,17.59s-.54,13-1.12,17.51c-.58,4.55-1.18,9.26-1.18,18.52,0,14.98,14.05,29.15,28.91,29.15,9.28,0,13.99-.88,18.55-1.73,4.39-.82,8.54-1.59,17.08-1.59s12.73.72,17.13,1.49c4.55.79,9.25,1.6,18.5,1.6s13.5-.1,17.9-.2c4.36-.1,8.86-.2,17.72-.2,9.31,0,14.03-.95,18.6-1.87,4.38-.88,8.52-1.72,17.02-1.72s12.67.8,17.06,1.64c4.56.88,9.28,1.79,18.57,1.79s13.77-.53,18.26-1.03c4.46-.51,8.68-.98,17.36-.98s12.87.51,17.33,1.05c4.5.55,9.15,1.11,18.29,1.11s14-.9,18.56-1.77c4.39-.84,8.53-1.63,17.06-1.63,8.95,0,13.49-.09,17.89-.18,4.36-.09,8.87-.18,17.73-.18s13.36.11,17.72.21c4.4.11,8.95.22,17.91.22,8.44,0,12.55.96,16.9,1.98,4.6,1.08,9.36,2.2,18.73,2.2s13.88-.71,18.41-1.39c4.43-.67,8.61-1.3,17.21-1.3,9.1,0,13.73-.46,18.21-.91,4.48-.45,8.71-.87,17.41-.87s13.41.04,17.78.07c4.39.03,8.92.07,17.84.07s12.96.38,17.45.78c4.47.4,9.08.82,18.17.82s13.48-.06,17.87-.13c4.36-.06,8.88-.12,17.76-.12s13.54-.17,17.96-.34c4.34-.16,8.83-.33,17.66-.33s12.6.89,16.97,1.83c4.58.99,9.32,2.01,18.65,2.01s13.91-.74,18.44-1.47c4.42-.7,8.59-1.37,17.18-1.37s13.56-.19,17.97-.37c4.34-.18,8.82-.36,17.64-.36s12.88.5,17.34,1.03c4.49.54,9.14,1.09,18.28,1.09s13.4.05,17.76.1c4.39.05,8.93.1,17.86.1s13.55-.17,17.96-.34c4.34-.17,8.83-.34,17.66-.34s13.74-.47,18.21-.93c4.48-.45,8.7-.88,17.4-.88s12.8.61,17.24,1.25c4.52.66,9.19,1.33,18.38,1.33s13.56-.19,17.98-.38c4.34-.18,8.82-.37,17.64-.37,14.37,0,25.62-12.16,25.62-27.68,0-8.76.54-13.01,1.1-17.52.57-4.55,1.17-9.26,1.17-18.52s.08-13.54.15-17.95c.07-4.45.15-9.04.15-18.09s-.18-13.71-.36-18.17c-.17-4.39-.35-8.93-.35-17.86s-.09-13.65-.17-18.09c-.08-4.41-.17-8.97-.17-17.94s0-13.52,0-18.02c0-4.5,0-9.01,0-18.01s-.36-13.82-.71-18.33c-.35-4.55-.69-8.85-.69-17.71s-.29-13.78-.58-18.27c-.29-4.57-.56-8.88-.56-17.76s.82-12.81,1.68-17.25c.9-4.61,1.83-9.38,1.83-18.78s-.14-13.68-.28-18.14c-.14-4.4-.28-8.95-.28-17.89s-.58-13.96-1.14-18.5c-.55-4.51-1.08-8.76-1.08-17.53s-.16-13.69-.31-18.15c-.15-4.39-.31-8.94-.31-17.88s.98-12.7,2.02-17.1c1.1-4.65,2.23-9.46,2.23-18.93s-.49-13.9-.97-18.43c-.48-4.52-.93-8.8-.93-17.59s.26-13.21.53-17.78c.27-4.49.54-9.13.54-18.25s-.62-13.98-1.23-18.54c-.59-4.5-1.16-8.75-1.16-17.49s0-13.52-.02-18.02c0-4.5-.02-9-.02-18.01s.27-13.2.56-17.76c.28-4.49.57-9.13.57-18.26s-.49-13.9-.97-18.43c-.48-4.52-.93-8.8-.93-17.59s.26-13.21.53-17.78c.27-4.49.54-9.12.54-18.25s.01-13.5.03-18c.01-4.51.03-9.01.03-18.02s.35-13.14.72-17.69c.37-4.51.75-9.17.75-18.34s.17-13.47.34-17.86c.17-4.46.34-9.08.34-18.16s.3-13.17.62-17.73c.31-4.5.64-9.15.64-18.29s-.92-14.16-1.8-18.77c-.85-4.44-1.66-8.63-1.66-17.26s.57-12.99,1.17-17.48c.61-4.56,1.24-9.27,1.24-18.55s0-13.51.02-18.01c0-4.51.02-9.01.02-18.02s-.51-13.91-1.01-18.45c-.49-4.52-.96-8.79-.96-17.58s-.28-13.76-.54-18.25c-.27-4.57-.53-8.89-.53-17.78s.52-13.02,1.08-17.52c.56-4.55,1.14-9.25,1.14-18.5s-.7-14.03-1.38-18.6c-.66-4.48-1.29-8.72-1.29-17.43s.96-12.71,1.98-17.11c1.07-4.65,2.19-9.45,2.19-18.92s-.09-13.64-.17-18.09c-.08-4.41-.17-8.97-.17-17.94s-.04-13.61-.08-18.05c-.04-4.42-.08-8.99-.08-17.98s-.15-13.68-.3-18.14c-.14-4.4-.29-8.94-.29-17.88s-.07-13.63-.14-18.07c-.07-4.41-.14-8.98-.14-17.95s.43-13.08.89-17.61c.46-4.53.93-9.21.93-18.42s-.94-14.17-1.85-18.78c-.87-4.44-1.7-8.62-1.7-17.24s.37-13.12.77-17.67c.39-4.51.8-9.18.8-18.36s.13-13.5.26-17.9c.13-4.46.26-9.06.26-18.13s.29-13.18.59-17.75c.3-4.49.61-9.14.61-18.28s-.79-14.08-1.56-18.67c-.75-4.46-1.45-8.68-1.45-17.35s-.17-13.7-.33-18.16c-.16-4.39-.33-8.93-.33-17.87s0-13.5.02-18.01c0-4.51.02-9.01.02-18.02,0-14.85-10.56-25.21-25.68-25.21-8.79,0-13.06-.24-17.59-.5-4.44-.25-9.02-.52-18.04-.52s-13.07-.24-17.59-.5c-4.43-.25-9.02-.51-18.04-.51s-13.57.21-17.99.4c-4.33.19-8.82.4-17.63.4s-13.34-.14-17.68-.29c-4.41-.14-8.97-.29-17.94-.29s-12.81-.59-17.25-1.22c-4.52-.64-9.19-1.3-18.37-1.3h0Z"/>
    </g>
  </g>
</svg>