<?xml version="1.0" encoding="UTF-8"?>
<svg id="Layer_2" xmlns="http://www.w3.org/2000/svg" viewBox="0 0 978.18 1601.37">
  <defs>
    <style>
      .cls-1 {
        fill: none;
        stroke: #798645;
        stroke-miterlimit: 10;
        stroke-width: 4px;
      }
    </style>
  </defs>
  <g id="_사각형" data-name="사각형">
    <path class="cls-1" d="M952.11,1598.61c-17.81,0-17.81.3-35.62.3s-17.81-1.03-35.62-1.03-17.81.72-35.61.72c-17.81,0-17.81.27-35.62.27-17.81,0-17.81-.08-35.62-.08s-17.81-.85-35.62-.85-17.81.29-35.62.29-17.81,1.13-35.62,1.13c-17.81,0-17.81-1.54-35.62-1.54-17.81,0-17.81.27-35.62.27s-17.81.1-35.62.1c-17.81,0-17.81-.64-35.62-.64s-17.81-.06-35.62-.06-17.81.71-35.62.71-17.81,1.08-35.62,1.08-17.81-1.67-35.62-1.67-17.81-.17-35.62-.17c-17.81,0-17.81.14-35.62.14-17.81,0-17.81,1.36-35.62,1.36s-17.81-.87-35.62-.87c-17.81,0-17.81.81-35.62.81-17.81,0-17.81-1.37-35.62-1.37-17.81,0-17.81,1.44-35.63,1.44s-17.81.16-35.63.16c-17.82,0-17.82-1.24-35.63-1.24s-17.82,1.33-35.63,1.33c-12.75,0-23.81-11.16-23.81-23.91,0-18.01.92-18.01.92-36.02,0-18.01-.76-18.01-.76-36.03,0-18.01.51-18.01.51-36.03,0-18.01.41-18.01.41-36.03s-.02-18.01-.02-36.03-.72-18.01-.72-36.03-.48-18.01-.48-36.03c0-18.01.24-18.01.24-36.03,0-18.01,1.35-18.01,1.35-36.03s-.63-18.01-.63-36.03c0-18.01.4-18.01.4-36.03s-.21-18.01-.21-36.03c0-18.01.06-18.01.06-36.03s-.94-18.01-.94-36.03c0-18.01,1.51-18.01,1.51-36.03,0-18.01-.98-18.01-.98-36.03s.64-18.01.64-36.03q0-18.01,0-36.03c0-18.01-.78-18.01-.78-36.03s.6-18.01.6-36.02c0-18.01-.19-18.01-.19-36.03s-.18-18.01-.18-36.03c0-18.01.15-18.01.15-36.03s-.21-18.01-.21-36.02.14-18.01.14-36.03c0-18.01-.49-18.01-.49-36.03,0-18.01.71-18.01.71-36.03,0-18.02-.65-18.02-.65-36.03s.16-18.01.16-36.03c0-18.01.56-18.01.56-36.03s-1.01-18.01-1.01-36.03-.06-18.01-.06-36.03c0-18.01-.06-18.01-.06-36.03s.1-18.02.1-36.03.41-18.02.41-36.03c0-18.01.16-18.01.16-36.03,0-18.01-.4-18.01-.4-36.03s.34-18.02.34-36.03c0-18.02.31-18.02.31-36.03s.38-18.02.38-36.03c0-18.02-.21-18.02-.21-36.03,0-18.02.51-18.02.51-36.04s-1.24-18.02-1.24-36.04C2.47,13.32,13.21,3.42,25.95,3.42c17.81,0,17.81-.39,35.62-.39s17.81-.45,35.62-.45,17.81.77,35.61.77,17.81.04,35.62.04,17.81-.98,35.62-.98,17.81-.16,35.62-.16,17.81,1.28,35.62,1.28,17.81-.13,35.62-.13,17.81-.9,35.62-.9,17.81.18,35.62.18,17.81.04,35.62.04,17.81-.51,35.62-.51,17.81,1.42,35.62,1.42,17.81.29,35.62.29,17.81-.28,35.62-.28,17.81-1.51,35.62-1.51,17.81,1.73,35.62,1.73,17.81-.89,35.62-.89,17.81.49,35.62.49,17.81-.62,35.62-.62,17.81-.83,35.62-.83,17.81,1.01,35.62,1.01,17.81.23,35.63.23,17.81-.32,35.63-.32,17.82.4,35.63.4,17.82.41,35.63.41c12.75,0,22.52,9.59,22.52,22.33q0,18.01-.01,36.02c0,18.01.26,18.01.26,36.03,0,18.01,1.2,18.01,1.2,36.03,0,18.01-.48,18.01-.48,36.03s-.21,18.01-.21,36.03-.63,18.01-.63,36.03,1.42,18.01,1.42,36.03-.73,18.01-.73,36.03.11,18.01.11,36.03c0,18.01.24,18.01.24,36.03,0,18.01.06,18.01.06,36.03s.14,18.01.14,36.03c0,18.01-1.67,18.01-1.67,36.03s1.07,18.01,1.07,36.03c0,18.01-.89,18.01-.89,36.03,0,18.01.43,18.01.43,36.03s.79,18.01.79,36.03q0,18.01-.01,36.03c0,18.01-.97,18.01-.97,36.03s1.39,18.01,1.39,36.02-.5,18.01-.5,36.03c0,18.01-.27,18.01-.27,36.03,0,18.01-.59,18.01-.59,36.03s-.02,18.01-.02,36.02-.43,18.01-.43,36.03c0,18.01.76,18.01.76,36.03,0,18.01-.45,18.01-.45,36.03q0,18.02.01,36.03c0,18.01.95,18.01.95,36.03,0,18.01-.43,18.01-.43,36.03,0,18.01.76,18.01.76,36.03,0,18.01-1.7,18.01-1.7,36.03,0,18.01.25,18.01.25,36.03s.89,18.02.89,36.03c0,18.02.22,18.02.22,36.03,0,18.01-1.4,18.01-1.4,36.03,0,18.01.46,18.01.46,36.03,0,18.02.56,18.02.56,36.03q0,18.02,0,36.03c0,18.02.14,18.02.14,36.03,0,18.02.28,18.02.28,36.03,0,18.02-.12,18.02-.12,36.04s-.91,18.02-.91,36.04c0,12.75-9.75,23.32-22.49,23.32Z"/>
  </g>
</svg>