<?xml version="1.0" encoding="UTF-8"?>
<svg id="Layer_2" xmlns="http://www.w3.org/2000/svg" xmlns:xlink="http://www.w3.org/1999/xlink" viewBox="0 0 320 194.85">
  <defs>
    <style>
      .cls-1 {
        fill: none;
      }

      .cls-2 {
        fill: #798645;
      }

      .cls-3 {
        fill: #636d38;
      }

      .cls-4 {
        clip-path: url(#clippath);
      }
    </style>
    <clipPath id="clippath">
      <path class="cls-1" d="M159.99,35C71.64,35,.02,27.17.02,17.5v100.64c0,9.37,0,18.73-.02,28.1.17,11.65-1.16,23.97,7.13,32.35,17.87,18.34,148.86,16.42,180.48,15.99,27.62-.53,55.27-1.58,82.74-4.52,12.82-1.88,30.51-2.3,40.84-9.98,6.18-4.72,8.3-12.72,8.62-20.46.39-47.35.01-94.8.14-142.11,0,9.67-71.62,17.5-159.97,17.5Z"/>
    </clipPath>
  </defs>
  <g id="_메인오브젝트" data-name="메인오브젝트">
    <ellipse class="cls-2" cx="159.99" cy="17.5" rx="159.97" ry="17.5"/>
    <path class="cls-3" d="M159.91,29.14c-32.27-.02-64.09-.9-95.02-3.08-9.46-.66-20.17-1.63-30.01-2.78-7.08-.97-15.43-1.55-21.85-3.5-8.97-3.47,4.49-5.88,8.42-6.3,7.54-1.12,17.63-2.28,26.03-3.08,41.16-3.86,90.97-5.03,137.75-4.33,43.47.98,77.99,2.14,117.62,8.1,5.71,1.06,10.57,3.26,4.04,5.65-4.72,1.5-10.95,2.04-16.38,2.81-43.19,5.23-85.92,6.33-130.4,6.52h-.19Z"/>
    <path class="cls-2" d="M159.99,35C71.64,35,.02,27.17.02,17.5v100.64c0,9.37,0,18.73-.02,28.1.17,11.65-1.16,23.97,7.13,32.35,17.87,18.34,148.86,16.42,180.48,15.99,27.62-.53,55.27-1.58,82.74-4.52,12.82-1.88,30.51-2.3,40.84-9.98,6.18-4.72,8.3-12.72,8.62-20.46.39-47.35.01-94.8.14-142.11,0,9.67-71.62,17.5-159.97,17.5Z"/>
    <g class="cls-4">
      <g>
        <path class="cls-3" d="M159.99,78.59c-44.6,0-86.55-1.9-118.12-5.35-15.42-1.69-27.55-3.66-36.06-5.86-10.3-2.66-14.9-5.57-14.9-9.42h4.8s0-.07-.01-.08c.08.24,2.59,5.94,48.83,10.82,31.14,3.29,72.14,5.1,115.45,5.1s84.31-1.81,115.45-5.1c46.24-4.88,48.75-10.58,48.83-10.82,0,0-.01.04-.01.08h4.8c0,3.85-4.59,6.76-14.9,9.42-8.51,2.2-20.64,4.17-36.06,5.86-31.56,3.45-73.51,5.35-118.12,5.35Z"/>
        <path class="cls-3" d="M159.99,118.49c-44.6,0-86.55-1.9-118.12-5.35-15.42-1.69-27.55-3.66-36.06-5.86-10.3-2.67-14.9-5.57-14.9-9.42h4.8s0-.07-.01-.08c.08.24,2.59,5.94,48.83,10.82,31.14,3.29,72.14,5.1,115.45,5.1s84.31-1.81,115.45-5.1c46.24-4.88,48.75-10.58,48.83-10.82,0,0-.01.04-.01.08h4.8c0,3.85-4.59,6.76-14.9,9.42-8.51,2.2-20.64,4.17-36.06,5.86-31.56,3.45-73.51,5.35-118.12,5.35Z"/>
        <path class="cls-3" d="M159.99,158.4c-44.6,0-86.55-1.9-118.12-5.36-15.42-1.69-27.55-3.66-36.06-5.86-10.3-2.66-14.9-5.57-14.9-9.42h4.8s0-.07-.01-.08c.08.24,2.59,5.94,48.84,10.82,31.14,3.29,72.14,5.1,115.45,5.1s84.31-1.81,115.45-5.1c46.24-4.88,48.75-10.58,48.84-10.82,0,0-.01.04-.01.08h4.8c0,3.85-4.59,6.76-14.9,9.42-8.51,2.2-20.64,4.17-36.06,5.86-31.56,3.45-73.51,5.36-118.12,5.36Z"/>
      </g>
    </g>
  </g>
</svg>