<?xml version="1.0" encoding="UTF-8"?>
<svg id="Layer_2" xmlns="http://www.w3.org/2000/svg" viewBox="0 0 450.73 108.5">
  <defs>
    <style>
      .cls-1 {
        fill: #998039;
      }

      .cls-2 {
        opacity: .2;
      }

      .cls-3 {
        fill: #798645;
      }
    </style>
  </defs>
  <g id="_메인오브젝트" data-name="메인오브젝트">
    <g class="cls-2">
      <path class="cls-1" d="M426.04,106.89q-17.92,0-35.84-.04c-17.92,0-17.92,1.66-35.84,1.66-17.92,0-17.92-1-35.85-1-17.92,0-17.92-.73-35.84-.73q-17.92,0-35.84,0c-17.92,0-17.92-1.57-35.85-1.57-17.92,0-17.92,1.23-35.85,1.23-17.92,0-17.92-1.12-35.85-1.12-17.92,0-17.92,1.89-35.85,1.89-17.93,0-17.93.07-35.85.07s-17.93.67-35.85.67c-13.22,0-25.74-11.52-25.74-24.74,0-25.45,1.16-25.45,1.16-50.91,0-13.22,11.36-23.03,24.58-23.03,17.92,0,17.92-2.27,35.84-2.27s17.92,1.41,35.84,1.41,17.92.45,35.85.45,17.92-.2,35.84-.2,17.92-1.55,35.84-1.55,17.92,2.87,35.85,2.87,17.92-1.56,35.85-1.56,17.92-.86,35.85-.86,17.92.94,35.85.94,17.93,1.2,35.85,1.2,17.93.35,35.85.35c13.22,0,24.69,9.02,24.69,22.24,0,25.45-1.45,25.45-1.45,50.91,0,13.22-10.02,23.68-23.24,23.68Z"/>
    </g>
    <path class="cls-3" d="M420.04,99.89q-17.92,0-35.84-.04c-17.92,0-17.92,1.66-35.84,1.66-17.92,0-17.92-1-35.85-1-17.92,0-17.92-.73-35.84-.73q-17.92,0-35.84,0c-17.92,0-17.92-1.57-35.85-1.57-17.92,0-17.92,1.23-35.85,1.23-17.92,0-17.92-1.12-35.85-1.12-17.92,0-17.92,1.89-35.85,1.89-17.93,0-17.93.07-35.85.07s-17.93.67-35.85.67c-13.22,0-25.74-11.52-25.74-24.74,0-25.45,1.16-25.45,1.16-50.91C1.16,12.07,12.52,2.27,25.74,2.27c17.92,0,17.92-2.27,35.84-2.27s17.92,1.41,35.84,1.41,17.92.45,35.85.45,17.92-.2,35.84-.2S187.03.11,204.95.11s17.92,2.87,35.85,2.87,17.92-1.56,35.85-1.56,17.92-.86,35.85-.86,17.92.94,35.85.94,17.93,1.2,35.85,1.2,17.93.35,35.85.35c13.22,0,24.69,9.02,24.69,22.24,0,25.45-1.45,25.45-1.45,50.91,0,13.22-10.02,23.68-23.24,23.68Z"/>
  </g>
</svg>