<?xml version="1.0" encoding="UTF-8"?>
<svg id="Layer_2" xmlns="http://www.w3.org/2000/svg" xmlns:xlink="http://www.w3.org/1999/xlink" viewBox="0 0 260.52 339.23">
  <defs>
    <style>
      .cls-1 {
        fill: none;
      }

      .cls-2 {
        fill: #b6bc68;
      }

      .cls-3 {
        fill: #998039;
        opacity: .2;
      }

      .cls-4 {
        fill: #798645;
      }

      .cls-5 {
        fill: #636d38;
      }

      .cls-6 {
        clip-path: url(#clippath);
      }
    </style>
    <clipPath id="clippath">
      <path class="cls-1" d="M113.7,236.35C50.98,236.35.14,231.51.14,225.54c.15,24.79-.21,49.58-.13,74.37,0,6.11.54,13.03,5.33,17.36,4.62,4.34,11.74,5.74,17.95,6.79,49.03,8.12,99.34,11.18,148.94,7.84,15.86-1.53,34.93-.43,47.08-12.35,6.58-6.74,7.88-16.63,8.14-25.67.29-11.19-.23-22.43-.21-33.59-.04-11.58.03-23.17.03-34.75,0,5.97-50.84,10.81-113.55,10.81Z"/>
    </clipPath>
  </defs>
  <g id="_메인오브젝트" data-name="메인오브젝트">
    <path class="cls-3" d="M252.99,104.87l-1.19-.06c-5.47-.27-11.13-.55-14.72-3.48-1.64-1.28-2.51-3.01-2.32-4.62.21-1.85,1.68-2.91,2.88-3.46l.11-.05.4-.22.2-.12c.77-.51,3.42-1.26,5.2-1.77,5.92-1.67,12.64-3.57,13.85-9.71l.24-1.24-.35-1.21c-1.69-5.88-8.22-6.87-13.47-7.66-2.11-.32-6.49-.98-7.26-1.88l-.05-.07-.36-.45c-1.23-1.36-1.39-4.11-1.38-6.51.27-6.65.67-14.54,1.54-22.66.09-1.1.21-2.21.33-3.33.58-5.43,1.17-11.05-.37-16.95-1.39-4.74-4.25-8.31-8.49-10.6-3.46-1.86-7.86-2.81-13.08-2.81-10.14,0-21.66,3.54-28.55,5.66l-1.04.32c-1.33.41-2.43,1.31-3.08,2.54-.66,1.23-.79,2.65-.38,3.98.68,2.21,2.69,3.7,5,3.7.52,0,1.03-.08,1.53-.23l1.05-.32c5.91-1.82,16.91-5.2,25.56-5.2,3.42,0,6.12.52,8.04,1.56,1.74.94,2.82,2.29,3.37,4.19,1.02,3.89.53,8.55.05,13.05-.13,1.19-.25,2.37-.34,3.43-.89,8.29-1.3,16.44-1.58,23.43-.02,4.46.43,9.54,3.87,13.52,2.73,3.66,7.46,4.87,11.78,5.61-2.65.75-5.12,1.5-7.05,2.69-4.85,2.38-7.95,6.6-8.52,11.6-.6,5.26,1.74,10.5,6.19,13.98.33.27.66.52.99.76-.58.1-1.15.21-1.73.33l-.09.02-.54.16c-2.59.92-5.78,3.22-6.31,9.09-1.07,22.47-.52,45.36,0,67.49v.25c.2,7.99.39,16.16.51,24.3-20.19-51.82-47.52-115.84-84.37-174.22-4.43-6.88-12.68-19.7-25.08-19.7-.42,0-.84.01-1.26.04-7.96.54-15,6.69-20.93,18.31-28.27,57.25-53.44,117.03-77.78,174.86l-7.42,17.61c-.33.79-.43,1.62-.37,2.42-.03.1-.04.2-.04.3.15,24.79-.21,49.58-.13,74.37,0,6.11.54,13.03,5.33,17.36,4.62,4.34,11.74,5.74,17.95,6.79,49.03,8.12,99.34,11.18,148.94,7.84,15.86-1.53,34.93-.43,47.08-12.34,6.58-6.74,7.88-16.63,8.14-25.67.29-11.19-.23-22.43-.21-33.59-.03-11.32.02-22.65.03-33.98.68-2.48.69-5.43.7-7.93-.03-12.39-.33-25.01-.62-37.27-.53-21.92-1.07-44.58-.03-66.52,0,0,0-.01,0-.02,2.32-.39,4.8-.51,7.41-.63,3.71-.18,7.54-.36,11.22-1.28,4.11-.86,8.83-3.45,8.57-7.91-.11-1.98-1.23-5.38-7.52-5.87ZM101.09,41.04c4-7.84,8.37-12.31,12.31-12.57.18-.01.36-.02.54-.02,5.88,0,11.31,7.17,16.28,14.89,38.79,61.46,67.03,129.61,87.43,182.73-19.73-3.2-56.21-5.34-97.96-5.34-43.88,0-81.94,2.37-100.85,5.84l4.76-11.3c24.28-57.68,49.38-117.31,77.48-174.22Z"/>
    <ellipse class="cls-2" cx="113.7" cy="225.54" rx="113.55" ry="10.81"/>
    <path class="cls-4" d="M221.13,231.61c-4.75,0-7.05-5.54-8.58-9.21-20.47-53.45-48.97-122.7-88.32-185.06-4.98-7.72-10.41-14.89-16.28-14.89-.18,0-.36,0-.54.02-3.94.27-8.31,4.73-12.31,12.57-28.1,56.91-53.21,116.55-77.48,174.22l-7.42,17.62c-.82,1.94-2.71,3.2-4.82,3.2-.7,0-1.38-.14-2.03-.41-2.66-1.12-3.91-4.19-2.79-6.85l7.42-17.61c24.34-57.83,49.51-117.61,77.78-174.86,5.93-11.63,12.97-17.78,20.93-18.31.42-.03.84-.04,1.26-.04,12.39,0,20.65,12.81,25.08,19.7,36.85,58.38,64.18,122.41,84.37,174.22-.12-8.14-.31-16.31-.5-24.3v-.25c-.54-22.13-1.09-45.02-.01-67.49.53-5.86,3.72-8.17,6.31-9.09l.54-.16.09-.02c.58-.13,1.16-.24,1.73-.33-.33-.24-.66-.49-.99-.76-4.45-3.47-6.79-8.71-6.19-13.98.57-5,3.67-9.22,8.52-11.6,1.93-1.18,4.41-1.94,7.05-2.69-4.32-.73-9.04-1.94-11.78-5.61-3.43-3.98-3.88-9.07-3.87-13.52.29-7,.7-15.15,1.58-23.43.09-1.06.21-2.24.34-3.43.48-4.5.97-9.16-.05-13.05-.56-1.89-1.63-3.25-3.37-4.19-1.92-1.03-4.62-1.56-8.04-1.56-8.65,0-19.65,3.38-25.56,5.2l-1.05.32c-.5.15-1.01.23-1.53.23-2.31,0-4.32-1.49-5-3.7-.41-1.33-.27-2.75.38-3.98.65-1.23,1.75-2.14,3.08-2.54l1.04-.32c6.89-2.12,18.42-5.66,28.55-5.66,5.22,0,9.62.94,13.08,2.81,4.25,2.29,7.1,5.85,8.49,10.6,1.55,5.9.95,11.52.37,16.95-.12,1.12-.24,2.23-.33,3.33-.87,8.13-1.26,16.01-1.54,22.66,0,2.4.15,5.15,1.38,6.51l.36.45.05.07c.76.89,5.15,1.56,7.26,1.88,5.25.79,11.79,1.78,13.47,7.66l.35,1.21-.24,1.24c-1.21,6.14-7.92,8.04-13.85,9.71-1.78.5-4.43,1.25-5.2,1.77l-.2.12-.4.22-.11.05c-1.2.56-2.67,1.61-2.88,3.46-.18,1.62.69,3.35,2.32,4.62,3.59,2.93,9.25,3.21,14.72,3.48l1.19.06c6.29.49,7.4,3.89,7.52,5.87.26,4.46-4.46,7.05-8.57,7.91-3.69.92-7.52,1.11-11.22,1.28-2.61.13-5.09.25-7.41.63,0,0,0,.01,0,.02-1.04,21.94-.5,44.6.03,66.52.29,12.26.6,24.88.62,37.27-.02,5.08-.05,12.01-5.64,13.11-.4.08-.79.12-1.18.12Z"/>
    <path class="cls-4" d="M113.7,236.35C50.98,236.35.14,231.51.14,225.54c.15,24.79-.21,49.58-.13,74.37,0,6.11.54,13.03,5.33,17.36,4.62,4.34,11.74,5.74,17.95,6.79,49.03,8.12,99.34,11.18,148.94,7.84,15.86-1.53,34.93-.43,47.08-12.35,6.58-6.74,7.88-16.63,8.14-25.67.29-11.19-.23-22.43-.21-33.59-.04-11.58.03-23.17.03-34.75,0,5.97-50.84,10.81-113.55,10.81Z"/>
    <g class="cls-6">
      <g>
        <path class="cls-5" d="M115.15,263.27c-70.47,0-120.5-11.34-121.25-11.52l.76-3.27c1.12.26,113.01,25.6,238.12,0l.67,3.29c-42.15,8.63-82.82,11.51-118.31,11.51Z"/>
        <path class="cls-5" d="M108.59,287.1c-18.26,0-34.27-.97-47.6-2.28-41.92-4.13-67-12.48-67.25-12.57l1.07-3.18c.98.33,99.89,32.75,238.08-.04l.78,3.26c-47.64,11.3-90.39,14.81-125.08,14.81Z"/>
        <path class="cls-5" d="M119.44,310.28c-73.49,0-124.92-13.43-125.67-13.63l.87-3.24c1.09.29,110.39,28.82,238.3,2.14l.69,3.28c-40.91,8.53-79.94,11.45-114.18,11.45Z"/>
      </g>
    </g>
  </g>
</svg>