<?xml version="1.0" encoding="UTF-8"?>
<svg id="Layer_2" data-name="Layer 2" xmlns="http://www.w3.org/2000/svg" viewBox="0 0 1441.48 555.87">
  <defs>
    <style>
      .cls-1 {
        fill: none;
        stroke: #798645;
        stroke-miterlimit: 10;
        stroke-width: 5px;
      }

      .cls-2 {
        fill: #fffbe9;
      }
    </style>
  </defs>
  <g id="_메인오브젝트" data-name="메인오브젝트">
    <g>
      <path class="cls-2" d="M1418.04,553.09q-36.73,0-73.45-.07c-36.73,0-36.73-1.71-73.45-1.71-36.72,0-36.72-1.01-73.45-1.01-36.73,0-36.73,1.9-73.45,1.9s-36.73.88-73.45.88-36.73.3-73.45.3-36.72-4.15-73.45-4.15-36.72-.39-73.45-.39-36.72,4.16-73.45,4.16c-36.73,0-36.73-.38-73.45-.38-36.73,0-36.73-3.51-73.45-3.51s-36.73,1.49-73.45,1.49c-36.73,0-36.73,2.25-73.45,2.25-36.73,0-36.73-3.76-73.45-3.76s-36.73.77-73.45.77c-36.73,0-36.73-1.32-73.45-1.32-36.73,0-36.73,4.16-73.46,4.16s-36.73-3.17-73.46-3.17-36.73,2.3-73.46,2.3c-10.22,0-16.54-9.26-16.54-19.48,0-36.35-3.13-36.35-3.13-72.7,0-36.35,2.62-36.35,2.62-72.7,0-36.35-2.9-36.35-2.9-72.7,0-36.35,1.47-36.35,1.47-72.7,0-36.35,2.29-36.35,2.29-72.71,0-36.35-1.27-36.35-1.27-72.71s1.12-36.35,1.12-72.71c0-10.22,6.11-18.96,16.33-18.96,36.73,0,36.73-.56,73.45-.56s36.73.35,73.45.35,36.72,1.47,73.45,1.47,36.73.11,73.45.11,36.73.48,73.45.48,36.73-1.01,73.45-1.01,36.72-.23,73.45-.23,36.72.71,73.45.71,36.72-.04,73.45-.04,36.73-1.79,73.45-1.79,36.73-.44,73.45-.44,36.73,3.71,73.45,3.71,36.73-3.66,73.45-3.66,36.73.1,73.45.1,36.73-1.16,73.45-1.16,36.73,1.46,73.45,1.46,36.73,3.32,73.46,3.32,36.73-3.08,73.46-3.08,36.73-.94,73.46-.94c10.22,0,16.3,9.95,16.3,20.18,0,36.35,3.48,36.35,3.48,72.7,0,36.35-1.05,36.35-1.05,72.7,0,36.35-.89,36.35-.89,72.7,0,36.35,3.1,36.35,3.1,72.7,0,36.35-1.09,36.35-1.09,72.71,0,36.35-1.44,36.35-1.44,72.71s2.39,36.35,2.39,72.71c0,10.22-10.57,20.72-20.8,20.72Z"/>
      <path class="cls-1" d="M1418.04,553.09q-36.73,0-73.45-.07c-36.73,0-36.73-1.71-73.45-1.71-36.72,0-36.72-1.01-73.45-1.01-36.73,0-36.73,1.9-73.45,1.9s-36.73.88-73.45.88-36.73.3-73.45.3-36.72-4.15-73.45-4.15-36.72-.39-73.45-.39-36.72,4.16-73.45,4.16c-36.73,0-36.73-.38-73.45-.38-36.73,0-36.73-3.51-73.45-3.51s-36.73,1.49-73.45,1.49c-36.73,0-36.73,2.25-73.45,2.25-36.73,0-36.73-3.76-73.45-3.76s-36.73.77-73.45.77c-36.73,0-36.73-1.32-73.45-1.32-36.73,0-36.73,4.16-73.46,4.16s-36.73-3.17-73.46-3.17-36.73,2.3-73.46,2.3c-10.22,0-16.54-9.26-16.54-19.48,0-36.35-3.13-36.35-3.13-72.7,0-36.35,2.62-36.35,2.62-72.7,0-36.35-2.9-36.35-2.9-72.7,0-36.35,1.47-36.35,1.47-72.7,0-36.35,2.29-36.35,2.29-72.71,0-36.35-1.27-36.35-1.27-72.71s1.12-36.35,1.12-72.71c0-10.22,6.11-18.96,16.33-18.96,36.73,0,36.73-.56,73.45-.56s36.73.35,73.45.35,36.72,1.47,73.45,1.47,36.73.11,73.45.11,36.73.48,73.45.48,36.73-1.01,73.45-1.01,36.72-.23,73.45-.23,36.72.71,73.45.71,36.72-.04,73.45-.04,36.73-1.79,73.45-1.79,36.73-.44,73.45-.44,36.73,3.71,73.45,3.71,36.73-3.66,73.45-3.66,36.73.1,73.45.1,36.73-1.16,73.45-1.16,36.73,1.46,73.45,1.46,36.73,3.32,73.46,3.32,36.73-3.08,73.46-3.08,36.73-.94,73.46-.94c10.22,0,16.3,9.95,16.3,20.18,0,36.35,3.48,36.35,3.48,72.7,0,36.35-1.05,36.35-1.05,72.7,0,36.35-.89,36.35-.89,72.7,0,36.35,3.1,36.35,3.1,72.7,0,36.35-1.09,36.35-1.09,72.71,0,36.35-1.44,36.35-1.44,72.71s2.39,36.35,2.39,72.71c0,10.22-10.57,20.72-20.8,20.72Z"/>
    </g>
  </g>
</svg>