<?xml version="1.0" encoding="UTF-8"?>
<svg id="Layer_2" xmlns="http://www.w3.org/2000/svg" viewBox="0 0 980.4 30.88">
  <defs>
    <style>
      .cls-1 {
        fill: #fcfaed;
      }

      .cls-2 {
        fill: #798645;
      }
    </style>
  </defs>
  <g id="_메인오브젝트" data-name="메인오브젝트">
    <g>
      <path class="cls-1" d="M472.06,28.88c-9,0-13.58-.37-18-.73-4.35-.35-8.84-.72-17.68-.72s-13.41.13-17.78.25c-4.4.12-8.95.25-17.9.25s-13.53-.24-17.94-.47c-4.36-.23-8.87-.47-17.74-.47s-13.4.16-17.77.31c-4.4.15-8.96.31-17.91.31s-13.41.15-17.78.29c-4.4.14-8.95.29-17.91.29s-13.5-.13-17.89-.25c-4.37-.12-8.89-.25-17.78-.25s-13.42.11-17.79.21c-4.4.1-8.94.21-17.89.21s-13.38,0-17.84.02c-4.46,0-8.92.02-17.84.02s-13.54-.25-17.95-.49c-4.36-.24-8.87-.48-17.73-.48s-13.52-.18-17.92-.36c-4.37-.17-8.88-.36-17.76-.36s-13.39.19-17.76.38c-4.41.19-8.96.38-17.92.38s-13.37.26-17.73.5c-4.41.25-8.98.51-17.96.51s-13.49-.11-17.89-.21c-4.38-.1-8.9-.21-17.8-.21-1.87,0-5-.89-5-6.88,0-2.52-.27-3.75-.55-5.05-.32-1.45-.65-2.95-.65-5.91,0-1.59.6-5.3,6.2-5.3,8.86,0,13.36-.29,17.71-.57,4.42-.28,8.98-.58,17.97-.58s13.56.31,17.97.62c4.35.3,8.85.61,17.7.61s13.05-.57,17.57-1.18c4.45-.6,9.05-1.22,18.11-1.22s13.43-.06,17.81-.11c4.39-.05,8.93-.11,17.86-.11s13.57.36,18,.72c4.35.35,8.84.7,17.68.7s13.44-.04,17.82-.08c4.39-.04,8.93-.08,17.86-.08s13.56.34,17.99.67c4.35.32,8.84.66,17.69.66s13.08-.5,17.61-1.02c4.44-.52,9.03-1.05,18.07-1.05s13.64.56,18.08,1.1,8.8,1.07,17.6,1.07,13.34-.34,17.69-.66c4.42-.33,8.99-.67,17.99-.67s13.37-.25,17.73-.49c4.41-.24,8.97-.49,17.95-.49s13.53.22,17.94.43c4.36.21,8.87.43,17.74.43s13.48.08,17.88.16c4.38.08,8.9.16,17.8.16s13.39.03,17.85.05c4.46.03,8.91.05,17.83.05s13.48.07,17.87.13c4.38.06,8.9.13,17.81.13s13.3-.47,17.63-.92c4.44-.46,9.02-.94,18.05-.94s13.6.46,18.04.9c4.34.43,8.82.88,17.64.88s13.09-.47,17.62-.97c4.44-.49,9.03-.99,18.06-.99s13.65.61,18.1,1.2c4.52.6,8.79,1.16,17.58,1.16s13.39-.2,17.75-.39c4.41-.19,8.96-.39,17.93-.39s13.36-.27,17.72-.53c4.41-.26,8.98-.53,17.96-.53s13.57.34,17.99.67c4.35.33,8.85.66,17.69.66s13.49.1,17.89.2c4.37.1,8.9.2,17.8.2s13.37-.25,17.73-.5c4.41-.25,8.98-.5,17.95-.5s13.41-.13,17.78-.26c4.4-.13,8.95-.26,17.9-.26s13.57.33,17.99.65c4.35.31,8.85.64,17.7.64s13.38,0,17.84-.01c4.46,0,8.92-.01,17.85-.01,3.85,0,6.86,2.62,6.86,5.97,0,2.93-.28,4.42-.56,5.85-.25,1.31-.49,2.56-.49,5.11,0,3.8-2.39,6.46-5.82,6.46-8.9,0-13.42.11-17.79.22-4.4.11-8.94.22-17.89.22s-13.59-.4-18.01-.79c-4.34-.38-8.83-.77-17.66-.77s-13.39-.02-17.85-.04c-4.46-.02-8.92-.04-17.83-.04s-13.09.47-17.62.96c-4.44.48-9.03.99-18.05.99s-13.52-.19-17.92-.38c-4.36-.18-8.88-.37-17.75-.37s-13.49-.12-17.89-.24c-4.37-.12-8.89-.24-17.79-.24s-13.39.19-17.75.38c-4.41.19-8.96.39-17.92.39s-13.56-.32-17.98-.64c-4.35-.31-8.85-.63-17.7-.63s-13.4.15-17.77.29c-4.4.14-8.95.29-17.9.29s-13.52-.2-17.93-.39c-4.36-.19-8.88-.39-17.75-.39s-13.37.26-17.72.51c-4.41.26-8.98.52-17.96.52s-13.39-.03-17.85-.06c-4.46-.03-8.91-.06-17.83-.06s-13.33.38-17.67.76c-4.43.38-9,.77-18.01.77s-13.43.06-17.81.12c-4.39.06-8.93.12-17.87.12Z"/>
      <path class="cls-2" d="M650.4,4c17.84,0,17.84,2.36,35.68,2.36s17.84-.78,35.68-.78,17.84-1.06,35.68-1.06,17.84,1.33,35.68,1.33,17.84.4,35.68.4,17.84-1,35.68-1,17.84-.52,35.68-.52,17.84,1.28,35.69,1.28,17.84-.03,35.69-.03c2.48,0,4.86,1.5,4.86,3.97,0,5.48-1.04,5.48-1.04,10.96,0,2.48-1.35,4.45-3.82,4.45-17.84,0-17.84.43-35.68.43s-17.84-1.56-35.68-1.56-17.84-.07-35.68-.07-17.84,1.95-35.67,1.95-17.84-.75-35.68-.75-17.84-.48-35.68-.48-17.84.77-35.68.77-17.84-1.26-35.67-1.26-17.84.58-35.68.58-17.84-.78-35.68-.78-17.84,1.04-35.68,1.04-17.84-.12-35.68-.12-17.84,1.53-35.68,1.53-17.84.23-35.68.23-17.84-1.45-35.68-1.45-17.84.5-35.68.5-17.84-.94-35.68-.94-17.84.62-35.68.62-17.84.58-35.68.58-17.84-.5-35.68-.5-17.84.42-35.68.42-17.84.03-35.68.03-17.84-.97-35.68-.97-17.84-.71-35.68-.71-17.84.75-35.68.75-17.84,1.01-35.69,1.01-17.85-.42-35.68-.42h0c-2.48,0-3-2.41-3-4.88,0-5.48-1.2-5.48-1.2-10.96,0-2.48,1.72-3.3,4.2-3.3,17.84,0,17.84-1.15,35.68-1.15s17.84,1.23,35.68,1.23,17.84-2.4,35.68-2.4,17.84-.22,35.67-.22,17.84,1.42,35.68,1.42,17.84-.15,35.68-.15,17.84,1.33,35.68,1.33,17.84-2.07,35.67-2.07,17.84,2.17,35.68,2.17,17.84-1.33,35.68-1.33,17.84-.98,35.68-.98,17.84.86,35.68.86,17.84.32,35.68.32,17.84.1,35.68.1,17.84.26,35.68.26,17.84-1.87,35.68-1.87,17.84,1.77,35.68,1.77,17.84-1.96,35.68-1.96M650.4,0c-9.14,0-13.78.51-18.28,1-4.48.49-8.7.95-17.4.95s-12.96-.42-17.44-.87c-4.48-.45-9.12-.91-18.24-.91s-13.77.49-18.26.96c-4.48.47-8.71.91-17.42.91s-13.41-.07-17.78-.13c-4.4-.06-8.95-.13-17.9-.13s-13.44-.03-17.82-.05c-4.39-.03-8.93-.05-17.86-.05s-13.4-.08-17.77-.16c-4.4-.08-8.96-.16-17.91-.16s-13.31-.22-17.65-.43c-4.43-.21-9.02-.44-18.03-.44s-13.62.25-18.06.5c-4.53.25-8.81.48-17.62.48s-13.68.34-18.14.68c-4.51.34-8.77.66-17.54.66s-12.89-.51-17.35-1.06c-4.5-.55-9.16-1.12-18.32-1.12s-13.8.54-18.3,1.06c-4.47.52-8.69,1.01-17.38,1.01s-13.03-.32-17.54-.65c-4.46-.33-9.07-.68-18.14-.68s-13.48.04-17.87.08c-4.38.04-8.9.08-17.81.08s-13.01-.34-17.52-.7c-4.46-.36-9.08-.72-18.16-.72s-13.49.06-17.89.11c-4.37.05-8.89.11-17.79.11s-13.86.63-18.37,1.23c-4.45.6-8.65,1.16-17.31,1.16s-13.05-.29-17.56-.6c-4.45-.31-9.06-.62-18.11-.62s-13.65.3-18.1.58c-4.52.29-8.79.57-17.58.57C2.15,2.65,0,6.42,0,9.95c0,3.17.37,4.86.69,6.34.27,1.24.51,2.32.51,4.63,0,8.24,5.36,8.88,7,8.88,8.88,0,13.39.11,17.75.21,4.41.1,8.97.21,17.94.21s13.63-.26,18.07-.51c4.53-.26,8.81-.5,17.62-.5s13.58-.19,18.01-.38c4.34-.18,8.84-.37,17.67-.37s13.34.18,17.68.35c4.43.18,9,.36,18,.36s13.09.23,17.62.48c4.44.24,9.03.49,18.06.49s13.39,0,17.85-.02c4.46,0,8.92-.02,17.83-.02s13.52-.11,17.93-.21c4.36-.1,8.87-.21,17.75-.21s13.37.13,17.73.25c4.41.12,8.97.25,17.95.25s13.55-.15,17.97-.29c4.35-.14,8.86-.29,17.71-.29s13.56-.16,17.98-.31c4.35-.15,8.85-.31,17.7-.31s13.1.23,17.63.46c4.44.23,9.02.47,18.05.47s13.54-.13,17.95-.25c4.36-.12,8.86-.25,17.73-.25s13.01.35,17.51.71c4.46.36,9.08.74,18.16.74s13.49-.06,17.89-.12c4.37-.06,8.89-.12,17.79-.12s13.71-.4,18.18-.78c4.5-.39,8.75-.75,17.5-.75s13.44.03,17.81.06c4.39.03,8.93.06,17.87.06s13.63-.27,18.07-.52c4.53-.26,8.8-.51,17.61-.51s13.32.2,17.66.39c4.43.19,9.01.39,18.01.39s13.55-.15,17.97-.29c4.35-.14,8.85-.29,17.71-.29s13.04.3,17.56.62c4.45.32,9.06.64,18.12.64s13.58-.2,18.01-.39c4.34-.19,8.83-.38,17.67-.38s13.37.12,17.73.24c4.41.12,8.97.24,17.95.24s13.33.19,17.67.37c4.43.19,9,.38,18.01.38s13.78-.51,18.27-1c4.47-.49,8.7-.95,17.4-.95s13.44.02,17.82.04c4.39.02,8.93.04,17.86.04s12.99.37,17.49.77c4.47.39,9.09.8,18.19.8s13.53-.11,17.94-.22c4.36-.11,8.87-.22,17.74-.22,4.53,0,7.82-3.56,7.82-8.45,0-2.36.21-3.46.45-4.74.28-1.46.59-3.11.59-6.23,0-4.47-3.89-7.97-8.86-7.97-8.93,0-13.39,0-17.85.01-4.46,0-8.92.01-17.84.01s-13.04-.31-17.56-.63c-4.46-.32-9.07-.65-18.13-.65s-13.54.13-17.96.26c-4.36.13-8.86.26-17.72.26s-13.63.26-18.07.51c-4.53.25-8.81.5-17.62.5s-13.39-.1-17.75-.2c-4.41-.1-8.97-.2-17.93-.2s-13.03-.32-17.54-.66c-4.46-.33-9.07-.68-18.14-.68s-13.63.27-18.08.54c-4.53.27-8.8.52-17.6.52s-13.59.2-18.01.4c-4.34.19-8.83.39-17.66.39s-12.86-.56-17.32-1.15c-4.51-.6-9.18-1.22-18.37-1.22h0Z"/>
    </g>
  </g>
</svg>